<svg id="svg" version="1.1" xmlns="http://www.w3.org/2000/svg" xmlns:xlink="http://www.w3.org/1999/xlink" width="400" height="339.8198198198198" viewBox="0, 0, 400,339.8198198198198"><g id="svgg"><path id="path0" d="M146.036 48.106 L 95.045 62.843 95.045 100.476 C 95.045 140.640,95.029 139.786,95.963 148.636 C 98.604 173.668,106.006 198.777,116.919 219.730 L 118.514 222.793 147.455 222.838 L 176.396 222.884 176.396 220.548 C 176.396 217.230,177.078 215.592,179.054 214.157 C 180.808 212.884,180.100 212.928,199.369 212.904 L 216.667 212.883 217.796 213.495 C 220.633 215.034,221.154 216.288,221.228 221.757 C 221.285 225.926,221.287 225.946,221.679 225.944 C 221.895 225.943,226.392 225.178,231.672 224.243 L 241.273 222.544 242.483 221.431 C 251.131 213.481,264.337 215.178,270.742 225.061 L 271.511 226.248 273.117 225.985 L 274.723 225.721 276.536 222.365 C 288.673 199.898,296.412 174.042,299.085 147.027 C 299.892 138.864,299.880 139.544,299.949 100.509 L 300.016 62.909 298.521 62.459 C 292.176 60.546,197.609 33.337,197.354 33.351 C 197.174 33.360,174.081 40.000,146.036 48.106 M201.261 80.362 C 253.708 84.403,277.361 148.233,240.192 185.419 C 205.570 220.057,146.315 202.074,136.385 153.914 C 128.202 114.224,160.819 77.246,201.261 80.362 M212.973 103.333 C 213.309 103.680,213.625 103.964,213.674 103.964 C 213.724 103.964,213.489 103.680,213.153 103.333 C 212.817 102.986,212.501 102.703,212.452 102.703 C 212.402 102.703,212.637 102.986,212.973 103.333 " stroke="none" fill="#3284f7" fill-rule="evenodd"></path><path id="path1" d="M191.959 80.372 C 148.632 83.709,122.158 130.295,141.553 169.071 C 144.048 174.060,149.715 182.423,149.868 181.342 C 151.869 167.209,183.083 155.317,207.297 159.461 C 227.315 162.887,241.553 171.205,243.497 180.608 L 243.716 181.667 245.033 180.015 C 260.443 160.691,262.596 133.448,250.432 111.711 C 238.704 90.754,215.893 78.529,191.959 80.372 M200.540 97.036 C 219.495 100.110,226.841 123.325,213.170 136.948 C 199.933 150.138,177.269 143.058,173.668 124.608 C 170.563 108.705,184.475 94.430,200.540 97.036 M197.867 254.052 C 190.718 255.968,188.244 264.770,193.390 269.977 C 196.038 272.656,197.464 273.015,204.819 272.854 L 210.297 272.734 212.806 275.239 L 215.315 277.743 215.315 275.194 L 215.315 272.644 216.047 272.521 C 217.305 272.308,219.109 271.269,220.330 270.054 C 225.523 264.886,223.341 256.440,216.216 254.133 C 214.603 253.611,199.757 253.545,197.867 254.052 M214.445 262.821 C 214.854 263.191,214.864 263.567,214.477 263.995 C 214.051 264.465,199.310 264.509,198.842 264.041 C 198.477 263.677,198.482 263.266,198.857 262.852 C 199.294 262.369,213.914 262.340,214.445 262.821 " stroke="none" fill="#2b64bc" fill-rule="evenodd"></path><path id="path2" d="M0.000 169.910 L 0.000 339.820 200.000 339.820 L 400.000 339.820 400.000 169.910 L 400.000 0.000 200.000 0.000 L 0.000 0.000 0.000 169.910 M248.873 48.038 L 299.997 62.793 299.999 99.124 C 300.000 140.371,299.988 140.812,298.546 152.410 C 295.436 177.423,287.706 202.078,276.593 222.432 C 274.647 225.996,274.803 225.834,273.062 226.115 C 272.319 226.234,271.712 226.356,271.712 226.385 C 271.712 226.413,271.960 227.036,272.264 227.768 C 274.492 233.143,274.005 239.865,271.036 244.713 C 270.651 245.342,269.632 247.002,268.772 248.403 L 267.207 250.951 267.208 265.791 C 267.208 273.953,267.261 282.744,267.326 285.328 L 267.444 290.025 269.713 290.421 C 271.857 290.795,277.677 291.821,283.694 292.886 C 288.777 293.785,288.683 293.782,290.127 293.085 L 290.975 292.676 292.013 293.725 L 293.052 294.775 250.805 294.746 C 227.570 294.731,209.653 294.660,210.991 294.588 C 214.489 294.402,215.949 293.867,217.233 292.299 C 218.751 290.447,218.730 290.615,218.734 280.492 L 218.739 271.525 217.880 271.961 C 217.407 272.200,216.678 272.488,216.258 272.601 L 215.495 272.807 215.495 275.365 L 215.495 277.923 213.016 275.448 L 210.536 272.973 204.772 272.969 C 199.663 272.965,198.328 272.884,197.072 272.504 C 196.775 272.414,196.757 272.864,196.757 280.231 L 196.757 288.055 198.243 288.170 C 199.061 288.234,200.520 288.287,201.486 288.287 L 203.243 288.288 203.243 291.437 L 203.243 294.585 205.901 294.640 C 207.363 294.670,201.788 294.733,193.514 294.780 C 185.239 294.826,204.333 294.905,235.946 294.955 C 279.764 295.024,265.761 295.053,177.027 295.078 C 111.995 295.096,60.790 295.041,60.991 294.955 C 61.330 294.809,61.327 294.799,60.932 294.787 C 59.338 294.739,57.006 291.689,56.687 289.234 L 56.564 288.288 72.877 288.288 L 89.189 288.288 89.192 288.694 C 89.198 289.429,89.958 290.491,90.794 290.932 C 91.908 291.520,105.683 291.588,106.937 291.012 C 107.924 290.559,108.829 289.347,108.829 288.476 C 108.829 288.354,106.104 288.276,100.766 288.243 C 96.331 288.216,112.548 288.175,136.804 288.151 L 180.905 288.108 180.858 257.973 L 180.811 227.838 180.287 226.704 C 179.630 225.281,178.235 223.958,176.839 223.436 C 175.844 223.064,175.777 223.063,138.146 223.020 C 117.414 222.996,104.484 222.955,109.414 222.928 C 114.345 222.901,118.378 222.833,118.378 222.777 C 118.378 222.721,117.613 221.201,116.679 219.400 C 106.303 199.415,98.912 174.798,96.139 150.991 C 95.009 141.290,95.068 143.857,95.003 101.532 L 94.945 62.793 146.166 47.991 C 174.338 39.850,197.468 33.210,197.568 33.236 C 197.667 33.262,220.754 39.923,248.873 48.038 M195.045 96.868 C 176.810 98.715,167.340 118.254,177.373 133.325 C 187.291 148.223,210.030 146.557,217.844 130.360 C 225.562 114.359,212.455 95.104,195.045 96.868 M194.054 158.662 C 193.707 158.701,192.410 158.823,191.171 158.932 C 183.108 159.642,172.927 162.329,165.483 165.712 C 156.915 169.607,151.375 174.872,150.176 180.262 L 149.875 181.618 150.359 182.205 C 169.976 206.019,207.742 210.219,233.162 191.414 C 236.678 188.812,243.609 182.289,243.601 181.588 C 243.508 173.360,229.675 164.210,211.532 160.378 C 205.385 159.080,197.321 158.288,194.054 158.662 M196.306 212.962 L 181.532 213.063 180.482 213.487 C 177.723 214.599,176.577 216.638,176.577 220.432 L 176.577 222.832 177.554 222.933 C 179.090 223.092,180.045 223.622,181.510 225.130 L 182.836 226.495 184.527 226.296 C 187.481 225.948,203.988 226.162,205.225 226.564 C 212.994 229.093,215.327 238.282,209.627 243.901 C 207.315 246.180,205.211 246.831,200.135 246.841 L 196.757 246.847 196.757 250.560 C 196.757 253.667,196.798 254.257,197.009 254.176 C 199.799 253.106,216.809 253.606,218.099 254.797 C 218.193 254.884,218.347 254.955,218.441 254.955 C 218.829 254.955,218.390 218.414,217.988 217.207 C 217.146 214.686,215.028 213.081,212.342 212.931 C 211.649 212.892,204.432 212.906,196.306 212.962 M205.977 216.514 C 206.425 216.920,206.392 217.578,205.906 217.918 C 205.560 218.160,204.528 218.198,198.283 218.198 C 190.429 218.198,190.405 218.195,190.405 217.207 C 190.405 216.218,190.424 216.216,198.354 216.216 C 204.888 216.216,205.682 216.247,205.977 216.514 M231.351 224.404 C 226.248 225.317,221.980 226.098,221.868 226.140 C 221.755 226.182,224.573 229.201,228.129 232.849 L 234.595 239.481 234.595 262.950 L 234.595 286.418 237.793 286.916 C 239.552 287.190,241.133 287.454,241.306 287.503 C 241.605 287.587,241.622 286.580,241.622 268.149 L 241.622 248.705 240.366 246.701 C 235.297 238.610,235.216 230.857,240.127 224.010 C 240.643 223.291,240.968 222.712,240.848 222.724 C 240.728 222.736,236.455 223.492,231.351 224.404 M252.853 226.202 C 246.028 227.857,243.638 236.618,248.645 241.625 C 253.684 246.663,262.416 244.200,264.047 237.281 C 265.627 230.577,259.563 224.575,252.853 226.202 M258.102 228.259 C 263.973 231.006,264.017 239.288,258.175 241.980 C 251.910 244.868,245.464 238.297,248.359 231.973 C 250.053 228.274,254.507 226.577,258.102 228.259 M185.934 233.110 C 185.513 233.405,185.484 233.927,185.869 234.311 C 186.214 234.657,202.980 234.748,203.615 234.408 C 204.012 234.196,204.105 233.188,203.739 233.069 C 203.037 232.841,186.263 232.879,185.934 233.110 M185.802 238.955 C 185.683 239.074,185.586 239.341,185.586 239.550 C 185.586 240.363,185.556 240.360,194.775 240.360 C 203.994 240.360,203.964 240.363,203.964 239.550 C 203.964 239.341,203.867 239.074,203.748 238.955 C 203.436 238.643,186.113 238.643,185.802 238.955 M142.008 240.417 C 153.124 243.552,157.340 257.370,149.856 266.140 C 141.959 275.395,126.874 272.721,122.717 261.329 C 118.273 249.154,129.569 236.910,142.008 240.417 M133.415 246.568 L 132.973 247.011 132.973 255.816 L 132.973 264.622 133.378 265.000 C 134.483 266.031,134.243 266.151,140.991 261.203 C 147.495 256.434,147.256 256.645,147.256 255.677 C 147.256 254.698,147.547 254.949,140.907 250.190 C 134.654 245.708,134.399 245.585,133.415 246.568 M145.570 255.676 C 145.574 255.751,138.941 260.676,135.547 263.118 L 134.595 263.804 134.595 255.778 L 134.595 247.752 140.080 251.669 C 143.097 253.823,145.568 255.626,145.570 255.676 M198.955 262.919 C 198.624 263.250,198.698 263.929,199.087 264.138 C 199.545 264.383,213.490 264.393,214.132 264.149 C 214.591 263.974,214.711 263.577,214.485 262.988 C 214.342 262.614,199.326 262.548,198.955 262.919 " stroke="none" fill="#fafafa" fill-rule="evenodd"></path><path id="path3" d="M253.366 216.608 C 240.594 217.651,232.812 231.799,238.618 243.423 C 239.472 245.133,254.521 269.712,255.017 270.208 C 255.174 270.364,256.880 267.701,261.982 259.332 C 265.698 253.236,269.218 247.507,269.803 246.602 C 274.562 239.236,274.817 231.304,270.504 224.808 C 266.691 219.066,260.361 216.036,253.366 216.608 M256.577 225.950 C 264.060 227.111,267.005 236.532,261.529 241.790 C 257.660 245.506,251.955 245.288,248.246 241.282 C 242.346 234.909,247.941 224.610,256.577 225.950 M253.153 227.908 C 244.690 230.642,246.803 242.937,255.658 242.485 C 263.144 242.102,265.050 231.786,258.253 228.437 C 256.980 227.810,254.314 227.533,253.153 227.908 M134.308 240.257 C 118.754 243.791,117.482 265.523,132.520 270.803 C 145.221 275.262,157.228 262.662,152.445 249.894 C 149.871 243.022,141.564 238.608,134.308 240.257 M140.938 250.108 C 149.448 256.194,149.447 255.073,140.946 261.332 C 134.300 266.226,134.425 266.164,133.319 265.059 L 132.793 264.532 132.799 255.915 C 132.806 246.692,132.805 246.701,133.714 246.197 C 134.672 245.666,134.906 245.793,140.938 250.108 M134.595 255.757 C 134.595 260.073,134.632 263.604,134.677 263.604 C 134.817 263.604,145.313 255.848,145.355 255.713 C 145.387 255.610,135.730 248.577,134.840 248.054 C 134.634 247.933,134.595 249.184,134.595 255.757 " stroke="none" fill="#fa2822" fill-rule="evenodd"></path><path id="path4" d="M183.514 226.431 C 182.525 226.561,182.509 226.583,182.798 227.402 C 183.021 228.034,183.063 230.043,183.063 240.065 L 183.063 251.977 185.631 249.426 L 188.198 246.875 196.126 246.795 C 206.076 246.695,206.797 246.530,209.660 243.699 C 215.314 238.108,212.677 228.601,204.913 226.589 C 203.887 226.323,185.380 226.187,183.514 226.431 M203.784 233.153 C 204.218 233.587,204.241 233.932,203.861 234.311 C 203.489 234.683,186.171 234.747,185.802 234.378 C 185.478 234.054,185.539 233.198,185.901 232.987 C 186.590 232.586,203.372 232.741,203.784 233.153 M203.784 238.919 C 204.200 239.335,204.236 239.631,203.919 240.047 C 203.566 240.512,186.734 240.744,186.046 240.294 C 185.518 239.948,185.436 239.275,185.869 238.842 C 186.363 238.347,203.285 238.420,203.784 238.919 " stroke="none" fill="#f9b305" fill-rule="evenodd"></path><path id="path5" d="M180.083 103.649 L 179.189 104.595 180.135 103.700 C 181.014 102.870,181.164 102.703,181.029 102.703 C 181.001 102.703,180.575 103.128,180.083 103.649 M196.261 143.733 C 196.534 143.774,196.980 143.774,197.252 143.733 C 197.525 143.691,197.302 143.658,196.757 143.658 C 196.212 143.658,195.989 143.691,196.261 143.733 M238.919 172.883 C 239.255 173.230,239.571 173.514,239.620 173.514 C 239.670 173.514,239.435 173.230,239.099 172.883 C 238.763 172.536,238.447 172.252,238.398 172.252 C 238.348 172.252,238.583 172.536,238.919 172.883 M154.133 173.198 L 153.604 173.784 154.189 173.255 C 154.511 172.964,154.775 172.700,154.775 172.669 C 154.775 172.530,154.626 172.652,154.133 173.198 M191.847 212.927 C 192.863 212.959,194.525 212.959,195.541 212.927 C 196.556 212.895,195.725 212.869,193.694 212.869 C 191.662 212.869,190.831 212.895,191.847 212.927 M218.804 214.252 C 219.096 214.509,219.573 214.996,219.864 215.333 C 220.337 215.880,220.356 215.887,220.035 215.405 C 219.676 214.866,219.077 214.280,218.552 213.955 C 218.399 213.861,218.513 213.994,218.804 214.252 M182.176 226.175 C 182.299 226.445,182.468 226.667,182.551 226.667 C 182.817 226.667,182.715 226.373,182.327 226.022 C 181.953 225.683,181.952 225.684,182.176 226.175 M221.331 241.741 C 221.452 256.661,221.442 257.522,221.150 257.282 C 220.979 257.142,221.146 257.454,221.520 257.976 C 223.844 261.219,223.645 266.259,221.074 269.283 C 220.629 269.806,220.594 269.884,220.944 269.571 L 221.425 269.142 221.480 272.274 C 221.674 283.340,221.631 288.923,221.344 289.883 C 220.980 291.104,220.676 290.950,224.818 291.641 C 226.776 291.968,228.642 292.283,228.964 292.342 L 229.550 292.449 229.550 289.146 L 229.550 285.844 226.892 285.399 L 224.234 284.955 224.189 258.616 C 224.145 233.643,224.159 232.272,224.459 232.190 C 224.633 232.143,225.099 232.052,225.495 231.988 C 227.040 231.741,227.101 231.881,224.147 228.921 C 222.350 227.122,221.485 226.136,221.646 226.072 C 221.807 226.008,221.773 225.969,221.548 225.960 C 221.211 225.946,221.206 226.266,221.331 241.741 M185.090 249.955 L 183.063 251.988 183.063 270.039 L 183.063 288.090 182.027 288.155 L 180.991 288.220 182.027 288.254 C 183.231 288.294,183.258 288.362,182.785 290.187 C 182.459 291.445,181.849 292.435,180.832 293.355 L 180.102 294.016 180.817 294.343 C 181.562 294.683,190.039 294.960,191.475 294.690 L 192.072 294.578 192.072 291.433 L 192.072 288.288 190.315 288.286 C 189.349 288.285,188.255 288.234,187.884 288.173 L 187.209 288.061 187.163 267.992 L 187.117 247.922 185.090 249.955 M219.718 270.676 L 219.189 271.261 219.775 270.732 C 220.321 270.239,220.443 270.090,220.304 270.090 C 220.273 270.090,220.009 270.354,219.718 270.676 M215.348 275.180 C 215.381 277.806,215.453 277.499,215.538 274.369 C 215.564 273.403,215.525 272.612,215.450 272.612 C 215.376 272.612,215.330 273.768,215.348 275.180 M204.920 272.927 C 205.990 272.959,207.693 272.959,208.703 272.927 C 209.714 272.895,208.838 272.869,206.757 272.869 C 204.676 272.869,203.849 272.895,204.920 272.927 " stroke="none" fill="#acb5be" fill-rule="evenodd"></path><path id="path6" d="M299.865 136.126 C 299.867 136.523,299.904 136.663,299.947 136.439 C 299.990 136.215,299.989 135.891,299.944 135.719 C 299.899 135.546,299.863 135.730,299.865 136.126 M213.153 136.847 C 212.715 137.293,212.398 137.658,212.447 137.658 C 212.497 137.658,212.896 137.293,213.333 136.847 C 213.771 136.401,214.089 136.036,214.039 136.036 C 213.989 136.036,213.591 136.401,213.153 136.847 M152.793 184.955 C 153.431 185.599,153.994 186.126,154.044 186.126 C 154.093 186.126,153.611 185.599,152.973 184.955 C 152.335 184.311,151.772 183.784,151.722 183.784 C 151.673 183.784,152.154 184.311,152.793 184.955 M240.086 185.450 L 238.468 187.117 240.135 185.499 C 241.052 184.609,241.802 183.859,241.802 183.833 C 241.802 183.702,241.589 183.902,240.086 185.450 M195.450 203.377 C 196.169 203.411,197.345 203.411,198.063 203.377 C 198.782 203.343,198.194 203.315,196.757 203.315 C 195.320 203.315,194.732 203.343,195.450 203.377 M200.676 212.928 C 202.583 212.957,205.705 212.957,207.613 212.928 C 209.520 212.899,207.959 212.875,204.144 212.875 C 200.329 212.875,198.768 212.899,200.676 212.928 M212.570 212.920 C 212.794 212.963,213.118 212.962,213.290 212.917 C 213.463 212.871,213.279 212.836,212.883 212.838 C 212.486 212.840,212.346 212.877,212.570 212.920 M213.820 212.907 C 213.757 212.970,214.169 213.246,214.735 213.520 C 216.394 214.321,217.407 215.470,217.989 217.207 C 218.340 218.257,218.352 218.824,218.410 236.711 C 218.456 251.148,218.516 255.134,218.690 255.135 C 218.812 255.135,219.481 255.672,220.177 256.329 L 221.442 257.522 221.349 239.256 C 221.227 215.493,221.337 216.873,219.391 214.880 C 217.952 213.405,214.532 212.195,213.820 212.907 M190.733 216.455 C 190.549 216.590,190.405 216.920,190.405 217.207 C 190.405 218.195,190.429 218.198,198.283 218.198 C 206.107 218.198,206.306 218.174,206.306 217.225 C 206.306 216.218,206.290 216.216,198.354 216.216 C 192.575 216.216,190.992 216.266,190.733 216.455 M176.436 220.676 C 176.407 222.439,176.337 223.066,176.171 223.072 C 176.047 223.078,176.371 223.245,176.891 223.445 C 178.235 223.962,179.646 225.316,180.287 226.704 L 180.811 227.838 180.858 257.973 L 180.905 288.108 136.804 288.151 C 112.548 288.175,96.331 288.216,100.766 288.243 C 107.037 288.281,108.828 288.342,108.825 288.515 C 108.809 289.430,107.857 290.633,106.801 291.074 C 105.547 291.598,91.826 291.477,90.794 290.932 C 89.958 290.491,89.198 289.429,89.192 288.694 L 89.189 288.288 72.877 288.288 L 56.564 288.288 56.687 289.234 C 57.006 291.689,59.338 294.739,60.932 294.787 C 61.327 294.799,61.330 294.809,60.991 294.955 C 60.790 295.041,111.995 295.096,177.027 295.078 C 265.761 295.053,279.764 295.024,235.946 294.955 C 204.333 294.905,179.320 294.836,180.360 294.801 C 181.694 294.756,182.093 294.697,181.712 294.599 C 181.414 294.522,180.928 294.363,180.631 294.244 L 180.090 294.028 180.826 293.361 C 181.849 292.435,182.459 291.447,182.785 290.187 C 183.253 288.380,183.229 288.317,182.027 288.241 L 180.991 288.176 182.027 288.142 L 183.063 288.108 183.063 258.411 C 183.063 225.965,183.127 228.030,182.055 225.914 C 181.245 224.313,178.944 222.883,177.180 222.883 L 176.587 222.883 176.531 220.586 L 176.475 218.288 176.436 220.676 M109.459 222.885 C 104.505 222.936,117.356 222.978,138.018 222.977 C 158.680 222.976,170.964 222.955,165.315 222.930 C 140.570 222.818,117.796 222.800,109.459 222.885 M224.125 228.899 C 227.103 231.882,227.040 231.741,225.495 231.988 C 225.099 232.052,224.633 232.143,224.459 232.190 C 224.159 232.272,224.145 233.643,224.189 258.616 L 224.234 284.955 226.892 285.399 L 229.550 285.844 229.550 289.146 L 229.550 292.449 228.964 292.342 C 228.642 292.283,226.776 291.968,224.818 291.641 C 220.676 290.950,220.980 291.104,221.344 289.883 C 221.631 288.923,221.674 283.325,221.480 272.288 L 221.425 269.171 220.090 270.397 L 218.756 271.622 218.743 280.541 C 218.729 290.606,218.749 290.449,217.233 292.299 C 215.949 293.867,214.489 294.402,210.991 294.588 C 209.653 294.660,227.570 294.731,250.805 294.746 L 293.052 294.775 292.013 293.725 L 290.975 292.676 290.127 293.085 C 288.713 293.768,288.691 293.768,284.324 292.997 C 275.497 291.439,271.675 290.765,269.730 290.426 C 268.491 290.210,267.440 290.001,267.393 289.962 C 267.347 289.923,267.266 281.156,267.213 270.479 L 267.117 251.067 261.195 260.759 C 257.937 266.089,255.216 270.450,255.147 270.450 C 255.078 270.450,252.027 265.582,248.367 259.633 L 241.712 248.815 241.666 268.203 C 241.622 286.550,241.603 287.587,241.305 287.503 C 241.133 287.454,239.552 287.190,237.793 286.916 L 234.595 286.418 234.595 262.950 L 234.595 239.481 228.090 232.804 C 224.512 229.131,221.533 226.126,221.470 226.126 C 221.407 226.126,222.602 227.374,224.125 228.899 M187.691 247.352 L 187.207 247.858 187.207 267.959 L 187.207 288.061 187.883 288.173 C 188.255 288.234,189.349 288.285,190.315 288.286 L 192.072 288.288 192.072 291.428 C 192.072 294.267,192.042 294.576,191.757 294.651 C 191.583 294.696,195.293 294.724,200.000 294.714 C 204.707 294.704,207.363 294.670,205.901 294.640 L 203.243 294.585 203.243 291.437 L 203.243 288.288 201.486 288.287 C 200.520 288.287,199.061 288.234,198.243 288.170 L 196.757 288.055 196.757 280.191 L 196.757 272.327 195.784 271.850 C 189.031 268.538,188.936 258.367,195.626 254.908 L 196.755 254.324 196.756 250.586 L 196.757 246.847 192.466 246.847 L 188.176 246.847 187.691 247.352 M202.928 262.657 C 204.984 262.686,208.349 262.686,210.405 262.657 C 212.462 262.629,210.779 262.605,206.667 262.605 C 202.554 262.605,200.872 262.629,202.928 262.657 " stroke="none" fill="#c5c8cc" fill-rule="evenodd"></path><path id="path7" d="M254.459 225.895 C 254.732 225.936,255.178 225.936,255.450 225.895 C 255.723 225.854,255.500 225.820,254.955 225.820 C 254.410 225.820,254.187 225.854,254.459 225.895 M254.640 227.697 C 254.912 227.738,255.358 227.738,255.631 227.697 C 255.903 227.655,255.680 227.622,255.135 227.622 C 254.590 227.622,254.367 227.655,254.640 227.697 M273.578 235.135 C 273.578 236.077,273.609 236.462,273.646 235.991 C 273.683 235.520,273.683 234.750,273.646 234.279 C 273.609 233.809,273.578 234.194,273.578 235.135 M245.822 235.045 C 245.823 235.640,245.856 235.861,245.896 235.537 C 245.936 235.213,245.936 234.727,245.895 234.456 C 245.853 234.185,245.821 234.450,245.822 235.045 M136.892 239.952 C 137.313 239.990,138.002 239.990,138.423 239.952 C 138.845 239.914,138.500 239.883,137.658 239.883 C 136.815 239.883,136.471 239.914,136.892 239.952 M188.885 240.495 C 190.353 240.525,192.704 240.525,194.110 240.495 C 195.516 240.465,194.315 240.440,191.441 240.440 C 188.568 240.440,187.417 240.465,188.885 240.495 M254.640 242.652 C 254.912 242.693,255.358 242.693,255.631 242.652 C 255.903 242.610,255.680 242.577,255.135 242.577 C 254.590 242.577,254.367 242.610,254.640 242.652 M126.388 244.550 L 125.676 245.315 126.441 244.603 C 127.154 243.941,127.290 243.784,127.154 243.784 C 127.124 243.784,126.780 244.128,126.388 244.550 M254.642 244.454 C 254.916 244.495,255.321 244.494,255.543 244.451 C 255.765 244.408,255.541 244.375,255.045 244.376 C 254.550 244.377,254.368 244.412,254.642 244.454 M153.571 255.856 C 153.571 256.500,153.604 256.764,153.644 256.441 C 153.684 256.119,153.684 255.592,153.644 255.270 C 153.604 254.948,153.571 255.212,153.571 255.856 M148.908 267.072 L 148.378 267.658 148.964 267.128 C 149.286 266.837,149.550 266.574,149.550 266.543 C 149.550 266.404,149.401 266.526,148.908 267.072 " stroke="none" fill="#f89a96" fill-rule="evenodd"></path><path id="path8" d="M189.492 226.261 C 191.888 226.289,195.861 226.289,198.321 226.261 C 200.780 226.233,198.820 226.210,193.964 226.210 C 189.108 226.210,187.096 226.233,189.492 226.261 M192.646 232.928 C 194.596 232.957,197.840 232.957,199.853 232.928 C 201.866 232.899,200.270 232.875,196.306 232.875 C 192.342 232.875,190.695 232.899,192.646 232.928 M247.617 235.135 C 247.617 235.581,247.652 235.764,247.695 235.541 C 247.738 235.318,247.738 234.953,247.695 234.730 C 247.652 234.507,247.617 234.689,247.617 235.135 M190.405 238.694 C 192.809 238.722,196.741 238.722,199.144 238.694 C 201.547 238.665,199.581 238.642,194.775 238.642 C 189.968 238.642,188.002 238.665,190.405 238.694 M209.631 243.829 L 208.919 244.595 209.685 243.882 C 210.106 243.491,210.450 243.146,210.450 243.117 C 210.450 242.980,210.294 243.117,209.631 243.829 M202.387 246.796 C 202.660 246.837,203.106 246.837,203.378 246.796 C 203.651 246.754,203.428 246.721,202.883 246.721 C 202.338 246.721,202.115 246.754,202.387 246.796 M132.876 255.856 C 132.876 260.464,132.899 262.349,132.928 260.045 C 132.956 257.741,132.956 253.971,132.928 251.667 C 132.899 249.363,132.876 251.248,132.876 255.856 " stroke="none" fill="#f6d9a5" fill-rule="evenodd"></path></g></svg>