<svg id="svg" version="1.1" xmlns="http://www.w3.org/2000/svg" xmlns:xlink="http://www.w3.org/1999/xlink" width="400" height="400.6666666666667" viewBox="0, 0, 400,400.6666666666667"><g id="svgg"><path id="path0" d="M197.579 64.707 C 171.248 66.282,149.714 73.262,129.132 86.893 C 73.903 123.469,53.962 195.485,82.301 256.020 L 83.130 257.791 85.513 255.972 C 88.024 254.056,100.364 244.607,108.681 238.230 C 111.390 236.154,114.996 233.390,116.694 232.090 C 127.174 224.066,127.963 223.436,127.942 223.114 C 127.930 222.934,127.577 221.613,127.157 220.178 C 119.227 193.046,127.111 162.675,147.326 142.487 C 175.319 114.531,220.222 111.529,250.903 135.564 L 252.640 136.925 272.063 117.503 C 282.746 106.821,291.467 98.028,291.444 97.965 C 291.355 97.718,286.578 93.847,283.556 91.574 C 264.280 77.072,241.861 68.084,218.364 65.439 C 213.087 64.845,201.875 64.450,197.579 64.707 " stroke="none" fill="#ff0000" fill-rule="evenodd"></path><path id="path1" d="M203.339 200.000 L 203.339 225.876 239.245 225.876 L 275.152 225.876 275.043 226.419 C 271.902 242.134,262.796 255.874,249.568 264.860 C 247.697 266.130,247.745 265.878,249.165 266.977 C 254.322 270.968,259.149 274.705,273.667 285.947 C 282.827 293.040,290.437 298.888,290.576 298.941 C 291.277 299.210,300.038 289.666,304.622 283.639 C 326.791 254.494,336.441 210.918,328.533 175.668 L 328.186 174.124 265.763 174.124 L 203.339 174.124 203.339 200.000 " stroke="none" fill="#4484f3" fill-rule="evenodd"></path><path id="path2" d="M127.295 223.937 C 126.928 224.239,124.336 226.241,121.536 228.384 C 118.735 230.528,114.716 233.607,112.604 235.226 C 108.183 238.617,94.927 248.768,88.564 253.635 C 86.177 255.461,83.977 257.156,83.676 257.401 L 83.128 257.846 84.151 259.850 C 109.688 309.864,164.126 338.428,220.451 331.368 C 246.167 328.145,270.097 317.428,288.772 300.772 C 289.805 299.851,290.594 299.048,290.525 298.988 C 290.457 298.929,282.888 293.068,273.706 285.965 C 264.524 278.861,255.509 271.887,253.673 270.465 C 251.836 269.044,249.819 267.483,249.190 266.996 C 247.801 265.921,248.116 265.909,246.094 267.110 C 228.617 277.487,202.505 280.570,181.720 274.709 C 157.220 267.802,137.518 249.429,128.866 225.420 C 128.461 224.296,128.093 223.379,128.047 223.382 C 128.001 223.385,127.663 223.635,127.295 223.937 " stroke="none" fill="#34ac54" fill-rule="evenodd"></path><path id="path3" d="M189.316 0.178 C 187.709 0.255,186.196 0.321,185.954 0.325 C 185.478 0.332,180.583 0.769,179.215 0.927 C 178.756 0.980,178.118 1.053,177.796 1.089 C 177.475 1.125,176.874 1.199,176.461 1.254 C 176.048 1.308,175.597 1.354,175.459 1.355 C 175.226 1.357,173.407 1.607,172.454 1.767 C 171.595 1.912,170.856 1.999,170.476 2.002 C 170.260 2.003,170.002 2.054,169.903 2.116 C 169.805 2.177,169.493 2.246,169.211 2.269 C 168.929 2.292,168.397 2.359,168.030 2.418 C 167.663 2.476,167.231 2.524,167.070 2.524 C 166.909 2.525,166.778 2.586,166.778 2.660 C 166.778 2.734,166.556 2.768,166.284 2.737 C 166.013 2.705,165.745 2.754,165.689 2.845 C 165.632 2.936,165.524 2.972,165.448 2.925 C 165.371 2.878,164.757 2.955,164.082 3.097 C 162.865 3.353,161.465 3.613,160.535 3.756 C 160.269 3.797,159.818 3.903,159.533 3.993 C 159.052 4.144,158.580 4.238,157.370 4.423 C 157.108 4.463,156.732 4.549,156.535 4.615 C 156.338 4.680,156.064 4.751,155.927 4.772 C 155.789 4.794,155.507 4.856,155.301 4.910 C 154.529 5.112,154.162 5.193,153.725 5.258 C 153.478 5.294,152.952 5.416,152.556 5.528 C 152.160 5.640,151.686 5.759,151.503 5.793 C 151.319 5.826,150.868 5.940,150.501 6.045 C 150.134 6.151,149.777 6.252,149.708 6.270 C 149.639 6.288,149.564 6.317,149.541 6.336 C 149.477 6.387,149.060 6.487,148.414 6.604 C 148.093 6.663,147.698 6.781,147.538 6.867 C 147.377 6.953,147.245 6.982,147.245 6.932 C 147.245 6.881,146.981 6.951,146.658 7.086 C 146.335 7.221,146.053 7.327,146.032 7.323 C 145.848 7.284,144.741 7.575,144.741 7.663 C 144.741 7.725,144.610 7.790,144.449 7.808 C 143.927 7.867,143.660 7.937,143.448 8.069 C 143.235 8.202,142.759 8.327,142.138 8.414 C 141.945 8.441,141.701 8.516,141.596 8.581 C 141.395 8.705,140.968 8.823,140.192 8.967 C 139.939 9.014,139.733 9.124,139.733 9.211 C 139.733 9.298,139.657 9.322,139.564 9.264 C 139.471 9.207,139.152 9.284,138.854 9.435 C 138.557 9.587,138.126 9.743,137.896 9.783 C 137.667 9.824,137.329 9.926,137.145 10.011 C 136.438 10.337,134.391 11.006,134.391 10.911 C 134.391 10.856,134.278 10.904,134.140 11.018 C 134.003 11.133,133.890 11.170,133.890 11.102 C 133.890 11.033,133.796 11.048,133.681 11.135 C 133.566 11.221,133.134 11.396,132.721 11.522 C 132.308 11.649,131.801 11.859,131.594 11.989 C 131.388 12.119,131.219 12.170,131.219 12.102 C 131.219 12.035,131.119 12.062,130.997 12.163 C 130.875 12.264,130.631 12.375,130.454 12.409 C 130.278 12.442,129.922 12.556,129.664 12.662 C 129.405 12.768,129.122 12.855,129.035 12.855 C 128.948 12.855,128.746 12.924,128.587 13.008 C 128.155 13.236,127.091 13.689,126.989 13.689 C 126.940 13.689,126.688 13.770,126.430 13.868 C 126.171 13.966,125.922 14.047,125.876 14.047 C 125.831 14.048,125.530 14.210,125.209 14.409 C 124.887 14.607,124.606 14.754,124.584 14.735 C 124.517 14.676,123.980 14.872,123.497 15.131 C 123.245 15.267,123.038 15.332,123.038 15.275 C 123.038 15.219,122.832 15.283,122.579 15.418 C 121.860 15.802,120.919 16.194,120.718 16.194 C 120.617 16.194,120.534 16.269,120.534 16.361 C 120.534 16.452,120.478 16.512,120.409 16.492 C 120.340 16.473,120.125 16.545,119.930 16.653 C 119.736 16.761,119.529 16.802,119.471 16.744 C 119.413 16.686,119.366 16.711,119.366 16.800 C 119.366 16.941,118.257 17.439,118.030 17.400 C 117.984 17.392,117.533 17.622,117.028 17.911 C 116.523 18.200,116.091 18.420,116.068 18.400 C 115.922 18.273,115.694 18.398,115.790 18.553 C 115.860 18.666,115.816 18.711,115.681 18.666 C 115.557 18.625,114.897 18.878,114.215 19.229 C 113.534 19.579,112.879 19.866,112.760 19.866 C 112.642 19.866,112.427 19.984,112.282 20.129 C 112.138 20.273,112.020 20.347,112.020 20.293 C 112.020 20.159,109.958 21.206,109.831 21.405 C 109.775 21.493,109.681 21.558,109.622 21.550 C 109.321 21.510,109.185 21.557,108.963 21.778 C 108.830 21.912,108.054 22.336,107.240 22.721 C 106.426 23.107,105.722 23.469,105.676 23.526 C 105.630 23.584,105.217 23.822,104.758 24.057 C 103.783 24.554,102.669 25.169,101.206 26.019 C 100.630 26.354,99.954 26.742,99.703 26.882 C 98.247 27.698,95.067 29.650,95.019 29.757 C 94.989 29.826,94.857 29.883,94.727 29.883 C 94.597 29.883,94.491 29.958,94.491 30.050 C 94.491 30.142,94.400 30.217,94.289 30.217 C 94.179 30.217,93.660 30.518,93.136 30.885 C 92.612 31.252,92.137 31.553,92.079 31.553 C 91.968 31.553,90.961 32.232,90.818 32.404 C 90.772 32.459,90.659 32.534,90.568 32.571 C 90.272 32.689,84.569 36.529,84.224 36.842 C 84.040 37.009,83.477 37.427,82.972 37.772 C 82.467 38.117,81.753 38.624,81.386 38.899 C 78.749 40.873,77.821 41.578,76.990 42.238 C 76.469 42.652,75.768 43.196,75.432 43.446 C 75.095 43.697,74.720 43.997,74.597 44.113 C 74.474 44.229,74.026 44.603,73.601 44.944 C 72.108 46.144,68.346 49.320,67.929 49.734 C 67.781 49.880,67.108 50.488,66.434 51.085 C 65.759 51.682,64.715 52.619,64.114 53.168 C 62.540 54.607,54.364 62.796,53.027 64.274 C 52.404 64.962,51.581 65.868,51.198 66.287 C 50.814 66.706,50.088 67.531,49.583 68.121 C 49.078 68.711,48.361 69.533,47.989 69.948 C 47.618 70.362,46.980 71.114,46.572 71.619 C 46.165 72.124,45.790 72.575,45.740 72.621 C 45.661 72.692,45.094 73.393,44.073 74.680 C 43.936 74.853,43.745 75.081,43.650 75.186 C 43.555 75.290,43.254 75.676,42.982 76.043 C 42.710 76.411,42.412 76.793,42.321 76.892 C 42.229 76.992,42.003 77.282,41.820 77.537 C 41.636 77.792,41.392 78.099,41.277 78.220 C 41.162 78.341,41.068 78.517,41.068 78.611 C 41.068 78.705,40.971 78.841,40.853 78.915 C 40.640 79.046,37.601 83.085,36.986 84.052 C 36.813 84.325,36.605 84.626,36.524 84.720 C 35.996 85.337,34.564 87.430,34.561 87.590 C 34.559 87.698,34.497 87.810,34.422 87.841 C 34.316 87.885,31.193 92.568,30.264 94.077 C 28.529 96.896,27.546 98.557,27.546 98.669 C 27.546 98.745,27.447 98.907,27.326 99.028 C 27.206 99.149,26.879 99.662,26.600 100.167 C 26.321 100.672,25.893 101.423,25.649 101.836 C 25.404 102.250,25.041 102.944,24.841 103.381 C 24.642 103.817,24.429 104.174,24.368 104.174 C 24.307 104.174,24.116 104.493,23.943 104.883 C 23.770 105.273,23.533 105.693,23.415 105.815 C 23.298 105.937,23.245 106.106,23.297 106.190 C 23.349 106.275,23.317 106.344,23.226 106.344 C 23.060 106.344,22.776 106.986,22.838 107.220 C 22.857 107.289,22.805 107.346,22.725 107.346 C 22.644 107.346,22.479 107.590,22.359 107.888 C 22.238 108.187,21.971 108.694,21.765 109.015 C 21.558 109.336,21.366 109.710,21.337 109.846 C 21.309 109.981,21.191 110.194,21.075 110.318 C 20.960 110.443,20.908 110.614,20.960 110.698 C 21.012 110.782,20.986 110.851,20.903 110.851 C 20.819 110.851,20.504 111.396,20.204 112.062 C 19.903 112.727,19.408 113.771,19.103 114.381 C 18.799 114.990,18.596 115.535,18.652 115.591 C 18.708 115.647,18.666 115.693,18.559 115.693 C 18.452 115.693,18.379 115.749,18.398 115.818 C 18.417 115.887,18.307 116.178,18.155 116.465 C 18.002 116.751,17.924 117.033,17.981 117.091 C 18.039 117.148,18.004 117.195,17.904 117.195 C 17.804 117.195,17.632 117.477,17.522 117.821 C 17.412 118.166,17.186 118.710,17.021 119.032 C 16.391 120.256,15.731 121.807,15.617 122.329 C 15.552 122.627,15.430 122.871,15.346 122.871 C 15.261 122.871,15.192 122.985,15.192 123.124 C 15.192 123.263,15.122 123.507,15.037 123.667 C 14.901 123.922,14.772 124.272,14.668 124.668 C 14.650 124.736,14.469 125.129,14.265 125.543 C 14.062 125.956,13.726 126.782,13.519 127.379 C 13.312 127.976,12.964 128.870,12.746 129.366 C 12.528 129.862,12.385 130.304,12.428 130.346 C 12.471 130.389,12.331 130.772,12.117 131.197 C 11.904 131.622,11.599 132.421,11.441 132.972 C 11.283 133.523,11.077 134.067,10.982 134.182 C 10.888 134.297,10.866 134.391,10.935 134.391 C 11.003 134.391,10.979 134.488,10.880 134.606 C 10.782 134.725,10.662 135.048,10.613 135.325 C 10.564 135.602,10.415 136.050,10.281 136.320 C 10.147 136.590,10.001 137.037,9.957 137.312 C 9.913 137.588,9.862 137.851,9.844 137.896 C 9.825 137.942,9.819 138.036,9.830 138.105 C 9.841 138.174,9.762 138.230,9.655 138.230 C 9.548 138.230,9.510 138.280,9.570 138.340 C 9.630 138.401,9.608 138.536,9.521 138.642 C 9.392 138.797,8.953 140.204,8.790 140.985 C 8.771 141.077,8.702 141.237,8.637 141.341 C 8.572 141.445,8.472 141.820,8.416 142.175 C 8.360 142.529,8.203 143.033,8.068 143.295 C 7.933 143.556,7.863 143.876,7.913 144.005 C 7.962 144.134,7.938 144.240,7.858 144.240 C 7.737 144.240,7.315 145.572,7.249 146.160 C 7.238 146.252,7.182 146.440,7.123 146.578 C 7.064 146.715,6.996 147.016,6.972 147.245 C 6.948 147.475,6.878 147.701,6.817 147.747 C 6.756 147.794,6.659 148.150,6.601 148.539 C 6.543 148.927,6.381 149.518,6.242 149.851 C 6.103 150.184,6.029 150.560,6.078 150.687 C 6.127 150.814,6.106 150.918,6.033 150.918 C 5.959 150.918,5.891 151.012,5.881 151.127 C 5.858 151.391,5.773 151.736,5.615 152.205 C 5.547 152.407,5.427 152.933,5.348 153.373 C 5.270 153.813,5.161 154.343,5.107 154.549 C 4.886 155.392,4.857 155.517,4.591 156.761 C 4.542 156.991,4.462 157.366,4.412 157.596 C 4.363 157.826,4.284 158.309,4.237 158.671 C 4.190 159.033,4.075 159.472,3.982 159.646 C 3.889 159.820,3.856 160.005,3.908 160.057 C 3.961 160.110,3.931 160.240,3.842 160.347 C 3.754 160.454,3.647 160.875,3.606 161.281 C 3.564 161.687,3.483 162.208,3.424 162.437 C 3.365 162.667,3.289 163.080,3.255 163.356 C 3.221 163.631,3.179 163.856,3.161 163.856 C 3.120 163.856,3.009 164.759,2.998 165.184 C 2.993 165.364,2.916 165.599,2.827 165.706 C 2.738 165.814,2.647 166.324,2.626 166.839 C 2.605 167.355,2.534 167.777,2.468 167.778 C 2.402 167.779,2.391 167.894,2.445 168.033 C 2.498 168.172,2.456 168.495,2.350 168.751 C 2.244 169.006,2.130 169.625,2.096 170.125 C 2.062 170.626,2.018 171.035,1.998 171.035 C 1.977 171.035,1.938 171.185,1.910 171.369 C 1.709 172.699,1.632 173.300,1.580 173.957 C 1.546 174.370,1.508 174.708,1.493 174.708 C 1.479 174.708,1.435 174.971,1.396 175.292 C 1.214 176.782,1.138 177.428,1.072 178.047 C 1.032 178.414,0.963 179.053,0.917 179.466 C 0.816 180.389,0.705 181.659,0.583 183.306 C 0.531 183.994,0.451 185.008,0.403 185.559 C 0.004 190.204,-0.045 210.194,0.332 214.441 C 0.430 215.543,0.552 216.895,0.604 217.446 C 0.655 217.997,0.722 218.785,0.753 219.199 C 0.837 220.343,1.064 222.629,1.234 224.040 C 1.442 225.771,1.468 225.960,1.493 225.960 C 1.524 225.960,1.665 227.486,1.677 227.956 C 1.681 228.135,1.755 228.366,1.840 228.469 C 1.926 228.572,1.961 228.832,1.920 229.048 C 1.878 229.264,1.908 229.522,1.986 229.620 C 2.065 229.719,2.111 229.987,2.089 230.217 C 2.067 230.447,2.089 230.704,2.137 230.789 C 2.223 230.938,2.256 231.140,2.400 232.413 C 2.589 234.090,2.724 234.827,2.875 235.015 C 2.967 235.128,2.999 235.335,2.945 235.474 C 2.892 235.613,2.916 235.726,2.998 235.726 C 3.080 235.726,3.119 235.950,3.085 236.222 C 3.050 236.495,3.095 236.764,3.183 236.818 C 3.272 236.873,3.304 236.983,3.255 237.062 C 3.206 237.142,3.249 237.569,3.350 238.011 C 3.452 238.453,3.566 239.003,3.605 239.232 C 3.644 239.462,3.728 239.837,3.791 240.067 C 3.854 240.296,3.916 240.559,3.930 240.651 C 3.943 240.743,4.005 241.006,4.067 241.235 C 4.129 241.465,4.210 241.878,4.247 242.154 C 4.285 242.429,4.357 242.842,4.408 243.072 C 4.460 243.301,4.542 243.677,4.591 243.907 C 4.857 245.151,4.886 245.276,5.107 246.119 C 5.161 246.325,5.270 246.854,5.348 247.295 C 5.427 247.735,5.547 248.261,5.615 248.463 C 5.773 248.931,5.858 249.276,5.881 249.541 C 5.891 249.656,5.959 249.750,6.033 249.750 C 6.106 249.750,6.129 249.847,6.083 249.967 C 6.037 250.087,6.107 250.444,6.239 250.760 C 6.371 251.077,6.525 251.636,6.582 252.003 C 6.678 252.629,6.913 253.517,7.133 254.090 C 7.186 254.228,7.244 254.416,7.262 254.508 C 7.280 254.599,7.312 254.712,7.334 254.758 C 7.355 254.804,7.409 255.065,7.454 255.338 C 7.498 255.611,7.607 255.923,7.696 256.030 C 7.785 256.137,7.887 256.456,7.923 256.738 C 7.958 257.020,8.079 257.535,8.191 257.882 C 8.385 258.484,8.425 258.629,8.507 259.015 C 8.527 259.107,8.621 259.276,8.716 259.391 C 8.811 259.505,8.833 259.599,8.765 259.599 C 8.696 259.599,8.718 259.693,8.813 259.808 C 8.908 259.923,9.039 260.317,9.105 260.684 C 9.171 261.052,9.300 261.446,9.391 261.561 C 9.482 261.676,9.501 261.770,9.432 261.770 C 9.364 261.770,9.382 261.864,9.472 261.978 C 9.615 262.160,9.833 262.851,9.867 263.230 C 9.873 263.299,9.950 263.442,10.037 263.547 C 10.125 263.653,10.235 263.916,10.283 264.132 C 10.428 264.784,10.491 265.025,10.517 265.025 C 10.531 265.025,10.576 265.207,10.617 265.429 C 10.658 265.652,10.774 265.933,10.875 266.055 C 10.976 266.177,11.011 266.277,10.952 266.277 C 10.893 266.277,10.987 266.559,11.162 266.903 C 11.336 267.247,11.535 267.792,11.605 268.114 C 11.674 268.435,11.871 268.960,12.042 269.280 C 12.214 269.600,12.354 269.995,12.354 270.158 C 12.354 270.457,12.397 270.567,12.910 271.591 C 13.063 271.897,13.189 272.287,13.189 272.458 C 13.189 272.629,13.264 272.815,13.356 272.871 C 13.447 272.928,13.523 273.073,13.523 273.194 C 13.523 273.315,13.676 273.760,13.863 274.183 C 14.050 274.606,14.208 275.010,14.213 275.081 C 14.219 275.151,14.307 275.359,14.410 275.543 C 14.512 275.726,14.604 275.914,14.614 275.960 C 14.623 276.006,14.714 276.231,14.815 276.461 C 15.032 276.957,15.156 277.347,15.132 277.462 C 15.122 277.508,15.245 277.732,15.404 277.959 C 15.563 278.186,15.693 278.505,15.693 278.668 C 15.693 278.831,15.768 278.965,15.860 278.965 C 15.952 278.965,16.027 279.097,16.027 279.258 C 16.027 279.420,16.223 279.921,16.463 280.371 C 16.703 280.822,16.913 281.284,16.930 281.399 C 16.946 281.513,17.082 281.858,17.231 282.164 C 17.380 282.471,17.705 283.172,17.954 283.723 C 18.829 285.664,19.451 286.896,19.616 287.017 C 19.708 287.085,19.725 287.141,19.653 287.143 C 19.582 287.144,19.653 287.389,19.811 287.688 C 19.969 287.986,20.114 288.317,20.132 288.424 C 20.151 288.530,20.519 289.282,20.950 290.093 C 21.381 290.905,22.072 292.245,22.487 293.072 C 22.901 293.898,23.289 294.612,23.350 294.658 C 23.411 294.704,23.668 295.154,23.922 295.659 C 24.175 296.164,24.596 296.953,24.857 297.412 C 25.118 297.871,25.539 298.623,25.793 299.082 C 26.408 300.192,27.262 301.634,28.243 303.219 C 28.686 303.934,29.048 304.548,29.048 304.585 C 29.048 304.621,29.349 305.103,29.716 305.656 C 30.083 306.209,30.384 306.702,30.384 306.751 C 30.384 306.800,30.891 307.601,31.511 308.531 C 32.131 309.462,32.713 310.346,32.805 310.496 C 33.652 311.881,35.943 315.235,36.530 315.948 C 36.608 316.042,36.812 316.342,36.985 316.615 C 37.307 317.126,41.576 322.889,41.742 323.038 C 41.793 323.084,42.206 323.610,42.660 324.207 C 43.606 325.452,43.591 325.433,44.769 326.878 C 45.255 327.475,45.701 328.001,45.760 328.047 C 45.818 328.093,46.315 328.694,46.863 329.382 C 47.411 330.071,48.332 331.160,48.911 331.803 C 49.489 332.446,50.192 333.235,50.473 333.556 C 55.261 339.035,64.930 348.515,70.109 352.809 C 70.894 353.460,71.573 354.033,71.619 354.083 C 71.777 354.255,72.890 355.175,73.438 355.587 C 73.740 355.814,74.158 356.152,74.367 356.338 C 74.871 356.788,75.240 357.083,76.043 357.682 C 76.411 357.956,77.092 358.481,77.558 358.848 C 78.023 359.215,78.662 359.715,78.977 359.957 C 79.727 360.536,83.006 362.951,83.478 363.272 C 83.680 363.410,84.040 363.673,84.278 363.856 C 84.775 364.239,84.800 364.256,89.343 367.299 C 91.210 368.549,92.963 369.697,93.239 369.849 C 94.134 370.344,94.906 370.820,94.992 370.929 C 95.038 370.987,95.225 371.126,95.409 371.237 C 98.518 373.118,99.799 373.863,101.252 374.637 C 101.803 374.930,102.442 375.300,102.671 375.459 C 103.133 375.778,104.758 376.676,106.678 377.672 C 107.366 378.029,108.475 378.622,109.140 378.989 C 109.806 379.356,110.351 379.608,110.351 379.549 C 110.351 379.490,110.469 379.561,110.614 379.706 C 110.760 379.851,110.947 379.927,111.032 379.875 C 111.116 379.823,111.185 379.864,111.185 379.967 C 111.185 380.069,111.260 380.107,111.352 380.050 C 111.444 379.993,111.519 380.018,111.519 380.104 C 111.519 380.191,111.951 380.435,112.479 380.648 C 113.007 380.860,113.823 381.242,114.292 381.498 C 114.761 381.753,115.193 381.913,115.252 381.854 C 115.311 381.796,115.359 381.830,115.359 381.931 C 115.359 382.032,115.528 382.166,115.735 382.229 C 116.127 382.349,117.362 382.880,118.781 383.539 C 119.240 383.752,119.899 384.047,120.245 384.196 C 121.020 384.528,121.675 384.819,122.903 385.378 C 123.425 385.615,123.955 385.810,124.080 385.810 C 124.205 385.810,124.379 385.873,124.466 385.951 C 124.553 386.028,125.075 386.262,125.626 386.470 C 126.177 386.679,126.875 386.958,127.177 387.092 C 127.478 387.225,127.886 387.365,128.082 387.403 C 128.279 387.440,128.516 387.548,128.610 387.642 C 128.704 387.736,128.898 387.813,129.040 387.814 C 129.182 387.815,129.500 387.920,129.747 388.049 C 129.993 388.177,130.443 388.337,130.748 388.404 C 131.275 388.520,131.494 388.602,132.921 389.222 C 133.421 389.439,137.974 390.973,138.439 391.081 C 138.508 391.097,138.602 391.129,138.648 391.152 C 138.694 391.175,138.806 391.212,138.898 391.235 C 138.990 391.258,139.103 391.296,139.149 391.319 C 139.194 391.342,139.288 391.376,139.357 391.396 C 139.426 391.415,139.595 391.475,139.733 391.529 C 140.143 391.690,141.238 392.017,141.491 392.054 C 141.621 392.073,141.779 392.141,141.843 392.204 C 141.907 392.268,142.167 392.321,142.422 392.321 C 142.677 392.321,142.932 392.397,142.990 392.490 C 143.048 392.584,143.160 392.620,143.239 392.571 C 143.318 392.522,143.430 392.558,143.487 392.652 C 143.545 392.745,143.809 392.821,144.073 392.821 C 144.338 392.821,144.603 392.900,144.663 392.997 C 144.723 393.094,144.859 393.142,144.965 393.103 C 145.072 393.065,145.295 393.104,145.462 393.189 C 145.772 393.350,146.119 393.442,146.995 393.598 C 147.270 393.647,147.571 393.748,147.663 393.823 C 147.755 393.897,148.093 394.001,148.414 394.054 C 148.735 394.106,149.261 394.231,149.583 394.331 C 150.083 394.487,150.575 394.594,151.336 394.715 C 151.427 394.729,151.547 394.802,151.602 394.877 C 151.657 394.951,151.976 395.026,152.311 395.043 C 152.646 395.061,152.920 395.136,152.921 395.210 C 152.921 395.284,152.978 395.311,153.047 395.270 C 153.116 395.228,153.735 395.341,154.424 395.522 C 155.113 395.702,155.826 395.873,156.010 395.902 C 156.194 395.930,156.457 396.000,156.594 396.057 C 156.831 396.155,157.489 396.275,158.431 396.395 C 158.929 396.458,159.637 396.617,160.434 396.845 C 160.958 396.995,161.919 397.148,162.604 397.192 C 162.742 397.200,162.939 397.274,163.043 397.355 C 163.147 397.436,163.597 397.535,164.045 397.575 C 164.492 397.615,164.896 397.659,164.942 397.675 C 164.987 397.690,165.093 397.690,165.175 397.674 C 165.258 397.659,165.446 397.699,165.593 397.763 C 166.015 397.948,166.479 398.036,167.153 398.059 C 167.497 398.071,167.779 398.121,167.779 398.171 C 167.779 398.220,167.986 398.277,168.239 398.296 C 168.912 398.347,169.866 398.467,169.866 398.501 C 169.866 398.537,170.495 398.630,171.295 398.712 C 171.622 398.745,171.972 398.823,172.072 398.885 C 172.172 398.947,172.430 398.995,172.646 398.992 C 172.862 398.988,173.376 399.033,173.790 399.090 C 174.203 399.147,174.841 399.217,175.209 399.244 C 175.576 399.272,175.914 399.313,175.960 399.336 C 176.006 399.359,176.269 399.401,176.544 399.430 C 176.820 399.459,177.346 399.524,177.713 399.574 C 178.080 399.624,178.869 399.709,179.466 399.762 C 180.063 399.815,180.851 399.893,181.219 399.935 C 181.985 400.022,183.278 400.125,185.309 400.260 C 186.089 400.312,187.291 400.418,187.980 400.496 C 189.467 400.664,212.733 400.588,213.940 400.412 C 214.399 400.344,215.131 400.294,215.568 400.299 C 216.004 400.304,216.361 400.258,216.361 400.196 C 216.361 400.134,216.793 400.067,217.321 400.048 C 217.849 400.028,218.769 399.968,219.366 399.915 C 219.962 399.861,220.770 399.809,221.160 399.798 C 221.551 399.787,221.870 399.734,221.870 399.680 C 221.870 399.627,222.152 399.585,222.496 399.587 C 222.840 399.590,223.191 399.559,223.276 399.518 C 223.361 399.477,223.812 399.424,224.278 399.401 C 224.744 399.378,225.388 399.309,225.710 399.248 C 226.031 399.186,226.482 399.117,226.711 399.093 C 226.941 399.070,227.166 399.033,227.212 399.012 C 227.309 398.967,228.098 398.878,229.326 398.775 C 229.800 398.735,230.277 398.647,230.385 398.580 C 230.494 398.513,231.082 398.428,231.694 398.391 C 232.305 398.354,232.827 398.258,232.854 398.178 C 232.882 398.098,233.050 398.070,233.228 398.117 C 233.405 398.163,233.684 398.142,233.846 398.069 C 234.174 397.922,234.564 397.836,235.309 397.748 C 235.584 397.715,235.810 397.677,235.810 397.663 C 235.810 397.649,236.035 397.615,236.311 397.588 C 236.586 397.561,236.999 397.484,237.229 397.417 C 237.458 397.350,237.834 397.275,238.063 397.250 C 238.293 397.225,238.500 397.186,238.523 397.163 C 238.545 397.139,238.715 397.101,238.898 397.078 C 239.082 397.056,239.251 397.022,239.274 397.003 C 239.353 396.939,239.987 396.826,240.818 396.727 C 241.277 396.673,241.720 396.587,241.802 396.537 C 241.884 396.486,242.447 396.351,243.054 396.237 C 244.504 395.963,244.988 395.850,245.446 395.681 C 245.655 395.604,245.920 395.573,246.035 395.614 C 246.150 395.654,246.244 395.601,246.244 395.497 C 246.244 395.392,246.319 395.352,246.411 395.409 C 246.503 395.466,246.671 395.454,246.786 395.383 C 246.900 395.313,247.182 395.237,247.412 395.215 C 247.642 395.193,248.694 394.947,249.750 394.668 C 250.806 394.389,251.889 394.124,252.158 394.079 C 252.426 394.035,252.717 393.927,252.804 393.840 C 252.891 393.753,253.066 393.722,253.192 393.770 C 253.319 393.819,253.422 393.792,253.422 393.710 C 253.422 393.629,253.615 393.546,253.850 393.527 C 254.085 393.507,254.931 393.298,255.728 393.062 C 256.526 392.826,257.358 392.597,257.578 392.553 C 257.797 392.509,258.223 392.370,258.524 392.244 C 258.825 392.118,259.115 392.059,259.168 392.112 C 259.222 392.166,259.265 392.138,259.265 392.050 C 259.265 391.962,259.397 391.881,259.559 391.869 C 259.812 391.850,262.720 390.968,263.439 390.692 C 263.577 390.640,263.727 390.589,263.773 390.579 C 263.819 390.570,263.932 390.516,264.023 390.459 C 264.115 390.403,264.453 390.301,264.775 390.233 C 265.096 390.165,265.575 390.000,265.838 389.865 C 266.102 389.730,266.513 389.584,266.752 389.541 C 266.992 389.498,267.415 389.363,267.692 389.241 C 267.970 389.120,268.422 388.944,268.698 388.850 C 268.973 388.756,269.349 388.623,269.533 388.555 C 269.716 388.486,269.946 388.413,270.043 388.392 C 270.141 388.370,270.704 388.151,271.296 387.904 C 271.887 387.657,272.634 387.379,272.955 387.285 C 273.276 387.191,273.611 387.046,273.698 386.963 C 273.785 386.879,273.955 386.811,274.075 386.811 C 274.278 386.811,275.497 386.317,276.166 385.963 C 276.326 385.879,276.570 385.810,276.709 385.810 C 276.848 385.810,276.962 385.743,276.962 385.661 C 276.962 385.579,277.168 385.464,277.421 385.405 C 277.673 385.346,278.143 385.174,278.464 385.024 C 279.063 384.744,279.491 384.563,280.801 384.035 C 281.215 383.868,281.599 383.667,281.655 383.588 C 281.711 383.509,281.806 383.453,281.866 383.465 C 281.985 383.487,282.626 383.216,284.262 382.454 C 284.834 382.188,285.379 381.970,285.472 381.970 C 285.566 381.970,285.643 381.882,285.643 381.775 C 285.643 381.668,285.686 381.623,285.738 381.676 C 285.835 381.773,294.753 377.310,296.160 376.461 C 296.920 376.002,299.704 374.457,299.771 374.457 C 299.814 374.457,300.244 374.213,300.727 373.915 C 301.210 373.616,301.751 373.282,301.930 373.172 C 302.975 372.527,304.621 371.540,304.916 371.381 C 305.104 371.279,305.484 371.053,305.760 370.878 C 306.035 370.702,306.598 370.346,307.012 370.086 C 307.425 369.826,307.876 369.538,308.013 369.446 C 309.981 368.131,311.054 367.445,311.151 367.442 C 311.216 367.440,311.457 367.287,311.686 367.103 C 312.182 366.704,313.620 365.693,314.521 365.109 C 316.868 363.587,323.237 358.843,325.386 357.016 C 325.713 356.738,326.274 356.285,326.633 356.010 C 327.401 355.420,330.134 353.163,330.551 352.774 C 330.710 352.626,331.240 352.166,331.728 351.753 C 332.217 351.340,332.737 350.889,332.884 350.751 C 333.031 350.614,333.449 350.246,333.813 349.936 C 336.860 347.331,345.162 339.107,348.494 335.392 C 349.029 334.795,349.737 334.009,350.068 333.644 C 350.398 333.279,351.215 332.340,351.883 331.557 C 352.551 330.774,353.267 329.946,353.472 329.716 C 353.678 329.487,354.183 328.886,354.594 328.381 C 355.006 327.876,355.383 327.425,355.432 327.379 C 355.722 327.108,358.028 324.151,360.549 320.816 C 362.266 318.546,366.125 313.076,367.640 310.768 C 370.050 307.094,370.899 305.764,371.271 305.081 C 371.468 304.720,372.073 303.710,372.617 302.838 C 373.161 301.966,373.609 301.189,373.614 301.111 C 373.619 301.033,373.786 300.741,373.985 300.460 C 374.366 299.926,375.142 298.539,377.416 294.324 C 377.688 293.819,378.156 292.974,378.454 292.446 C 378.753 291.918,378.933 291.485,378.856 291.483 C 378.778 291.482,378.790 291.426,378.881 291.358 C 379.105 291.194,382.972 283.332,382.972 283.042 C 382.972 282.980,383.196 282.488,383.470 281.949 C 383.744 281.410,383.927 280.968,383.878 280.968 C 383.828 280.968,383.975 280.611,384.205 280.175 C 384.561 279.498,384.791 278.978,384.885 278.631 C 384.898 278.585,385.074 278.195,385.276 277.764 C 385.477 277.333,385.643 276.935,385.643 276.880 C 385.643 276.826,385.858 276.314,386.121 275.744 C 386.384 275.174,386.652 274.485,386.717 274.213 C 386.821 273.780,386.987 273.359,387.645 271.870 C 387.864 271.372,388.051 270.718,388.013 270.576 C 387.995 270.507,388.068 270.451,388.175 270.451 C 388.282 270.451,388.324 270.405,388.268 270.349 C 388.212 270.294,388.346 269.843,388.565 269.348 C 388.784 268.853,388.921 268.447,388.869 268.447 C 388.816 268.447,388.867 268.335,388.982 268.197 C 389.096 268.059,389.147 267.947,389.095 267.947 C 389.043 267.947,389.183 267.533,389.406 267.028 C 389.629 266.523,389.766 266.110,389.710 266.110 C 389.654 266.110,389.702 265.997,389.816 265.860 C 389.931 265.722,389.968 265.609,389.900 265.609 C 389.831 265.609,389.869 265.497,389.983 265.359 C 390.098 265.221,390.135 265.109,390.067 265.109 C 389.998 265.109,390.017 265.015,390.108 264.900 C 390.274 264.690,391.083 262.344,391.249 261.590 C 391.298 261.368,391.355 261.110,391.375 261.018 C 391.395 260.927,391.458 260.776,391.515 260.684 C 391.597 260.552,391.978 259.338,392.065 258.932 C 392.090 258.812,392.655 256.979,392.939 256.093 C 393.072 255.680,393.245 255.042,393.323 254.674 C 393.476 253.962,393.802 252.667,393.932 252.254 C 393.976 252.116,393.994 252.003,393.973 252.003 C 393.951 252.003,394.018 251.846,394.120 251.654 C 394.223 251.462,394.357 250.936,394.417 250.486 C 394.477 250.035,394.573 249.591,394.629 249.499 C 394.686 249.407,394.755 249.220,394.784 249.082 C 394.812 248.944,394.867 248.681,394.905 248.497 C 394.943 248.314,395.124 247.653,395.308 247.029 C 395.492 246.404,395.604 245.792,395.556 245.668 C 395.509 245.544,395.546 245.396,395.638 245.339 C 395.731 245.281,395.854 244.917,395.911 244.529 C 396.047 243.601,396.129 243.155,396.161 243.155 C 396.191 243.155,396.249 242.876,396.474 241.653 C 396.558 241.194,396.676 240.630,396.737 240.401 C 396.902 239.772,397.015 239.196,397.066 238.731 C 397.108 238.345,397.181 237.979,397.431 236.895 C 397.484 236.665,397.524 236.334,397.520 236.159 C 397.516 235.983,397.582 235.709,397.668 235.550 C 397.753 235.391,397.868 234.895,397.924 234.450 C 397.979 234.004,398.059 233.414,398.102 233.139 C 398.144 232.863,398.207 232.375,398.242 232.053 C 398.308 231.427,398.433 230.699,398.655 229.633 C 398.732 229.265,398.802 228.852,398.811 228.715 C 398.848 228.138,398.966 227.268,399.061 226.878 C 399.151 226.510,399.206 226.001,399.423 223.539 C 399.452 223.218,399.488 222.955,399.504 222.955 C 399.519 222.955,399.554 222.767,399.580 222.538 C 399.607 222.308,399.689 221.594,399.764 220.952 C 399.934 219.485,400.042 181.336,399.876 181.076 C 399.809 180.971,399.744 180.603,399.731 180.259 C 399.718 179.914,399.691 179.576,399.671 179.508 C 399.651 179.439,399.637 179.025,399.641 178.589 C 399.645 178.153,399.586 177.796,399.511 177.796 C 399.436 177.796,399.376 177.477,399.378 177.087 C 399.380 176.697,399.337 176.152,399.283 175.876 C 399.229 175.601,399.169 175.019,399.149 174.583 C 399.129 174.146,399.040 173.790,398.952 173.790 C 398.864 173.790,398.832 173.584,398.880 173.333 C 398.928 173.082,398.890 172.424,398.797 171.872 C 398.703 171.320,398.594 170.680,398.555 170.451 C 398.393 169.504,398.321 168.993,398.251 168.280 C 398.210 167.867,398.124 167.341,398.060 167.112 C 397.996 166.882,397.960 166.563,397.981 166.402 C 398.001 166.242,397.956 166.110,397.882 166.110 C 397.807 166.110,397.728 165.904,397.707 165.651 C 397.686 165.399,397.633 164.967,397.589 164.691 C 397.545 164.416,397.471 163.938,397.424 163.630 C 397.378 163.322,397.288 162.909,397.225 162.712 C 397.161 162.515,397.089 162.166,397.065 161.937 C 397.020 161.518,396.931 161.045,396.748 160.267 C 396.569 159.501,396.307 158.186,396.241 157.717 C 396.205 157.463,396.129 157.180,396.073 157.088 C 396.016 156.997,395.939 156.610,395.901 156.227 C 395.863 155.845,395.774 155.490,395.704 155.437 C 395.633 155.385,395.560 155.070,395.540 154.738 C 395.520 154.405,395.390 153.800,395.252 153.392 C 395.113 152.984,394.954 152.361,394.898 152.007 C 394.841 151.653,394.725 151.178,394.639 150.951 C 394.552 150.724,394.440 150.267,394.390 149.935 C 394.339 149.604,394.183 149.154,394.043 148.936 C 393.852 148.640,393.845 148.574,394.014 148.676 C 394.192 148.783,394.200 148.760,394.051 148.571 C 393.946 148.439,393.806 147.992,393.740 147.579 C 393.673 147.166,393.560 146.753,393.490 146.661 C 393.419 146.569,393.310 146.231,393.248 145.910 C 393.120 145.247,392.745 143.887,392.351 142.654 C 392.205 142.195,392.100 141.763,392.119 141.694 C 392.138 141.626,392.091 141.569,392.014 141.569 C 391.938 141.569,391.868 141.475,391.858 141.361 C 391.843 141.170,391.547 139.950,391.392 139.439 C 391.357 139.323,391.315 139.173,391.300 139.105 C 391.237 138.829,389.637 134.210,389.146 132.888 C 388.856 132.108,388.543 131.244,388.450 130.968 C 388.357 130.693,388.176 130.231,388.047 129.941 C 387.918 129.652,387.813 129.295,387.813 129.148 C 387.813 129.002,387.750 128.881,387.674 128.881 C 387.597 128.881,387.535 128.787,387.535 128.672 C 387.535 128.408,386.715 126.279,386.378 125.668 C 386.239 125.415,386.171 125.209,386.227 125.209 C 386.283 125.209,386.216 125.002,386.077 124.750 C 385.939 124.497,385.546 123.577,385.204 122.705 C 384.862 121.832,384.514 121.073,384.431 121.016 C 384.347 120.960,384.276 120.848,384.273 120.766 C 384.270 120.684,384.210 120.467,384.140 120.284 C 384.070 120.100,384.023 119.901,384.035 119.842 C 384.047 119.783,383.934 119.595,383.784 119.425 C 383.635 119.255,383.460 118.927,383.397 118.698 C 383.334 118.468,383.095 117.924,382.866 117.487 C 382.637 117.051,382.495 116.694,382.551 116.694 C 382.607 116.694,382.310 116.056,381.891 115.275 C 381.473 114.495,381.163 113.856,381.202 113.856 C 381.324 113.856,376.956 105.301,375.854 103.382 C 375.683 103.084,375.486 102.840,375.417 102.839 C 375.348 102.839,375.292 102.753,375.292 102.649 C 375.292 102.494,374.233 100.561,373.337 99.082 C 373.226 98.898,373.082 98.635,373.018 98.497 C 372.953 98.360,372.662 97.871,372.369 97.412 C 372.077 96.953,371.440 95.902,370.954 95.075 C 370.468 94.249,369.817 93.224,369.509 92.799 C 369.201 92.374,368.948 91.986,368.948 91.937 C 368.948 91.833,364.639 85.397,363.839 84.307 C 362.686 82.736,362.348 82.288,362.145 82.061 C 362.030 81.932,361.937 81.779,361.937 81.722 C 361.937 81.617,360.083 79.112,359.650 78.631 C 359.526 78.493,359.198 78.080,358.921 77.713 C 358.643 77.346,358.326 76.932,358.215 76.795 C 358.104 76.657,357.455 75.834,356.773 74.967 C 355.364 73.174,355.617 73.481,352.903 70.284 C 350.424 67.364,350.012 66.901,346.805 63.443 C 344.828 61.310,338.712 55.211,336.752 53.418 C 334.276 51.153,334.198 51.082,333.204 50.226 C 332.709 49.800,332.068 49.237,331.779 48.974 C 329.997 47.354,329.191 46.682,325.638 43.845 C 325.066 43.389,324.343 42.804,323.340 41.986 C 323.080 41.774,321.578 40.655,317.613 37.719 C 315.329 36.028,311.712 33.556,311.521 33.556 C 311.428 33.556,311.352 33.493,311.352 33.417 C 311.352 33.341,311.147 33.172,310.896 33.042 C 310.369 32.768,308.957 31.880,308.347 31.439 C 307.596 30.896,305.115 29.360,304.007 28.752 C 303.410 28.425,302.696 27.993,302.421 27.793 C 302.145 27.592,301.807 27.379,301.669 27.319 C 301.532 27.259,301.119 27.021,300.751 26.791 C 300.384 26.560,299.896 26.292,299.666 26.196 C 299.437 26.099,299.137 25.922,298.999 25.803 C 298.861 25.684,298.184 25.286,297.496 24.920 C 296.807 24.554,295.699 23.949,295.033 23.576 C 294.368 23.202,293.822 22.947,293.820 23.009 C 293.819 23.071,293.763 23.040,293.695 22.941 C 293.500 22.653,282.159 17.091,281.469 16.945 C 281.331 16.916,280.753 16.660,280.185 16.376 C 279.616 16.092,279.101 15.860,279.041 15.860 C 278.981 15.860,278.695 15.758,278.406 15.633 C 277.479 15.233,276.878 14.993,276.878 15.024 C 276.878 15.040,276.492 14.859,276.019 14.622 C 275.547 14.384,275.044 14.190,274.902 14.190 C 274.760 14.190,274.598 14.115,274.541 14.023 C 274.484 13.932,274.254 13.856,274.030 13.856 C 273.806 13.856,273.623 13.781,273.623 13.689 C 273.623 13.598,273.469 13.523,273.282 13.523 C 273.094 13.523,272.459 13.297,271.870 13.022 C 271.281 12.746,270.732 12.521,270.650 12.521 C 270.569 12.521,270.284 12.413,270.017 12.280 C 269.751 12.148,269.345 12.004,269.115 11.960 C 268.886 11.917,268.455 11.757,268.157 11.605 C 267.860 11.454,267.541 11.377,267.448 11.434 C 267.355 11.492,267.279 11.459,267.279 11.362 C 267.279 11.265,267.095 11.185,266.871 11.185 C 266.647 11.185,266.414 11.105,266.354 11.007 C 266.293 10.909,266.144 10.867,266.022 10.914 C 265.900 10.960,265.719 10.900,265.618 10.779 C 265.476 10.608,264.524 10.252,263.773 10.090 C 263.727 10.080,263.464 9.979,263.189 9.865 C 262.913 9.752,262.462 9.620,262.187 9.573 C 261.912 9.526,261.333 9.343,260.901 9.166 C 260.469 8.990,259.925 8.830,259.691 8.810 C 259.457 8.791,259.265 8.731,259.265 8.676 C 259.265 8.583,257.706 8.111,257.346 8.095 C 257.254 8.091,257.097 8.037,256.998 7.974 C 256.898 7.912,256.568 7.817,256.265 7.764 C 255.962 7.710,255.574 7.592,255.403 7.500 C 255.232 7.409,255.092 7.375,255.092 7.425 C 255.092 7.476,254.824 7.405,254.496 7.268 C 254.169 7.131,253.849 7.026,253.787 7.035 C 253.724 7.044,253.635 7.037,253.589 7.019 C 253.493 6.981,253.180 6.911,252.588 6.794 C 252.358 6.749,251.982 6.630,251.753 6.529 C 251.329 6.342,250.047 6.009,248.080 5.574 C 247.483 5.442,246.920 5.311,246.828 5.283 C 246.149 5.075,245.246 4.851,244.825 4.785 C 244.549 4.742,244.211 4.666,244.073 4.615 C 243.936 4.565,243.560 4.478,243.239 4.422 C 242.182 4.239,241.367 4.071,240.008 3.756 C 239.443 3.626,238.681 3.476,238.314 3.423 C 237.947 3.370,237.489 3.304,237.296 3.275 C 237.104 3.247,236.875 3.179,236.787 3.125 C 236.699 3.071,236.218 2.985,235.718 2.935 C 235.217 2.885,234.620 2.800,234.391 2.745 C 234.161 2.690,233.748 2.614,233.472 2.576 C 233.197 2.537,232.578 2.425,232.098 2.327 C 231.617 2.228,231.152 2.191,231.066 2.245 C 230.979 2.299,230.858 2.261,230.796 2.162 C 230.735 2.063,230.486 2.003,230.242 2.028 C 229.999 2.054,229.713 2.021,229.608 1.956 C 229.502 1.891,229.239 1.836,229.023 1.834 C 228.511 1.828,227.485 1.727,227.379 1.671 C 227.266 1.611,226.804 1.546,225.710 1.434 C 225.205 1.382,224.632 1.307,224.438 1.268 C 223.936 1.166,221.152 0.851,219.866 0.750 C 219.270 0.703,217.429 0.548,215.776 0.407 C 212.264 0.105,194.107 -0.052,189.316 0.178 M212.437 64.775 C 234.153 66.411,253.615 72.566,271.938 83.592 C 278.057 87.274,286.711 93.555,290.785 97.272 L 291.671 98.080 272.165 117.577 L 252.659 137.074 251.079 135.851 C 207.802 102.350,144.029 122.585,127.827 174.958 C 111.742 226.952,151.450 279.164,205.858 277.562 C 242.011 276.498,267.721 258.014,274.613 228.130 L 275.075 226.127 239.207 226.085 L 203.339 226.043 203.339 200.083 L 203.339 174.124 265.770 174.124 L 328.201 174.124 328.369 174.750 C 333.067 192.237,331.848 219.446,325.356 241.987 C 309.560 296.833,261.583 332.428,203.422 332.451 C 121.218 332.484,58.969 260.344,70.795 178.748 C 80.781 109.850,143.275 59.563,212.437 64.775 " stroke="none" fill="#fafafa" fill-rule="evenodd"></path><path id="path4" d="M201.377 64.565 C 202.456 64.594,204.222 64.594,205.301 64.565 C 206.379 64.536,205.497 64.513,203.339 64.513 C 201.181 64.513,200.298 64.536,201.377 64.565 M196.374 64.731 C 196.813 64.765,197.489 64.765,197.876 64.730 C 198.264 64.695,197.905 64.666,197.078 64.667 C 196.252 64.667,195.935 64.696,196.374 64.731 M208.895 64.731 C 209.334 64.765,210.010 64.765,210.397 64.730 C 210.785 64.695,210.426 64.666,209.599 64.667 C 208.773 64.667,208.456 64.696,208.895 64.731 M193.447 64.895 C 193.746 64.932,194.234 64.932,194.533 64.895 C 194.831 64.858,194.587 64.828,193.990 64.828 C 193.393 64.828,193.149 64.858,193.447 64.895 M212.148 64.896 C 212.448 64.933,212.899 64.932,213.150 64.894 C 213.401 64.856,213.155 64.825,212.604 64.826 C 212.053 64.827,211.848 64.858,212.148 64.896 M191.530 65.061 C 191.784 65.100,192.159 65.099,192.365 65.059 C 192.570 65.019,192.362 64.988,191.903 64.989 C 191.444 64.991,191.276 65.023,191.530 65.061 M214.401 65.061 C 214.655 65.100,215.031 65.099,215.236 65.059 C 215.441 65.019,215.234 64.988,214.775 64.989 C 214.316 64.991,214.148 65.023,214.401 65.061 M189.608 65.226 C 189.814 65.266,190.152 65.266,190.359 65.226 C 190.566 65.187,190.396 65.154,189.983 65.154 C 189.570 65.154,189.401 65.187,189.608 65.226 M216.321 65.227 C 216.528 65.267,216.829 65.265,216.989 65.223 C 217.148 65.181,216.978 65.149,216.611 65.151 C 216.244 65.152,216.113 65.187,216.321 65.227 M188.107 65.394 C 188.315 65.433,188.615 65.432,188.775 65.390 C 188.935 65.348,188.765 65.316,188.397 65.318 C 188.030 65.319,187.899 65.354,188.107 65.394 M217.821 65.393 C 218.028 65.433,218.366 65.433,218.573 65.393 C 218.779 65.353,218.610 65.321,218.197 65.321 C 217.784 65.321,217.615 65.353,217.821 65.393 M186.605 65.560 C 186.812 65.600,187.113 65.599,187.272 65.557 C 187.432 65.515,187.262 65.483,186.895 65.485 C 186.528 65.486,186.397 65.521,186.605 65.560 M219.407 65.557 C 219.568 65.599,219.831 65.599,219.992 65.557 C 220.152 65.515,220.021 65.481,219.699 65.481 C 219.378 65.481,219.247 65.515,219.407 65.557 M185.351 65.724 C 185.511 65.766,185.774 65.766,185.935 65.724 C 186.096 65.682,185.964 65.648,185.643 65.648 C 185.321 65.648,185.190 65.682,185.351 65.724 M220.661 65.727 C 220.869 65.767,221.170 65.766,221.329 65.724 C 221.489 65.682,221.319 65.650,220.952 65.651 C 220.584 65.653,220.454 65.687,220.661 65.727 M221.912 65.891 C 222.072 65.933,222.335 65.933,222.496 65.891 C 222.657 65.849,222.525 65.815,222.204 65.815 C 221.882 65.815,221.751 65.849,221.912 65.891 M224.082 66.225 C 224.242 66.267,224.505 66.267,224.666 66.225 C 224.827 66.183,224.695 66.149,224.374 66.149 C 224.053 66.149,223.921 66.183,224.082 66.225 M231.553 67.613 C 231.782 67.686,232.120 67.746,232.304 67.746 C 232.568 67.746,232.551 67.719,232.220 67.613 C 231.991 67.539,231.653 67.479,231.469 67.479 C 231.205 67.479,231.222 67.507,231.553 67.613 M233.723 68.114 C 233.952 68.187,234.290 68.247,234.474 68.247 C 234.739 68.247,234.721 68.219,234.391 68.114 C 234.161 68.040,233.823 67.980,233.639 67.980 C 233.375 67.980,233.392 68.008,233.723 68.114 M169.950 68.614 C 169.619 68.720,169.602 68.748,169.866 68.748 C 170.050 68.748,170.388 68.688,170.618 68.614 C 170.948 68.509,170.966 68.481,170.701 68.481 C 170.518 68.481,170.179 68.541,169.950 68.614 M240.150 69.783 C 240.334 69.862,240.597 69.926,240.735 69.926 C 240.892 69.926,240.862 69.873,240.651 69.783 C 240.467 69.704,240.205 69.639,240.067 69.639 C 239.909 69.639,239.940 69.693,240.150 69.783 M161.603 71.035 C 161.281 71.159,161.131 71.260,161.269 71.260 C 161.407 71.260,161.782 71.159,162.104 71.035 C 162.425 70.911,162.575 70.810,162.437 70.810 C 162.300 70.810,161.924 70.911,161.603 71.035 M159.182 71.876 C 158.765 72.077,158.751 72.100,159.098 72.015 C 159.572 71.899,160.103 71.628,159.850 71.632 C 159.758 71.633,159.457 71.743,159.182 71.876 M247.913 72.259 C 248.051 72.344,248.351 72.464,248.581 72.525 C 248.871 72.603,248.922 72.590,248.748 72.482 C 248.610 72.397,248.310 72.277,248.080 72.216 C 247.790 72.138,247.739 72.151,247.913 72.259 M257.262 76.043 C 257.492 76.175,257.755 76.282,257.846 76.282 C 257.938 76.282,257.826 76.175,257.596 76.043 C 257.366 75.912,257.104 75.805,257.012 75.805 C 256.920 75.805,257.033 75.912,257.262 76.043 M147.078 76.711 C 146.849 76.842,146.736 76.950,146.828 76.950 C 146.920 76.950,147.183 76.842,147.412 76.711 C 147.642 76.580,147.755 76.473,147.663 76.473 C 147.571 76.473,147.308 76.580,147.078 76.711 M259.599 77.129 C 259.921 77.304,260.259 77.448,260.351 77.448 C 260.442 77.448,260.255 77.304,259.933 77.129 C 259.612 76.953,259.274 76.809,259.182 76.809 C 259.090 76.809,259.278 76.953,259.599 77.129 M143.364 78.474 C 142.469 78.930,141.736 79.340,141.736 79.385 C 141.736 79.460,145.058 77.851,145.228 77.694 C 145.478 77.463,144.768 77.760,143.364 78.474 M264.608 79.542 C 264.608 79.588,264.908 79.779,265.275 79.967 C 265.643 80.154,265.943 80.270,265.943 80.224 C 265.943 80.178,265.643 79.987,265.275 79.800 C 264.908 79.612,264.608 79.497,264.608 79.542 M139.357 80.563 C 138.733 80.902,138.771 81.043,139.399 80.718 C 139.674 80.575,139.900 80.423,139.900 80.380 C 139.900 80.272,139.882 80.278,139.357 80.563 M266.778 80.709 C 266.778 80.755,267.003 80.909,267.279 81.052 C 267.554 81.194,267.780 81.273,267.780 81.227 C 267.780 81.181,267.554 81.027,267.279 80.885 C 267.003 80.742,266.778 80.663,266.778 80.709 M114.096 98.372 L 113.606 98.915 114.149 98.425 C 114.447 98.155,114.691 97.911,114.691 97.882 C 114.691 97.753,114.553 97.867,114.096 98.372 M272.036 117.571 L 252.504 137.145 272.078 117.613 C 282.844 106.870,291.653 98.062,291.653 98.039 C 291.653 97.922,290.195 99.373,272.036 117.571 M112.354 99.917 C 111.948 100.330,111.654 100.668,111.700 100.668 C 111.746 100.668,112.115 100.330,112.521 99.917 C 112.926 99.503,113.221 99.165,113.175 99.165 C 113.129 99.165,112.759 99.503,112.354 99.917 M108.511 103.631 L 106.761 105.426 108.556 103.676 C 109.543 102.713,110.351 101.906,110.351 101.881 C 110.351 101.761,110.137 101.964,108.511 103.631 M104.750 107.554 L 104.090 108.264 104.800 107.604 C 105.460 106.990,105.586 106.845,105.460 106.845 C 105.432 106.845,105.113 107.164,104.750 107.554 M199.287 119.486 C 199.583 119.523,200.109 119.524,200.455 119.487 C 200.802 119.451,200.559 119.421,199.917 119.420 C 199.274 119.420,198.990 119.449,199.287 119.486 M206.052 119.487 C 206.396 119.523,206.960 119.523,207.304 119.487 C 207.648 119.451,207.366 119.422,206.678 119.422 C 205.989 119.422,205.707 119.451,206.052 119.487 M196.788 119.651 C 196.996 119.691,197.296 119.689,197.456 119.647 C 197.616 119.605,197.446 119.573,197.078 119.575 C 196.711 119.577,196.581 119.611,196.788 119.651 M209.309 119.651 C 209.517 119.691,209.817 119.689,209.977 119.647 C 210.137 119.605,209.967 119.573,209.599 119.575 C 209.232 119.577,209.101 119.611,209.309 119.651 M211.060 119.815 C 211.221 119.857,211.484 119.857,211.644 119.815 C 211.805 119.773,211.674 119.738,211.352 119.738 C 211.031 119.738,210.899 119.773,211.060 119.815 M169.950 126.628 C 169.720 126.759,169.608 126.866,169.699 126.866 C 169.791 126.866,170.054 126.759,170.284 126.628 C 170.513 126.496,170.626 126.389,170.534 126.389 C 170.442 126.389,170.179 126.496,169.950 126.628 M236.742 126.942 C 236.912 127.098,239.232 128.209,239.232 128.134 C 239.232 128.041,236.969 126.878,236.788 126.878 C 236.724 126.878,236.704 126.907,236.742 126.942 M165.735 128.726 C 165.390 128.908,165.109 129.094,165.109 129.139 C 165.109 129.185,165.409 129.069,165.776 128.881 C 166.144 128.694,166.444 128.505,166.444 128.461 C 166.444 128.352,166.443 128.352,165.735 128.726 M240.401 128.789 C 240.401 128.835,240.626 128.989,240.902 129.132 C 241.177 129.274,241.402 129.353,241.402 129.307 C 241.402 129.261,241.177 129.107,240.902 128.965 C 240.626 128.822,240.401 128.744,240.401 128.789 M164.065 129.645 C 163.441 129.983,163.479 130.124,164.107 129.800 C 164.382 129.657,164.608 129.505,164.608 129.461 C 164.608 129.354,164.590 129.360,164.065 129.645 M245.159 131.639 C 245.342 131.789,245.643 131.985,245.826 132.075 L 246.160 132.239 245.826 131.967 C 245.643 131.817,245.342 131.621,245.159 131.531 L 244.825 131.367 245.159 131.639 M246.745 132.622 C 246.745 132.668,247.083 132.938,247.496 133.222 C 247.909 133.506,248.247 133.701,248.247 133.655 C 248.247 133.610,247.909 133.339,247.496 133.055 C 247.083 132.771,246.745 132.576,246.745 132.622 M157.346 133.988 L 156.845 134.418 157.387 134.059 C 157.686 133.862,157.930 133.668,157.930 133.628 C 157.930 133.503,157.859 133.547,157.346 133.988 M248.414 133.784 C 248.414 133.830,248.639 134.028,248.915 134.224 C 249.190 134.420,249.416 134.543,249.416 134.497 C 249.416 134.451,249.190 134.253,248.915 134.057 C 248.639 133.861,248.414 133.738,248.414 133.784 M85.225 134.891 C 85.083 135.167,85.004 135.392,85.050 135.392 C 85.096 135.392,85.250 135.167,85.392 134.891 C 85.535 134.616,85.614 134.391,85.568 134.391 C 85.522 134.391,85.368 134.616,85.225 134.891 M249.583 134.622 C 249.583 134.667,250.033 135.052,250.584 135.476 C 251.135 135.900,251.586 136.209,251.586 136.163 C 251.586 136.117,251.135 135.733,250.584 135.309 C 250.033 134.885,249.583 134.576,249.583 134.622 M153.589 136.824 C 148.792 140.720,144.232 145.369,140.829 149.833 C 139.870 151.090,140.762 150.076,142.821 147.565 C 145.155 144.721,149.529 140.349,152.411 137.980 C 155.166 135.716,155.531 135.403,155.426 135.402 C 155.380 135.401,154.553 136.041,153.589 136.824 M81.916 141.494 C 81.524 142.316,81.579 142.456,81.989 141.679 C 82.176 141.326,82.298 141.007,82.262 140.971 C 82.226 140.935,82.071 141.170,81.916 141.494 M80.495 144.665 C 80.215 145.279,80.268 145.410,80.571 144.852 C 80.712 144.591,80.796 144.347,80.758 144.308 C 80.720 144.270,80.601 144.431,80.495 144.665 M79.994 145.834 C 79.714 146.447,79.767 146.578,80.070 146.020 C 80.211 145.760,80.295 145.515,80.257 145.477 C 80.219 145.439,80.100 145.599,79.994 145.834 M79.159 147.837 C 78.879 148.451,78.933 148.582,79.235 148.024 C 79.376 147.763,79.461 147.519,79.422 147.480 C 79.384 147.442,79.266 147.603,79.159 147.837 M77.815 151.271 C 77.712 151.566,77.657 151.836,77.693 151.872 C 77.729 151.908,77.842 151.696,77.945 151.400 C 78.048 151.105,78.103 150.835,78.067 150.799 C 78.031 150.763,77.918 150.976,77.815 151.271 M139.201 151.962 C 138.524 152.869,137.996 153.688,138.260 153.422 C 138.600 153.080,139.780 151.419,139.683 151.419 C 139.641 151.419,139.423 151.663,139.201 151.962 M77.231 152.857 C 77.083 153.291,76.991 153.675,77.027 153.710 C 77.062 153.745,77.212 153.419,77.360 152.986 C 77.507 152.552,77.600 152.168,77.564 152.133 C 77.529 152.098,77.379 152.424,77.231 152.857 M136.664 155.676 C 136.515 155.906,136.272 156.300,136.124 156.553 L 135.854 157.012 136.189 156.605 C 136.586 156.125,137.112 155.259,137.007 155.259 C 136.966 155.259,136.812 155.447,136.664 155.676 M75.221 158.860 C 75.159 159.105,75.141 159.337,75.181 159.376 C 75.220 159.416,75.302 159.248,75.364 159.003 C 75.425 158.758,75.443 158.526,75.404 158.487 C 75.364 158.447,75.282 158.615,75.221 158.860 M134.474 159.265 C 134.332 159.541,134.253 159.766,134.299 159.766 C 134.345 159.766,134.499 159.541,134.641 159.265 C 134.784 158.990,134.862 158.765,134.817 158.765 C 134.771 158.765,134.617 158.990,134.474 159.265 M133.472 161.102 C 133.240 161.561,133.087 161.937,133.133 161.937 C 133.179 161.937,133.407 161.561,133.639 161.102 C 133.872 160.643,134.025 160.267,133.979 160.267 C 133.933 160.267,133.705 160.643,133.472 161.102 M74.384 161.780 C 74.227 162.342,74.129 162.832,74.167 162.870 C 74.205 162.908,74.364 162.478,74.520 161.916 C 74.677 161.353,74.774 160.862,74.738 160.826 C 74.701 160.789,74.542 161.218,74.384 161.780 M73.402 165.486 C 73.064 166.835,72.795 168.035,72.803 168.151 C 72.811 168.268,73.110 167.237,73.466 165.860 C 73.822 164.482,74.092 163.283,74.065 163.194 C 74.038 163.106,73.740 164.137,73.402 165.486 M131.499 165.033 C 131.107 165.855,131.162 165.995,131.572 165.218 C 131.758 164.865,131.881 164.547,131.845 164.511 C 131.809 164.474,131.653 164.709,131.499 165.033 M72.547 169.041 C 72.484 169.376,72.466 169.684,72.507 169.724 C 72.548 169.765,72.632 169.524,72.695 169.189 C 72.758 168.854,72.776 168.547,72.735 168.506 C 72.695 168.465,72.610 168.706,72.547 169.041 M72.037 171.452 C 71.875 172.285,71.776 173.000,71.816 173.041 C 71.857 173.081,72.021 172.431,72.181 171.597 C 72.341 170.762,72.440 170.047,72.401 170.008 C 72.363 169.970,72.199 170.619,72.037 171.452 M71.285 175.459 C 71.170 176.201,71.110 176.842,71.152 176.884 C 71.194 176.926,71.321 176.352,71.435 175.608 C 71.549 174.865,71.609 174.224,71.568 174.184 C 71.528 174.144,71.401 174.717,71.285 175.459 M127.474 175.554 C 127.413 175.799,127.395 176.032,127.434 176.071 C 127.474 176.110,127.556 175.942,127.617 175.698 C 127.679 175.453,127.697 175.221,127.658 175.181 C 127.618 175.142,127.536 175.310,127.474 175.554 M70.823 178.631 C 70.823 178.952,70.858 179.084,70.900 178.923 C 70.942 178.763,70.942 178.500,70.900 178.339 C 70.858 178.178,70.823 178.310,70.823 178.631 M70.656 179.800 C 70.656 180.121,70.691 180.253,70.733 180.092 C 70.775 179.931,70.775 179.668,70.733 179.508 C 70.691 179.347,70.656 179.478,70.656 179.800 M70.493 181.052 C 70.495 181.419,70.529 181.550,70.569 181.342 C 70.609 181.134,70.607 180.834,70.565 180.674 C 70.524 180.515,70.491 180.684,70.493 181.052 M70.326 182.387 C 70.328 182.755,70.362 182.885,70.402 182.678 C 70.442 182.470,70.440 182.169,70.399 182.010 C 70.357 181.850,70.324 182.020,70.326 182.387 M70.162 183.806 C 70.162 184.220,70.195 184.389,70.235 184.182 C 70.274 183.975,70.274 183.637,70.235 183.431 C 70.195 183.224,70.162 183.393,70.162 183.806 M70.000 185.476 C 70.000 185.981,70.031 186.187,70.069 185.935 C 70.108 185.682,70.108 185.269,70.069 185.017 C 70.031 184.764,70.000 184.971,70.000 185.476 M69.835 187.396 C 69.836 187.947,69.867 188.152,69.904 187.852 C 69.941 187.552,69.940 187.101,69.902 186.850 C 69.864 186.599,69.834 186.845,69.835 187.396 M69.672 189.649 C 69.672 190.338,69.702 190.620,69.738 190.275 C 69.774 189.931,69.774 189.368,69.738 189.023 C 69.702 188.679,69.672 188.961,69.672 189.649 M124.580 190.484 C 124.580 190.806,124.614 190.937,124.656 190.776 C 124.698 190.616,124.698 190.353,124.656 190.192 C 124.614 190.031,124.580 190.163,124.580 190.484 M69.512 192.988 C 69.512 194.044,69.539 194.476,69.572 193.948 C 69.606 193.420,69.606 192.556,69.572 192.028 C 69.539 191.500,69.512 191.932,69.512 192.988 M124.419 192.321 C 124.419 192.734,124.452 192.903,124.492 192.696 C 124.532 192.490,124.532 192.152,124.492 191.945 C 124.452 191.738,124.419 191.907,124.419 192.321 M124.266 195.409 C 124.266 196.235,124.294 196.595,124.329 196.207 C 124.364 195.820,124.364 195.143,124.330 194.705 C 124.295 194.266,124.267 194.583,124.266 195.409 M69.348 198.497 C 69.348 199.829,69.374 200.374,69.406 199.708 C 69.438 199.042,69.438 197.953,69.406 197.287 C 69.374 196.621,69.348 197.166,69.348 198.497 M124.266 201.586 C 124.266 202.412,124.294 202.771,124.329 202.384 C 124.364 201.997,124.364 201.320,124.330 200.881 C 124.295 200.443,124.267 200.760,124.266 201.586 M69.512 204.007 C 69.512 205.063,69.539 205.495,69.572 204.967 C 69.606 204.439,69.606 203.575,69.572 203.047 C 69.539 202.519,69.512 202.951,69.512 204.007 M124.419 204.674 C 124.419 205.088,124.452 205.257,124.492 205.050 C 124.532 204.843,124.532 204.505,124.492 204.299 C 124.452 204.092,124.419 204.261,124.419 204.674 M331.090 205.175 C 331.090 205.497,331.125 205.628,331.167 205.467 C 331.209 205.307,331.209 205.044,331.167 204.883 C 331.125 204.722,331.090 204.854,331.090 205.175 M124.580 206.511 C 124.580 206.832,124.614 206.964,124.656 206.803 C 124.698 206.642,124.698 206.379,124.656 206.219 C 124.614 206.058,124.580 206.189,124.580 206.511 M69.672 207.346 C 69.672 208.034,69.702 208.316,69.738 207.972 C 69.774 207.627,69.774 207.064,69.738 206.720 C 69.702 206.375,69.672 206.657,69.672 207.346 M69.833 209.683 C 69.833 210.188,69.864 210.394,69.903 210.142 C 69.941 209.889,69.941 209.476,69.903 209.224 C 69.864 208.971,69.833 209.178,69.833 209.683 M70.000 211.519 C 70.000 212.024,70.031 212.231,70.069 211.978 C 70.108 211.726,70.108 211.313,70.069 211.060 C 70.031 210.808,70.000 211.014,70.000 211.519 M70.162 213.189 C 70.162 213.602,70.195 213.771,70.235 213.564 C 70.274 213.358,70.274 213.020,70.235 212.813 C 70.195 212.606,70.162 212.775,70.162 213.189 M70.329 214.691 C 70.329 215.104,70.362 215.273,70.402 215.067 C 70.441 214.860,70.441 214.522,70.402 214.316 C 70.362 214.109,70.329 214.278,70.329 214.691 M70.489 216.027 C 70.489 216.348,70.524 216.480,70.566 216.319 C 70.608 216.158,70.608 215.895,70.566 215.735 C 70.524 215.574,70.489 215.705,70.489 216.027 M70.656 217.195 C 70.656 217.517,70.691 217.648,70.733 217.487 C 70.775 217.327,70.775 217.064,70.733 216.903 C 70.691 216.742,70.656 216.874,70.656 217.195 M70.823 218.364 C 70.823 218.685,70.858 218.817,70.900 218.656 C 70.942 218.495,70.942 218.232,70.900 218.072 C 70.858 217.911,70.823 218.043,70.823 218.364 M126.735 218.698 C 126.735 218.836,126.799 219.098,126.878 219.282 C 126.969 219.493,127.022 219.523,127.022 219.366 C 127.022 219.228,126.957 218.965,126.878 218.781 C 126.788 218.571,126.735 218.540,126.735 218.698 M71.053 219.866 C 71.158 220.956,71.575 223.101,71.589 222.621 C 71.594 222.437,71.456 221.536,71.281 220.618 C 71.099 219.660,71.002 219.340,71.053 219.866 M71.803 224.040 C 71.778 224.417,72.338 227.142,72.402 226.951 C 72.432 226.860,72.314 226.112,72.138 225.288 C 71.963 224.464,71.812 223.902,71.803 224.040 M221.244 226.002 C 231.137 226.025,247.327 226.025,257.220 226.002 C 267.114 225.978,259.019 225.958,239.232 225.958 C 219.445 225.958,211.350 225.978,221.244 226.002 M72.487 227.462 C 72.487 227.646,72.548 227.984,72.621 228.214 C 72.727 228.544,72.755 228.562,72.755 228.297 C 72.755 228.114,72.695 227.775,72.621 227.546 C 72.515 227.215,72.487 227.198,72.487 227.462 M72.807 228.881 C 72.801 229.019,72.937 229.658,73.111 230.301 C 73.284 230.943,73.431 231.356,73.437 231.219 C 73.443 231.081,73.306 230.442,73.133 229.800 C 72.960 229.157,72.813 228.744,72.807 228.881 M73.727 232.721 C 73.785 233.043,73.899 233.456,73.979 233.639 C 74.079 233.869,74.092 233.790,74.019 233.389 C 73.961 233.068,73.848 232.654,73.767 232.471 C 73.667 232.242,73.654 232.320,73.727 232.721 M74.228 234.558 C 74.286 234.879,74.400 235.292,74.480 235.476 C 74.580 235.705,74.593 235.626,74.520 235.225 C 74.462 234.904,74.348 234.491,74.268 234.307 C 74.168 234.078,74.155 234.156,74.228 234.558 M74.648 236.060 C 74.648 236.198,74.712 236.461,74.791 236.644 C 74.882 236.855,74.935 236.886,74.935 236.728 C 74.935 236.590,74.870 236.327,74.791 236.144 C 74.701 235.933,74.648 235.902,74.648 236.060 M75.149 237.730 C 75.149 237.867,75.213 238.130,75.292 238.314 C 75.383 238.524,75.436 238.555,75.436 238.397 C 75.436 238.260,75.371 237.997,75.292 237.813 C 75.202 237.603,75.149 237.572,75.149 237.730 M76.139 240.830 C 76.122 241.082,76.652 242.603,76.729 242.525 C 76.765 242.490,76.649 242.054,76.472 241.556 C 76.296 241.058,76.146 240.732,76.139 240.830 M77.224 244.073 C 77.286 244.303,77.406 244.604,77.491 244.741 C 77.598 244.915,77.611 244.864,77.534 244.574 C 77.472 244.345,77.352 244.044,77.267 243.907 C 77.160 243.732,77.147 243.783,77.224 244.073 M144.491 251.586 C 144.849 251.953,145.180 252.254,145.226 252.254 C 145.272 252.254,145.016 251.953,144.658 251.586 C 144.299 251.219,143.968 250.918,143.922 250.918 C 143.876 250.918,144.132 251.219,144.491 251.586 M80.312 251.836 C 80.312 251.928,80.420 252.191,80.551 252.421 C 80.682 252.650,80.790 252.763,80.790 252.671 C 80.790 252.579,80.682 252.316,80.551 252.087 C 80.420 251.857,80.312 251.745,80.312 251.836 M80.813 253.005 C 80.813 253.097,80.921 253.360,81.052 253.589 C 81.183 253.819,81.290 253.932,81.290 253.840 C 81.290 253.748,81.183 253.485,81.052 253.255 C 80.921 253.026,80.813 252.913,80.813 253.005 M147.329 254.591 C 148.244 255.509,149.030 256.260,149.076 256.260 C 149.121 256.260,148.411 255.509,147.496 254.591 C 146.581 253.673,145.795 252.922,145.749 252.922 C 145.703 252.922,146.414 253.673,147.329 254.591 M81.483 254.508 C 81.483 254.599,81.627 254.937,81.803 255.259 C 81.979 255.580,82.123 255.768,82.123 255.676 C 82.123 255.584,81.979 255.246,81.803 254.925 C 81.627 254.604,81.483 254.416,81.483 254.508 M150.167 257.262 C 150.526 257.629,150.857 257.930,150.902 257.930 C 150.948 257.930,150.693 257.629,150.334 257.262 C 149.975 256.895,149.644 256.594,149.598 256.594 C 149.552 256.594,149.808 256.895,150.167 257.262 M244.199 268.042 C 243.575 268.381,243.613 268.522,244.240 268.197 C 244.516 268.055,244.741 267.902,244.741 267.859 C 244.741 267.751,244.723 267.757,244.199 268.042 M212.563 277.244 C 212.723 277.286,212.986 277.286,213.147 277.244 C 213.308 277.202,213.176 277.167,212.855 277.167 C 212.533 277.167,212.402 277.202,212.563 277.244 M196.536 277.411 C 196.697 277.453,196.960 277.453,197.120 277.411 C 197.281 277.369,197.149 277.334,196.828 277.334 C 196.507 277.334,196.375 277.369,196.536 277.411 M210.478 277.414 C 210.685 277.453,210.986 277.452,211.146 277.410 C 211.305 277.368,211.135 277.336,210.768 277.338 C 210.401 277.339,210.270 277.374,210.478 277.414 M199.127 277.583 C 199.427 277.621,199.877 277.620,200.128 277.582 C 200.379 277.544,200.134 277.513,199.583 277.514 C 199.032 277.515,198.826 277.546,199.127 277.583 M207.307 277.583 C 207.607 277.621,208.058 277.620,208.308 277.582 C 208.559 277.544,208.314 277.513,207.763 277.514 C 207.212 277.515,207.007 277.546,207.307 277.583 M104.508 289.232 C 104.819 289.553,105.111 289.816,105.157 289.816 C 105.203 289.816,104.986 289.553,104.674 289.232 C 104.363 288.911,104.071 288.648,104.025 288.648 C 103.979 288.648,104.196 288.911,104.508 289.232 M108.431 293.322 C 109.714 294.608,110.801 295.659,110.847 295.659 C 110.893 295.659,109.881 294.608,108.598 293.322 C 107.315 292.037,106.227 290.985,106.181 290.985 C 106.136 290.985,107.148 292.037,108.431 293.322 M112.604 297.329 C 112.963 297.696,113.294 297.997,113.340 297.997 C 113.386 297.997,113.130 297.696,112.771 297.329 C 112.413 296.962,112.082 296.661,112.036 296.661 C 111.990 296.661,112.246 296.962,112.604 297.329 M189.357 331.835 C 189.518 331.877,189.781 331.877,189.942 331.835 C 190.102 331.793,189.971 331.758,189.649 331.758 C 189.328 331.758,189.197 331.793,189.357 331.835 M216.736 331.835 C 216.897 331.877,217.160 331.877,217.321 331.835 C 217.481 331.793,217.350 331.758,217.028 331.758 C 216.707 331.758,216.576 331.793,216.736 331.835 M191.194 332.002 C 191.354 332.044,191.617 332.044,191.778 332.002 C 191.939 331.960,191.807 331.925,191.486 331.925 C 191.164 331.925,191.033 331.960,191.194 332.002 M214.985 332.005 C 215.193 332.044,215.493 332.043,215.653 332.001 C 215.813 331.959,215.643 331.927,215.275 331.929 C 214.908 331.930,214.778 331.965,214.985 332.005 M193.114 332.171 C 193.320 332.211,193.658 332.211,193.865 332.171 C 194.071 332.131,193.902 332.099,193.489 332.099 C 193.076 332.099,192.907 332.131,193.114 332.171 M212.896 332.169 C 213.057 332.210,213.320 332.210,213.481 332.169 C 213.641 332.127,213.510 332.092,213.189 332.092 C 212.867 332.092,212.736 332.127,212.896 332.169 M195.868 332.340 C 196.121 332.378,196.534 332.378,196.786 332.340 C 197.039 332.302,196.832 332.270,196.327 332.270 C 195.822 332.270,195.616 332.302,195.868 332.340 M210.061 332.340 C 210.314 332.379,210.690 332.378,210.895 332.338 C 211.101 332.298,210.893 332.267,210.434 332.268 C 209.975 332.269,209.807 332.302,210.061 332.340 M201.210 332.512 C 202.381 332.541,204.297 332.541,205.467 332.512 C 206.638 332.483,205.680 332.460,203.339 332.460 C 200.997 332.460,200.040 332.483,201.210 332.512 " stroke="none" fill="#f7ff00" fill-rule="evenodd"></path></g></svg>