<svg id="svg" version="1.1" xmlns="http://www.w3.org/2000/svg" xmlns:xlink="http://www.w3.org/1999/xlink" width="400" height="401.2448132780083" viewBox="0, 0, 400,401.2448132780083"><g id="svgg"><path id="path0" d="M131.120 64.744 C 100.026 73.739,74.371 81.153,74.110 81.220 L 73.635 81.340 73.708 123.917 C 73.786 169.293,73.756 167.855,74.801 177.593 C 78.213 209.420,88.826 242.027,103.837 266.804 L 104.906 268.568 135.233 268.621 L 165.560 268.674 165.560 265.880 C 165.560 261.555,166.725 259.359,169.753 257.973 L 171.058 257.376 184.025 257.211 C 205.015 256.946,211.910 257.046,213.104 257.634 C 214.654 258.398,215.887 259.626,216.642 261.157 L 217.324 262.541 217.481 271.779 C 217.567 276.860,217.695 286.315,217.765 292.790 L 217.892 304.564 224.107 304.564 L 230.323 304.564 229.592 303.710 C 228.273 302.169,228.160 301.566,228.059 295.528 C 227.972 290.305,227.954 290.116,227.539 289.927 C 226.551 289.476,226.549 288.533,227.536 288.083 C 227.943 287.897,227.968 287.683,228.055 283.519 C 228.179 277.593,228.875 275.935,231.850 274.471 L 232.884 273.963 241.131 273.904 L 249.378 273.845 249.378 267.400 C 249.378 258.285,249.061 258.716,255.750 258.714 L 260.152 258.714 260.882 259.355 C 261.978 260.318,262.059 260.911,262.020 267.698 L 261.985 273.755 265.095 273.812 L 268.204 273.869 269.093 272.464 C 269.581 271.691,270.714 269.868,271.609 268.414 L 273.237 265.769 273.237 194.833 L 273.237 123.897 271.039 123.826 C 268.600 123.747,268.050 123.446,268.050 122.191 C 268.050 121.559,268.865 120.747,269.500 120.747 C 269.803 120.747,269.841 120.591,269.756 119.706 C 269.643 118.528,270.092 117.086,270.761 116.481 C 271.167 116.114,271.139 116.093,269.353 115.455 C 258.447 111.559,245.904 99.215,239.417 85.996 C 235.954 78.938,234.492 73.176,234.258 65.666 L 234.129 61.519 211.307 54.933 C 198.755 51.311,188.299 48.357,188.071 48.368 C 187.842 48.379,162.215 55.748,131.120 64.744 M301.037 99.721 C 294.876 107.434,284.673 114.706,278.371 115.877 C 277.943 115.956,277.593 116.049,277.593 116.083 C 277.593 116.117,277.834 116.609,278.129 117.177 C 278.537 117.964,278.663 118.510,278.658 119.478 C 278.653 120.694,278.674 120.747,279.170 120.747 C 279.801 120.747,280.705 121.605,280.705 122.203 C 280.705 123.442,279.809 123.859,277.147 123.859 L 275.311 123.859 275.311 192.884 C 275.311 231.716,275.390 261.823,275.491 261.712 C 275.589 261.603,276.604 259.741,277.745 257.573 C 291.806 230.861,300.392 199.585,302.493 167.427 C 302.680 164.577,302.820 97.950,302.640 97.809 C 302.614 97.789,301.893 98.649,301.037 99.721 M193.468 112.356 C 206.269 114.549,216.251 124.333,218.906 137.289 C 219.323 139.322,219.372 140.282,219.453 147.977 L 219.541 156.432 222.374 156.433 C 229.330 156.436,232.992 158.893,233.810 164.108 C 234.104 165.981,234.100 223.480,233.806 225.293 C 233.336 228.191,231.560 230.573,228.882 231.896 L 227.304 232.676 188.185 232.676 L 149.066 232.676 147.672 232.018 C 145.791 231.130,144.373 229.677,143.402 227.645 L 142.635 226.037 142.635 194.710 L 142.635 163.382 143.105 162.241 C 144.798 158.127,147.477 156.621,153.358 156.476 L 157.027 156.386 157.110 147.332 C 157.201 137.568,157.241 137.168,158.504 133.402 C 163.421 118.741,178.336 109.763,193.468 112.356 M184.751 124.152 C 177.572 125.561,172.189 130.382,169.791 137.552 L 169.201 139.315 169.132 147.873 L 169.062 156.432 188.284 156.432 L 207.506 156.432 207.412 148.392 C 207.310 139.636,207.254 139.133,206.025 135.948 C 202.826 127.650,193.441 122.447,184.751 124.152 M257.915 247.457 L 259.855 250.515 259.855 251.900 C 259.855 254.339,258.118 256.017,255.592 256.017 C 252.742 256.017,250.646 252.944,251.733 250.356 C 252.203 249.236,255.594 244.162,255.791 244.284 C 255.893 244.346,256.849 245.774,257.915 247.457 M188.382 279.447 C 186.206 279.749,181.950 281.375,181.950 281.905 C 181.950 281.991,182.875 282.983,184.006 284.110 L 186.061 286.158 186.735 285.390 C 188.860 282.971,192.679 283.336,194.143 286.100 C 195.171 288.039,194.382 291.062,192.632 291.891 L 192.012 292.184 192.773 292.970 C 193.191 293.403,193.850 294.319,194.237 295.005 C 194.870 296.129,195.090 296.328,196.434 297.000 C 199.433 298.501,199.760 299.660,197.753 301.668 L 196.290 303.130 196.226 305.464 L 196.162 307.797 197.510 307.062 C 201.852 304.697,204.979 299.333,204.979 294.251 C 204.979 285.373,196.998 278.254,188.382 279.447 M189.785 309.068 C 190.043 309.118,190.416 309.116,190.614 309.064 C 190.813 309.012,190.602 308.971,190.145 308.973 C 189.689 308.976,189.527 309.018,189.785 309.068 " stroke="none" fill="#3384f9" fill-rule="evenodd"></path><path id="path1" d="M270.436 20.117 C 245.816 23.025,229.048 50.058,235.764 76.013 C 240.051 92.582,255.349 110.449,269.533 115.454 L 271.120 116.014 270.477 117.048 C 269.911 117.960,269.837 118.253,269.857 119.519 C 269.878 120.903,269.861 120.954,269.379 120.954 C 268.210 120.954,267.716 122.203,268.517 123.134 L 268.984 123.677 274.350 123.675 C 279.084 123.672,279.762 123.631,280.102 123.323 C 281.159 122.367,280.569 120.965,279.107 120.958 L 278.443 120.954 278.559 119.969 C 278.705 118.730,278.361 117.425,277.673 116.607 C 277.143 115.977,277.143 115.975,277.601 115.975 C 280.067 115.975,287.899 111.933,292.239 108.420 C 310.644 93.522,318.481 69.749,311.705 49.378 C 305.472 30.640,287.746 18.072,270.436 20.117 M178.762 318.074 C 178.450 318.518,178.521 319.066,178.927 319.343 C 179.049 319.427,181.348 319.497,184.035 319.499 C 189.166 319.502,189.419 319.459,189.419 318.568 C 189.419 317.678,189.167 317.635,183.995 317.635 C 179.215 317.635,179.060 317.648,178.762 318.074 M178.838 323.237 C 178.339 323.736,178.312 324.133,178.749 324.570 C 179.320 325.141,200.829 325.056,201.349 324.480 C 202.664 323.028,200.812 322.823,186.359 322.822 C 179.529 322.822,179.237 322.838,178.838 323.237 M178.838 328.631 C 178.610 328.859,178.423 329.139,178.423 329.253 C 178.423 330.231,178.865 330.290,186.113 330.290 C 193.508 330.290,193.776 330.254,193.776 329.253 C 193.776 328.252,193.508 328.216,186.113 328.216 C 179.530 328.216,179.236 328.232,178.838 328.631 " stroke="none" fill="#eb1819" fill-rule="evenodd"></path><path id="path2" d="M0.000 200.622 L 0.000 401.245 200.000 401.245 L 400.000 401.245 400.000 200.622 L 400.000 0.000 200.000 0.000 L 0.000 0.000 0.000 200.622 M279.357 20.253 C 293.980 22.507,306.720 34.008,311.830 49.568 C 316.690 64.370,314.142 80.496,304.682 94.804 L 302.905 97.492 302.903 129.400 C 302.902 161.970,302.835 165.491,302.061 173.927 C 299.253 204.544,290.091 235.436,276.534 259.996 L 275.311 262.211 275.311 267.931 L 275.311 273.651 274.382 273.651 L 273.453 273.651 273.397 269.665 L 273.340 265.678 272.107 267.746 C 271.429 268.883,270.284 270.724,269.562 271.836 L 268.249 273.859 265.038 273.859 L 261.826 273.859 261.825 267.272 C 261.824 258.324,262.103 258.714,255.705 258.714 C 249.271 258.714,249.585 258.282,249.585 267.133 L 249.585 273.837 241.338 273.900 L 233.091 273.963 231.917 274.539 C 228.920 276.011,228.338 277.410,228.253 283.351 C 228.176 288.728,227.933 288.383,230.790 286.949 C 234.694 284.991,237.635 285.032,241.150 287.092 C 243.130 288.251,244.266 288.244,246.508 287.056 C 250.453 284.966,253.082 284.970,257.050 287.072 C 259.273 288.250,260.439 288.251,262.387 287.075 C 265.740 285.053,268.940 284.993,272.567 286.885 C 275.131 288.223,276.042 288.220,278.668 286.867 C 281.795 285.255,284.405 285.058,284.603 286.419 C 284.718 287.207,284.195 287.571,282.675 287.759 C 281.569 287.897,280.806 288.168,279.364 288.937 C 276.573 290.424,274.654 290.414,271.810 288.899 L 269.864 287.863 267.660 287.863 C 265.625 287.863,265.369 287.909,264.315 288.468 C 261.443 289.991,261.614 289.938,259.647 289.938 C 257.794 289.938,257.766 289.930,255.913 288.900 L 254.046 287.863 251.763 287.863 L 249.481 287.863 247.614 288.900 C 245.759 289.931,245.735 289.938,243.872 289.938 C 242.022 289.938,241.971 289.924,240.034 288.900 L 238.071 287.863 235.888 287.863 L 233.705 287.863 231.559 288.952 C 230.379 289.551,229.138 290.041,228.802 290.041 L 228.191 290.041 228.255 295.695 C 228.327 301.974,228.395 302.328,229.864 304.001 L 230.536 304.766 224.202 304.821 L 217.869 304.876 222.306 309.440 C 224.746 311.950,226.748 314.163,226.753 314.358 C 226.762 314.660,227.000 314.713,228.371 314.717 C 230.437 314.723,231.494 315.063,233.486 316.364 C 236.588 318.389,238.695 318.387,241.644 316.358 C 244.891 314.124,248.229 314.138,251.674 316.399 C 254.709 318.392,256.753 318.381,259.693 316.358 C 262.918 314.140,266.412 314.138,269.662 316.354 C 272.598 318.356,274.661 318.368,277.681 316.401 C 281.238 314.083,284.346 314.072,287.723 316.365 C 290.676 318.371,292.871 318.369,295.793 316.358 C 298.714 314.349,302.353 314.117,301.762 315.978 C 301.635 316.379,300.887 316.667,299.351 316.905 C 298.936 316.969,298.003 317.408,297.276 317.879 C 293.216 320.514,290.427 320.580,286.647 318.131 C 283.952 316.385,281.763 316.267,279.473 317.743 C 275.314 320.424,272.485 320.603,269.114 318.400 C 265.558 316.075,263.813 316.122,259.789 318.650 C 256.897 320.467,253.753 320.297,250.568 318.152 C 247.536 316.111,245.554 316.206,241.891 318.567 C 238.888 320.503,235.832 320.327,232.314 318.016 L 230.629 316.909 228.748 316.909 L 226.867 316.909 226.814 334.064 L 226.761 351.219 226.088 351.304 C 225.718 351.351,241.053 351.381,260.166 351.369 L 294.917 351.349 296.292 350.699 C 297.648 350.058,297.683 350.020,298.860 347.942 C 299.516 346.783,300.101 345.883,300.160 345.942 C 300.362 346.143,299.541 347.951,298.818 348.898 L 298.096 349.845 299.092 350.856 L 300.088 351.867 166.223 351.867 L 32.359 351.867 30.858 350.629 C 28.671 348.824,27.593 346.939,27.593 344.915 L 27.593 343.983 46.258 343.983 L 64.922 343.983 65.143 344.804 C 65.849 347.425,66.200 347.510,76.309 347.510 C 85.975 347.510,86.079 347.493,87.082 345.731 C 88.040 344.047,87.954 343.983,84.681 343.983 C 83.102 343.983,78.993 343.922,75.550 343.846 L 69.290 343.709 69.344 308.940 L 69.398 274.170 69.978 272.990 C 70.720 271.478,72.444 269.889,74.015 269.267 L 75.207 268.795 89.990 268.716 C 98.120 268.672,104.772 268.607,104.772 268.571 C 104.772 268.534,104.086 267.352,103.249 265.943 C 86.557 237.869,75.849 201.792,73.854 166.909 C 73.701 164.243,73.649 149.734,73.692 122.107 L 73.755 81.248 130.988 64.717 L 188.222 48.187 211.155 54.802 C 223.768 58.440,234.105 61.392,234.126 61.362 C 234.146 61.332,234.278 60.280,234.418 59.025 C 237.124 34.825,257.855 16.938,279.357 20.253 M183.889 112.268 C 170.861 114.141,160.591 123.803,157.629 136.975 C 157.236 138.722,157.187 139.721,157.109 147.754 L 157.023 156.608 153.045 156.675 L 149.066 156.743 147.718 157.405 C 145.099 158.690,143.193 161.260,142.746 164.108 C 142.462 165.916,142.460 223.209,142.744 225.171 C 143.261 228.747,145.772 231.548,149.281 232.462 C 151.006 232.911,225.413 232.943,227.075 232.496 C 230.341 231.615,232.464 229.623,233.424 226.537 C 234.035 224.574,234.037 164.852,233.427 162.889 C 232.029 158.397,229.417 156.780,223.392 156.675 L 219.502 156.607 219.500 150.036 C 219.496 138.728,218.835 134.749,216.028 129.149 C 210.110 117.341,196.893 110.398,183.889 112.268 M192.212 124.175 C 198.667 125.508,204.324 130.532,206.389 136.763 C 207.374 139.736,207.466 140.773,207.467 149.016 L 207.469 156.641 188.226 156.588 L 168.983 156.535 168.988 148.340 C 168.993 140.433,169.010 140.083,169.473 138.382 C 172.216 128.291,182.135 122.094,192.212 124.175 M190.323 173.967 C 201.978 175.256,205.123 191.836,194.865 197.912 L 193.361 198.802 193.361 204.795 L 193.361 210.788 188.174 210.788 L 182.988 210.788 182.987 204.720 L 182.987 198.651 181.794 198.040 C 175.077 194.598,173.224 184.938,178.074 178.649 C 180.342 175.709,185.396 173.363,188.589 173.767 C 188.874 173.803,189.655 173.894,190.323 173.967 M172.303 266.778 C 171.347 267.215,170.255 268.266,169.933 269.059 C 169.720 269.585,169.938 269.837,175.678 275.703 L 181.644 281.800 183.613 280.849 C 194.975 275.360,207.520 285.347,204.675 297.617 C 203.162 304.141,196.870 309.129,190.154 309.129 L 188.797 309.129 188.797 313.382 C 188.797 316.147,188.871 317.635,189.009 317.635 C 189.521 317.635,189.659 318.734,189.221 319.326 C 188.888 319.777,188.797 320.214,188.797 321.361 L 188.797 322.822 194.885 322.822 C 201.556 322.822,201.800 322.868,201.625 324.096 C 201.493 325.015,200.921 325.097,194.658 325.101 L 188.797 325.104 188.797 326.660 L 188.797 328.216 191.064 328.216 C 193.460 328.216,193.983 328.402,193.983 329.253 C 193.983 330.105,193.460 330.290,191.064 330.290 L 188.797 330.290 188.797 337.137 L 188.797 343.983 197.873 343.979 C 208.138 343.974,207.957 343.999,209.375 342.343 C 210.704 340.791,210.638 342.914,210.539 304.938 C 210.438 266.339,210.562 269.445,209.066 267.869 C 207.589 266.312,208.720 266.399,189.938 266.399 C 174.104 266.399,173.085 266.421,172.303 266.778 M75.519 273.407 C 73.240 274.439,73.426 271.382,73.491 306.676 C 73.555 341.288,73.400 337.918,74.976 339.095 L 75.549 339.523 119.656 339.576 L 163.763 339.629 164.654 339.198 C 165.178 338.945,165.740 338.453,166.019 338.004 L 166.494 337.241 166.494 306.432 C 166.494 271.710,166.642 274.846,164.948 273.704 L 164.254 273.237 120.042 273.251 C 95.725 273.259,75.690 273.329,75.519 273.407 M188.693 284.068 C 185.703 285.113,185.765 285.862,189.117 289.221 C 192.401 292.511,192.071 292.325,193.075 291.444 C 196.673 288.284,193.227 282.483,188.693 284.068 M149.117 295.962 C 151.443 296.934,151.452 296.978,151.452 307.263 C 151.452 316.545,151.451 316.559,150.442 317.709 C 149.337 318.967,151.466 318.889,119.750 318.830 L 90.945 318.776 90.223 318.281 C 89.826 318.009,89.272 317.449,88.993 317.036 L 88.485 316.286 88.485 307.261 L 88.485 298.237 88.997 297.510 C 89.615 296.632,89.953 296.334,90.768 295.952 C 91.749 295.491,148.013 295.501,149.117 295.962 M193.983 300.087 C 193.983 302.207,194.036 303.942,194.100 303.942 C 195.319 303.942,198.963 300.839,198.963 299.801 C 198.963 298.613,196.712 296.823,194.658 296.379 L 193.983 296.233 193.983 300.087 M91.577 298.013 C 90.646 298.420,90.664 298.240,90.664 307.382 C 90.664 316.610,90.632 316.380,91.955 316.702 C 92.215 316.765,105.016 316.791,120.402 316.759 L 148.376 316.701 148.884 316.111 L 149.391 315.521 149.332 307.144 L 149.274 298.766 148.801 298.294 L 148.329 297.822 120.274 297.777 C 97.048 297.739,92.109 297.780,91.577 298.013 M282.497 302.346 C 282.197 302.959,281.763 303.632,281.532 303.841 C 281.270 304.078,281.446 303.630,281.998 302.648 C 283.005 300.860,283.317 300.672,282.497 302.346 M101.245 304.876 C 101.245 305.845,101.274 306.639,101.309 306.639 C 101.345 306.639,101.970 306.405,102.699 306.120 C 104.136 305.557,104.283 305.595,104.480 306.581 L 104.611 307.235 103.136 307.683 C 102.158 307.980,101.708 308.212,101.802 308.371 C 101.881 308.502,102.317 309.107,102.772 309.714 L 103.600 310.819 102.993 311.315 C 102.192 311.970,102.281 312.015,101.342 310.478 C 100.344 308.843,100.439 308.848,99.498 310.373 C 98.662 311.728,98.494 311.807,97.720 311.213 L 97.204 310.816 97.705 310.128 C 97.981 309.749,98.433 309.138,98.710 308.769 L 99.214 308.098 98.657 307.886 C 98.350 307.769,97.687 307.570,97.182 307.443 C 96.171 307.188,96.169 307.185,96.493 306.255 C 96.767 305.470,96.708 305.474,98.421 306.119 L 99.795 306.636 99.662 305.201 C 99.491 303.361,99.592 303.112,100.512 303.112 L 101.245 303.112 101.245 304.876 M112.241 304.874 L 112.241 306.635 113.626 306.114 C 115.125 305.550,115.239 305.578,115.448 306.574 L 115.587 307.236 114.116 307.674 C 113.103 307.976,112.690 308.190,112.792 308.361 C 112.873 308.498,113.307 309.111,113.756 309.724 L 114.572 310.837 113.977 311.324 C 113.198 311.961,113.292 312.004,112.371 310.576 C 111.309 308.927,111.366 308.930,110.388 310.479 L 109.534 311.831 108.916 311.374 C 108.136 310.797,108.126 310.861,109.226 309.367 C 109.736 308.674,110.086 308.068,110.004 308.019 C 109.922 307.970,109.263 307.765,108.539 307.563 C 107.236 307.200,107.224 307.189,107.350 306.561 C 107.545 305.584,107.739 305.518,109.013 305.994 C 110.624 306.597,110.581 306.630,110.581 304.772 L 110.581 303.112 111.411 303.112 L 112.241 303.112 112.241 304.874 M123.237 304.874 L 123.237 306.635 124.610 306.119 C 125.365 305.834,126.009 305.602,126.042 305.602 C 126.118 305.602,126.556 306.857,126.556 307.076 C 126.556 307.168,125.902 307.438,125.104 307.676 C 123.382 308.189,123.433 308.001,124.588 309.570 L 125.525 310.843 124.859 311.334 C 124.493 311.605,124.173 311.826,124.148 311.826 C 124.124 311.826,123.720 311.219,123.252 310.477 C 122.220 308.844,122.385 308.844,121.354 310.478 L 120.501 311.827 119.898 311.397 C 119.120 310.843,119.133 310.728,120.124 309.416 C 121.193 308.000,121.196 308.011,119.583 307.574 L 118.212 307.203 118.330 306.480 C 118.492 305.479,118.487 305.481,120.119 306.062 L 121.577 306.582 121.577 304.847 L 121.577 303.112 122.407 303.112 L 123.237 303.112 123.237 304.874 M134.158 304.876 C 134.083 305.845,134.068 306.639,134.123 306.639 C 134.178 306.639,134.843 306.406,135.601 306.120 C 136.359 305.835,137.004 305.602,137.035 305.602 C 137.067 305.602,137.148 305.826,137.217 306.101 C 137.286 306.376,137.398 306.744,137.465 306.920 C 137.561 307.171,137.248 307.339,136.024 307.695 L 134.460 308.149 135.417 309.393 C 136.428 310.706,136.443 310.960,135.546 311.555 C 135.147 311.820,135.063 311.751,134.234 310.480 C 133.242 308.958,133.210 308.959,132.261 310.560 C 131.564 311.736,131.405 311.798,130.637 311.194 L 130.098 310.770 131.024 309.511 C 132.153 307.977,132.152 308.024,131.068 307.734 C 129.114 307.211,129.051 307.162,129.304 306.339 C 129.573 305.462,129.514 305.469,131.219 306.111 L 132.573 306.620 132.573 304.866 L 132.573 303.112 133.433 303.112 L 134.294 303.112 134.158 304.876 M313.436 338.694 C 323.411 341.046,324.904 354.804,315.664 359.224 C 313.139 360.431,315.853 360.373,261.660 360.377 C 219.056 360.380,211.094 360.426,209.922 360.674 C 203.947 361.941,200.303 367.861,201.777 373.911 C 201.913 374.470,201.897 374.481,200.967 374.481 C 199.806 374.481,199.689 374.140,199.689 370.747 C 199.689 365.578,202.627 361.325,207.676 359.182 L 209.025 358.610 260.996 358.506 C 309.309 358.410,313.029 358.378,313.847 358.049 C 321.720 354.889,322.160 344.609,314.576 341.017 L 313.174 340.353 306.795 340.290 L 300.415 340.227 300.415 339.304 L 300.415 338.382 306.276 338.385 C 310.710 338.387,312.453 338.462,313.436 338.694 M201.714 374.835 C 201.459 374.884,200.992 374.885,200.677 374.838 C 200.362 374.790,200.571 374.750,201.141 374.748 C 201.712 374.747,201.970 374.786,201.714 374.835 M202.697 375.985 C 203.499 377.427,205.681 379.541,207.114 380.266 C 209.526 381.485,210.235 381.535,225.115 381.535 C 238.194 381.535,238.581 381.547,238.789 381.935 C 239.553 383.364,239.185 383.403,224.831 383.398 C 209.459 383.393,208.726 383.324,205.717 381.575 C 203.557 380.319,200.415 376.621,200.415 375.334 C 200.415 374.597,202.209 375.109,202.697 375.985 " stroke="none" fill="#fafafa" fill-rule="evenodd"></path><path id="path3" d="M270.287 123.805 C 270.890 123.847,271.824 123.846,272.362 123.804 C 272.900 123.761,272.407 123.727,271.266 123.727 C 270.124 123.728,269.684 123.763,270.287 123.805 M276.400 123.804 C 276.942 123.847,277.829 123.847,278.371 123.804 C 278.913 123.761,278.470 123.726,277.386 123.726 C 276.302 123.726,275.858 123.761,276.400 123.804 M185.477 174.167 C 174.033 176.747,171.717 192.656,182.003 198.029 L 183.194 198.651 183.195 204.720 L 183.195 210.788 188.278 210.788 L 193.361 210.788 193.361 204.683 L 193.361 198.577 194.243 198.136 C 207.335 191.583,199.786 170.942,185.477 174.167 M179.794 283.662 C 168.820 294.564,180.118 313.205,194.710 308.271 L 196.162 307.780 196.220 305.454 L 196.279 303.128 194.956 303.747 C 190.500 305.832,185.640 304.892,182.368 301.312 C 181.211 300.046,181.145 299.783,181.743 298.803 C 183.280 296.283,189.312 294.819,193.568 295.933 C 194.196 296.097,194.742 296.198,194.783 296.157 C 194.916 296.025,193.615 293.899,192.908 293.091 L 192.220 292.306 191.112 292.520 C 187.921 293.139,185.221 290.478,185.864 287.347 L 186.098 286.209 183.976 284.080 C 181.439 281.534,181.891 281.579,179.794 283.662 M91.294 295.885 C 88.637 296.654,88.589 296.855,88.589 307.308 C 88.589 317.235,88.547 316.956,90.236 318.154 L 91.114 318.776 119.435 318.831 C 149.362 318.889,148.822 318.905,150.020 317.897 C 151.428 316.713,151.443 316.602,151.448 307.307 C 151.453 297.521,151.403 297.265,149.274 296.090 C 148.531 295.680,92.684 295.483,91.294 295.885 M148.868 298.227 L 149.378 298.736 149.378 307.261 L 149.378 315.786 148.868 316.296 L 148.359 316.805 119.978 316.798 C 97.996 316.793,91.523 316.735,91.268 316.539 C 90.490 315.941,90.456 315.560,90.456 307.187 L 90.456 298.994 90.994 298.356 L 91.531 297.718 119.945 297.718 L 148.359 297.718 148.868 298.227 M99.793 304.979 C 99.793 306.864,99.877 306.808,98.069 306.128 L 96.710 305.616 96.572 306.246 C 96.397 307.041,96.432 307.072,98.053 307.573 L 99.397 307.988 98.454 309.281 C 97.357 310.785,97.345 310.840,98.024 311.285 C 98.535 311.620,98.540 311.616,99.455 310.252 L 100.374 308.883 101.256 310.199 C 101.742 310.922,102.168 311.551,102.204 311.594 C 102.307 311.721,103.320 311.006,103.320 310.806 C 103.320 310.707,102.902 310.060,102.392 309.367 C 101.882 308.674,101.532 308.074,101.614 308.032 C 101.696 307.990,102.370 307.782,103.112 307.571 C 103.854 307.359,104.484 307.172,104.513 307.154 C 104.641 307.075,104.091 305.809,103.929 305.809 C 103.831 305.809,103.276 305.996,102.697 306.224 C 101.080 306.861,101.093 306.871,101.202 304.979 L 101.298 303.320 100.545 303.320 L 99.793 303.320 99.793 304.979 M110.788 304.979 C 110.788 306.863,110.870 306.807,109.080 306.134 L 107.738 305.628 107.519 306.341 L 107.300 307.054 108.733 307.489 C 110.430 308.004,110.409 307.922,109.239 309.512 L 108.313 310.770 108.920 311.202 L 109.527 311.635 110.384 310.277 C 111.365 308.724,111.342 308.723,112.347 310.378 C 113.190 311.766,113.183 311.762,113.898 311.213 L 114.414 310.816 113.913 310.128 C 113.637 309.749,113.185 309.138,112.908 308.769 L 112.404 308.098 112.893 307.916 C 113.162 307.816,113.861 307.613,114.447 307.465 C 115.497 307.199,115.510 307.186,115.335 306.578 C 115.083 305.697,115.102 305.700,113.464 306.307 L 111.975 306.859 112.119 305.089 L 112.262 303.320 111.525 303.320 L 110.788 303.320 110.788 304.979 M121.741 304.979 C 121.852 306.884,121.915 306.841,120.041 306.135 L 118.702 305.632 118.477 306.278 C 118.204 307.062,118.239 307.095,119.865 307.570 C 121.409 308.022,121.374 307.845,120.236 309.440 C 119.375 310.646,119.335 310.759,119.665 311.043 C 120.387 311.662,120.494 311.613,121.371 310.268 C 122.424 308.652,122.182 308.651,123.237 310.270 C 124.217 311.774,124.186 311.756,124.875 311.227 L 125.372 310.844 124.401 309.484 C 123.868 308.736,123.504 308.080,123.593 308.027 C 123.682 307.973,124.347 307.765,125.071 307.563 C 126.369 307.201,126.386 307.187,126.262 306.569 C 126.085 305.686,126.099 305.688,124.459 306.294 L 122.977 306.840 123.070 305.080 L 123.162 303.320 122.404 303.320 L 121.645 303.320 121.741 304.979 M132.627 304.979 C 132.756 306.860,132.827 306.809,131.036 306.135 L 129.698 305.632 129.473 306.278 C 129.200 307.062,129.235 307.095,130.861 307.570 C 132.407 308.022,132.372 307.821,131.192 309.474 C 130.182 310.889,130.183 310.858,131.158 311.417 C 131.445 311.582,131.638 311.400,132.259 310.378 C 133.262 308.727,133.235 308.728,134.203 310.271 C 135.134 311.757,135.167 311.776,135.850 311.207 L 136.327 310.809 135.391 309.523 C 134.280 307.997,134.264 308.049,136.008 307.577 C 137.375 307.207,137.384 307.200,137.259 306.574 C 137.081 305.686,137.094 305.688,135.480 306.284 L 134.025 306.821 134.025 305.070 L 134.025 303.320 133.269 303.320 L 132.513 303.320 132.627 304.979 " stroke="none" fill="#2764be" fill-rule="evenodd"></path><path id="path4" d="M253.838 246.997 C 251.055 251.313,250.843 252.553,252.551 254.499 C 255.278 257.605,260.533 255.256,259.853 251.235 C 259.746 250.602,256.560 245.160,255.813 244.335 C 255.730 244.244,254.842 245.442,253.838 246.997 M233.195 285.966 C 232.682 286.105,231.550 286.612,230.680 287.093 C 229.810 287.573,228.859 287.967,228.567 287.967 C 227.516 287.967,226.971 288.321,226.971 289.003 C 226.971 290.366,229.179 290.329,231.494 288.928 C 234.426 287.153,236.636 287.131,240.041 288.843 C 243.214 290.438,244.598 290.429,247.683 288.793 L 249.826 287.656 251.734 287.656 C 253.639 287.656,253.645 287.657,255.815 288.783 C 258.969 290.420,260.336 290.427,263.510 288.827 C 266.815 287.160,269.124 287.154,271.828 288.808 C 274.453 290.413,276.265 290.411,279.411 288.802 C 280.935 288.022,281.763 287.729,282.732 287.628 C 284.170 287.478,284.501 287.228,284.403 286.371 L 284.336 285.788 282.643 285.795 C 281.020 285.802,280.860 285.847,278.804 286.885 C 275.903 288.348,275.341 288.347,272.426 286.878 L 270.266 285.788 267.654 285.796 C 264.850 285.803,264.595 285.876,261.829 287.440 C 260.282 288.316,259.095 288.192,256.479 286.882 C 252.962 285.121,249.618 285.221,246.428 287.184 C 244.680 288.260,243.206 288.255,241.190 287.168 C 238.488 285.710,235.691 285.289,233.195 285.966 M226.708 314.956 C 225.738 315.185,224.553 315.783,223.047 316.804 C 221.755 317.681,219.967 318.156,218.789 317.935 L 218.050 317.796 218.050 318.753 L 218.050 319.710 219.658 319.705 C 221.510 319.699,222.753 319.266,224.859 317.891 C 227.700 316.037,229.799 316.147,232.968 318.318 C 235.891 320.320,239.147 320.282,242.380 318.209 C 245.722 316.064,247.462 316.035,250.632 318.069 C 254.165 320.335,257.035 320.386,260.377 318.242 C 263.761 316.072,265.702 316.033,268.708 318.074 C 272.015 320.320,275.156 320.376,278.423 318.250 C 281.798 316.053,283.502 316.018,286.737 318.079 C 290.273 320.331,293.196 320.383,296.473 318.250 C 298.186 317.135,299.496 316.598,300.503 316.598 C 301.536 316.598,302.072 315.641,301.411 314.979 C 300.811 314.379,298.398 314.895,296.643 315.997 C 292.721 318.461,290.937 318.546,287.686 316.423 C 284.476 314.327,281.544 314.183,278.619 315.978 C 274.542 318.479,272.674 318.552,269.452 316.335 C 266.409 314.242,263.135 314.217,259.972 316.264 C 257.990 317.546,257.778 317.644,256.594 317.831 C 254.919 318.096,253.415 317.679,251.491 316.415 C 248.064 314.166,245.198 314.161,241.708 316.397 C 238.424 318.503,236.627 318.496,233.369 316.365 C 231.086 314.871,228.970 314.423,226.708 314.956 " stroke="none" fill="#f9bc08" fill-rule="evenodd"></path><path id="path5" d="M302.798 127.386 C 302.798 143.874,302.823 150.620,302.853 142.376 C 302.883 134.131,302.883 120.641,302.853 112.396 C 302.823 104.152,302.798 110.897,302.798 127.386 M251.763 103.320 C 252.325 103.890,252.832 104.357,252.889 104.357 C 252.946 104.357,252.533 103.890,251.971 103.320 C 251.409 102.749,250.903 102.282,250.845 102.282 C 250.788 102.282,251.202 102.749,251.763 103.320 M187.500 111.976 C 187.871 112.022,188.478 112.022,188.849 111.976 C 189.219 111.930,188.916 111.892,188.174 111.892 C 187.433 111.892,187.129 111.930,187.500 111.976 M209.950 120.799 C 210.459 121.341,210.902 121.784,210.935 121.784 C 211.091 121.784,210.926 121.598,210.010 120.738 L 209.025 119.813 209.950 120.799 M152.127 156.586 C 153.011 156.625,154.458 156.625,155.342 156.586 C 156.227 156.547,155.503 156.515,153.734 156.515 C 151.966 156.515,151.242 156.547,152.127 156.586 M178.563 156.587 C 183.832 156.618,192.515 156.618,197.858 156.587 C 203.201 156.556,198.890 156.531,188.278 156.531 C 177.666 156.531,173.294 156.556,178.563 156.587 M221.006 156.586 C 221.891 156.625,223.338 156.625,224.222 156.586 C 225.106 156.547,224.383 156.515,222.614 156.515 C 220.845 156.515,220.122 156.547,221.006 156.586 M302.759 160.581 C 302.759 161.209,302.798 161.465,302.846 161.151 C 302.893 160.838,302.893 160.324,302.846 160.010 C 302.798 159.697,302.759 159.953,302.759 160.581 M73.700 163.693 C 73.700 164.092,73.742 164.256,73.794 164.056 C 73.847 163.856,73.847 163.530,73.794 163.330 C 73.742 163.130,73.700 163.294,73.700 163.693 M233.918 194.710 C 233.918 211.141,233.943 217.832,233.973 209.579 C 234.003 201.326,234.003 187.882,233.973 179.704 C 233.943 171.525,233.918 178.278,233.918 194.710 M191.234 257.209 C 192.290 257.246,194.017 257.246,195.073 257.209 C 196.128 257.171,195.265 257.140,193.154 257.140 C 191.043 257.140,190.179 257.171,191.234 257.209 M208.854 257.339 C 210.846 257.993,212.726 259.785,213.516 261.784 C 214.064 263.170,213.995 258.874,214.309 310.996 C 214.475 338.531,214.463 344.711,214.238 345.674 C 213.739 347.814,212.456 349.470,210.498 350.502 L 209.482 351.037 210.723 351.037 C 213.622 351.037,216.055 349.591,217.353 347.095 L 217.946 345.954 217.924 331.950 C 217.908 321.928,217.967 317.903,218.132 317.794 C 218.291 317.688,218.282 317.640,218.102 317.638 C 217.900 317.636,217.842 316.209,217.842 311.206 L 217.842 304.778 224.118 304.720 L 230.394 304.662 224.143 304.613 L 217.892 304.564 217.765 292.790 C 217.695 286.315,217.567 276.860,217.481 271.779 L 217.324 262.541 216.642 261.157 C 215.309 258.452,213.277 257.203,210.062 257.113 C 208.059 257.056,208.017 257.064,208.854 257.339 M182.069 261.529 C 181.680 261.918,181.647 262.477,181.992 262.822 C 182.415 263.245,199.039 263.172,199.467 262.745 C 199.894 262.317,199.878 261.968,199.413 261.547 C 198.851 261.038,182.576 261.022,182.069 261.529 M261.917 267.116 C 261.917 270.425,261.946 271.750,261.981 270.060 C 262.016 268.370,262.016 265.662,261.981 264.043 C 261.946 262.424,261.917 263.807,261.917 267.116 M166.742 269.390 C 168.123 270.098,169.366 271.376,170.080 272.822 L 170.643 273.963 170.697 308.973 L 170.750 343.983 150.134 343.983 L 129.517 343.983 129.412 345.280 C 129.215 347.712,127.711 349.909,125.480 351.024 L 124.208 351.660 145.469 351.660 C 167.651 351.660,168.192 351.640,169.223 350.800 C 169.377 350.674,169.908 350.755,170.720 351.028 C 171.895 351.424,172.426 351.450,178.676 351.416 C 182.360 351.396,184.977 351.344,184.492 351.300 L 183.610 351.221 183.610 347.602 L 183.610 343.983 180.911 343.983 L 178.212 343.983 178.218 323.520 L 178.224 303.057 177.609 302.098 C 174.490 297.238,174.589 290.451,177.846 285.834 C 178.214 285.312,178.251 284.924,178.228 281.788 L 178.202 278.320 174.126 274.235 C 169.688 269.787,168.776 269.124,166.852 268.946 L 165.664 268.837 166.742 269.390 M228.095 284.129 C 228.095 286.297,228.126 287.155,228.163 286.037 C 228.200 284.918,228.200 283.145,228.163 282.095 C 228.125 281.045,228.095 281.961,228.095 284.129 M185.819 287.604 C 185.754 287.975,185.781 288.605,185.879 289.004 C 186.035 289.641,186.060 289.559,186.078 288.330 C 186.101 286.809,186.007 286.543,185.819 287.604 M228.098 294.917 C 228.098 297.656,228.127 298.747,228.163 297.343 C 228.199 295.939,228.199 293.698,228.163 292.364 C 228.127 291.029,228.098 292.178,228.098 294.917 M186.515 290.729 C 186.515 290.765,186.818 291.068,187.189 291.403 L 187.863 292.012 187.254 291.338 C 186.686 290.710,186.515 290.569,186.515 290.729 M189.785 295.582 C 190.043 295.632,190.416 295.630,190.614 295.578 C 190.813 295.526,190.602 295.486,190.145 295.488 C 189.689 295.490,189.527 295.533,189.785 295.582 M184.787 296.673 C 182.609 297.603,181.328 298.784,181.328 299.864 C 181.328 300.596,185.098 303.942,185.924 303.942 C 186.021 303.942,186.100 302.223,186.100 300.121 C 186.100 297.258,186.165 296.274,186.359 296.195 C 186.502 296.138,186.525 296.086,186.411 296.080 C 186.297 296.074,185.566 296.341,184.787 296.673 M88.476 307.261 C 88.476 311.883,88.504 313.773,88.537 311.463 C 88.570 309.152,88.570 305.371,88.537 303.060 C 88.504 300.749,88.476 302.640,88.476 307.261 M110.664 303.403 C 110.602 303.564,110.590 304.007,110.637 304.389 C 110.715 305.024,110.725 305.009,110.755 304.214 C 110.787 303.369,110.811 303.342,111.566 303.263 L 112.344 303.182 111.560 303.147 C 111.052 303.124,110.736 303.215,110.664 303.403 M121.940 303.258 C 122.197 303.308,122.617 303.308,122.873 303.258 C 123.130 303.209,122.920 303.169,122.407 303.169 C 121.893 303.169,121.683 303.209,121.940 303.258 M133.193 303.258 C 133.592 303.310,133.995 303.462,134.091 303.596 C 134.209 303.761,134.237 303.739,134.180 303.527 C 134.126 303.324,133.814 303.207,133.283 303.189 C 132.503 303.164,132.499 303.167,133.193 303.258 M121.645 305.290 C 121.646 306.089,121.683 306.391,121.728 305.960 C 121.773 305.530,121.772 304.876,121.727 304.508 C 121.681 304.140,121.644 304.492,121.645 305.290 M123.088 304.876 C 123.090 305.446,123.130 305.655,123.178 305.339 C 123.226 305.024,123.224 304.557,123.175 304.302 C 123.126 304.047,123.087 304.305,123.088 304.876 M179.461 304.668 C 179.848 305.067,180.211 305.394,180.268 305.394 C 180.325 305.394,180.055 305.067,179.668 304.668 C 179.281 304.269,178.918 303.942,178.861 303.942 C 178.803 303.942,179.073 304.269,179.461 304.668 M112.095 305.809 C 112.095 306.437,112.134 306.693,112.182 306.380 C 112.229 306.066,112.229 305.552,112.182 305.239 C 112.134 304.925,112.095 305.182,112.095 305.809 " stroke="none" fill="#aab7c2" fill-rule="evenodd"></path><path id="path6" d="M273.237 192.809 C 273.237 230.731,273.298 264.434,273.374 267.705 L 273.511 273.651 274.411 273.651 L 275.311 273.651 275.311 198.755 L 275.311 123.859 274.274 123.859 L 273.237 123.859 273.237 192.809 M168.973 149.378 C 168.973 153.314,169.001 154.925,169.035 152.956 C 169.069 150.988,169.069 147.767,169.035 145.799 C 169.001 143.830,168.973 145.441,168.973 149.378 M302.745 162.241 C 302.745 162.640,302.788 162.803,302.840 162.604 C 302.892 162.404,302.892 162.077,302.840 161.878 C 302.788 161.678,302.745 161.841,302.745 162.241 M178.929 177.645 L 178.320 178.320 178.994 177.710 C 179.365 177.375,179.668 177.072,179.668 177.036 C 179.668 176.876,179.497 177.017,178.929 177.645 M183.079 204.772 C 183.079 208.138,183.108 209.515,183.143 207.832 C 183.178 206.149,183.178 203.395,183.143 201.712 C 183.108 200.029,183.079 201.406,183.079 204.772 M184.129 257.250 C 169.424 257.384,169.974 257.315,167.867 259.294 C 166.103 260.951,165.677 262.167,165.598 265.768 L 165.532 268.776 120.370 268.776 L 75.207 268.776 74.015 269.257 C 72.441 269.893,70.715 271.489,69.978 272.990 L 69.398 274.170 69.344 308.940 L 69.290 343.709 75.550 343.846 C 78.993 343.922,83.102 343.983,84.681 343.983 C 87.954 343.983,88.040 344.047,87.082 345.731 C 86.079 347.493,85.975 347.510,76.309 347.510 C 66.200 347.510,65.849 347.425,65.143 344.804 L 64.922 343.983 46.258 343.983 L 27.593 343.983 27.593 344.915 C 27.593 346.939,28.671 348.824,30.858 350.629 L 32.359 351.867 166.223 351.867 L 300.088 351.867 299.092 350.856 L 298.096 349.845 298.818 348.898 C 299.541 347.951,300.362 346.143,300.160 345.942 C 300.101 345.883,299.516 346.783,298.860 347.942 C 297.683 350.020,297.648 350.058,296.292 350.699 L 294.917 351.349 260.166 351.369 C 241.053 351.381,225.718 351.351,226.089 351.304 L 226.763 351.219 226.763 334.115 C 226.763 324.709,226.688 317.012,226.596 317.012 C 226.503 317.012,225.873 317.353,225.195 317.769 C 222.794 319.242,222.288 319.474,220.963 319.711 C 220.226 319.843,219.240 319.894,218.772 319.824 L 217.922 319.696 217.934 332.825 L 217.946 345.954 217.353 347.095 C 216.055 349.591,213.622 351.037,210.723 351.037 L 209.482 351.037 210.498 350.502 C 212.456 349.470,213.739 347.814,214.238 345.674 C 214.491 344.590,214.411 313.236,214.046 270.228 C 213.968 261.040,213.456 259.537,209.790 257.737 L 208.610 257.158 202.801 257.145 C 199.606 257.138,191.203 257.186,184.129 257.250 M199.413 261.547 C 199.878 261.968,199.894 262.317,199.467 262.745 C 199.039 263.172,182.415 263.245,181.992 262.822 C 181.647 262.477,181.680 261.918,182.069 261.529 C 182.576 261.022,198.851 261.038,199.413 261.547 M249.470 267.531 C 249.470 271.068,249.498 272.545,249.533 270.812 C 249.567 269.079,249.567 266.184,249.533 264.380 C 249.498 262.576,249.470 263.994,249.470 267.531 M207.573 266.784 C 208.609 267.265,209.621 268.316,210.089 269.398 C 210.424 270.172,210.455 272.600,210.539 304.938 C 210.638 342.914,210.704 340.791,209.375 342.343 C 207.957 343.999,208.138 343.974,197.873 343.979 L 188.797 343.983 188.797 337.137 L 188.797 330.290 183.859 330.290 C 178.579 330.290,178.423 330.261,178.423 329.253 C 178.423 328.246,178.579 328.216,183.859 328.216 L 188.797 328.216 188.797 326.660 L 188.797 325.104 184.071 325.104 C 178.937 325.104,178.423 325.000,178.423 323.966 C 178.423 322.873,178.671 322.822,183.920 322.822 L 188.765 322.822 188.833 321.214 L 188.900 319.606 183.995 319.665 C 178.656 319.729,178.423 319.683,178.423 318.558 C 178.423 317.511,178.970 317.406,184.104 317.472 L 188.797 317.531 188.797 313.226 L 188.797 308.921 188.222 308.921 C 185.663 308.921,180.943 306.459,178.953 304.085 L 178.224 303.216 178.220 323.600 L 178.216 343.983 180.913 343.983 L 183.610 343.983 183.610 347.602 L 183.610 351.221 184.492 351.300 C 184.977 351.344,182.360 351.396,178.676 351.416 C 172.426 351.450,171.895 351.424,170.720 351.028 C 169.908 350.755,169.377 350.674,169.223 350.800 C 168.192 351.640,167.651 351.660,145.469 351.660 L 124.208 351.660 125.480 351.024 C 127.711 349.909,129.215 347.712,129.412 345.280 L 129.517 343.983 150.134 343.983 L 170.750 343.983 170.697 308.973 L 170.643 273.963 170.080 272.822 C 169.366 271.376,168.123 270.098,166.742 269.390 L 165.664 268.837 166.830 268.944 C 168.583 269.106,169.561 269.725,172.407 272.476 L 175.000 274.983 172.347 272.303 C 169.370 269.296,169.376 269.313,170.814 267.835 C 172.290 266.317,171.199 266.399,189.938 266.399 C 205.871 266.399,206.786 266.419,207.573 266.784 M164.948 273.704 C 166.642 274.846,166.494 271.710,166.494 306.432 L 166.494 337.241 166.019 338.004 C 165.740 338.453,165.178 338.945,164.654 339.198 L 163.763 339.629 119.656 339.576 L 75.549 339.523 74.976 339.095 C 73.400 337.918,73.555 341.288,73.491 306.676 C 73.426 271.382,73.240 274.439,75.519 273.407 C 75.690 273.329,95.725 273.259,120.042 273.251 L 164.254 273.237 164.948 273.704 M178.216 281.733 L 178.216 285.137 178.979 284.245 C 179.399 283.755,180.184 283.004,180.724 282.577 L 181.706 281.801 179.961 280.065 L 178.216 278.329 178.216 281.733 M186.100 288.081 C 186.100 290.979,187.944 292.746,190.693 292.481 C 192.215 292.335,192.207 292.317,189.204 289.308 C 185.930 286.027,186.100 286.094,186.100 288.081 M188.071 295.752 C 187.956 295.794,187.466 295.930,186.981 296.055 L 186.100 296.282 186.100 300.095 L 186.100 303.909 187.189 304.286 C 188.506 304.743,191.756 304.803,193.154 304.397 L 194.087 304.125 194.027 300.119 L 193.967 296.112 192.799 295.878 C 191.720 295.661,188.548 295.577,188.071 295.752 M90.551 307.261 C 90.551 311.655,90.578 313.452,90.612 311.255 C 90.645 309.059,90.645 305.464,90.612 303.268 C 90.578 301.071,90.551 302.868,90.551 307.261 M281.998 302.648 C 281.446 303.630,281.270 304.078,281.532 303.841 C 281.959 303.455,283.109 301.295,282.963 301.153 C 282.920 301.111,282.485 301.783,281.998 302.648 M100.158 303.259 C 100.416 303.308,100.790 303.307,100.988 303.255 C 101.186 303.203,100.975 303.162,100.519 303.164 C 100.062 303.167,99.900 303.209,100.158 303.259 M99.644 304.668 C 99.646 305.239,99.686 305.447,99.734 305.132 C 99.782 304.817,99.780 304.350,99.731 304.095 C 99.682 303.839,99.643 304.098,99.644 304.668 M134.081 304.564 C 134.081 305.078,134.122 305.288,134.171 305.031 C 134.221 304.774,134.221 304.354,134.171 304.098 C 134.122 303.841,134.081 304.051,134.081 304.564 M110.545 305.809 C 110.502 306.266,110.539 306.639,110.627 306.639 C 110.716 306.639,110.788 306.266,110.788 305.809 C 110.788 305.353,110.752 304.979,110.706 304.979 C 110.661 304.979,110.589 305.353,110.545 305.809 M217.847 311.233 C 217.842 318.430,217.680 317.845,219.675 317.838 C 220.997 317.833,221.863 317.495,223.843 316.211 C 224.576 315.736,225.533 315.241,225.970 315.110 C 227.318 314.706,227.103 314.374,222.297 309.440 L 217.852 304.876 217.847 311.233 M300.415 339.304 L 300.415 340.227 306.795 340.290 L 313.174 340.353 314.576 341.017 C 322.160 344.609,321.720 354.889,313.847 358.049 C 313.029 358.378,309.309 358.410,260.996 358.506 L 209.025 358.610 207.676 359.182 C 202.627 361.325,199.689 365.578,199.689 370.747 C 199.689 374.140,199.806 374.481,200.967 374.481 C 201.897 374.481,201.913 374.470,201.777 373.911 C 200.303 367.861,203.947 361.941,209.922 360.674 C 211.094 360.426,219.056 360.380,261.660 360.377 C 315.853 360.373,313.139 360.431,315.664 359.224 C 324.904 354.804,323.411 341.046,313.436 338.694 C 312.453 338.462,310.710 338.387,306.276 338.385 L 300.415 338.382 300.415 339.304 M200.677 374.838 C 200.992 374.885,201.459 374.884,201.714 374.835 C 201.970 374.786,201.712 374.747,201.141 374.748 C 200.571 374.750,200.362 374.790,200.677 374.838 M200.415 375.334 C 200.415 376.621,203.557 380.319,205.717 381.575 C 208.726 383.324,209.459 383.393,224.831 383.398 C 239.185 383.403,239.553 383.364,238.789 381.935 C 238.581 381.547,238.194 381.535,225.115 381.535 C 210.235 381.535,209.526 381.485,207.114 380.266 C 205.681 379.541,203.499 377.427,202.697 375.985 C 202.209 375.109,200.415 374.597,200.415 375.334 " stroke="none" fill="#c6cace" fill-rule="evenodd"></path><path id="path7" d="M247.400 31.587 L 246.162 32.884 247.459 31.645 C 248.172 30.964,248.755 30.381,248.755 30.349 C 248.755 30.196,248.550 30.383,247.400 31.587 M314.160 63.589 C 314.163 64.046,314.205 64.208,314.255 63.950 C 314.304 63.692,314.302 63.318,314.250 63.120 C 314.199 62.922,314.158 63.133,314.160 63.589 M314.170 65.975 C 314.170 66.603,314.209 66.859,314.256 66.546 C 314.304 66.232,314.304 65.718,314.256 65.405 C 314.209 65.091,314.170 65.348,314.170 65.975 M181.691 317.582 C 182.975 317.619,185.075 317.619,186.359 317.582 C 187.643 317.546,186.592 317.516,184.025 317.516 C 181.457 317.516,180.407 317.546,181.691 317.582 M217.895 318.568 C 217.897 319.025,217.939 319.187,217.989 318.929 C 218.039 318.671,218.037 318.298,217.985 318.099 C 217.933 317.901,217.892 318.112,217.895 318.568 M219.139 317.985 C 219.339 318.038,219.665 318.038,219.865 317.985 C 220.065 317.933,219.901 317.890,219.502 317.890 C 219.103 317.890,218.939 317.933,219.139 317.985 M181.587 319.657 C 182.928 319.693,185.122 319.693,186.463 319.657 C 187.803 319.621,186.706 319.591,184.025 319.591 C 181.343 319.591,180.246 319.621,181.587 319.657 M219.035 319.856 C 219.292 319.905,219.712 319.905,219.969 319.856 C 220.226 319.807,220.016 319.766,219.502 319.766 C 218.989 319.766,218.779 319.807,219.035 319.856 M197.259 322.975 C 197.977 323.016,199.097 323.016,199.749 322.975 C 200.400 322.934,199.813 322.900,198.444 322.901 C 197.075 322.901,196.542 322.935,197.259 322.975 M183.676 325.052 C 186.051 325.085,189.879 325.085,192.182 325.052 C 194.485 325.018,192.541 324.991,187.863 324.991 C 183.185 324.991,181.300 325.018,183.676 325.052 " stroke="none" fill="#e99994" fill-rule="evenodd"></path><path id="path8" d="M301.037 31.808 C 301.037 31.843,301.341 32.147,301.712 32.482 L 302.386 33.091 301.777 32.417 C 301.209 31.788,301.037 31.647,301.037 31.808 M235.218 285.627 C 235.589 285.673,236.196 285.673,236.566 285.627 C 236.937 285.581,236.634 285.544,235.892 285.544 C 235.150 285.544,234.847 285.581,235.218 285.627 M250.981 285.627 C 251.349 285.673,252.003 285.674,252.433 285.629 C 252.864 285.584,252.562 285.546,251.763 285.545 C 250.965 285.544,250.613 285.581,250.981 285.627 M266.961 285.627 C 267.331 285.673,267.938 285.673,268.309 285.627 C 268.680 285.581,268.377 285.544,267.635 285.544 C 266.893 285.544,266.590 285.581,266.961 285.627 M282.521 285.624 C 282.777 285.673,283.198 285.673,283.454 285.624 C 283.711 285.574,283.501 285.534,282.988 285.534 C 282.474 285.534,282.264 285.574,282.521 285.624 M235.222 287.702 C 235.594 287.748,236.155 287.747,236.466 287.700 C 236.778 287.653,236.473 287.615,235.788 287.616 C 235.104 287.617,234.849 287.656,235.222 287.702 M251.197 287.702 C 251.570 287.748,252.130 287.747,252.441 287.700 C 252.753 287.653,252.448 287.615,251.763 287.616 C 251.079 287.617,250.824 287.656,251.197 287.702 M266.961 287.702 C 267.331 287.748,267.938 287.748,268.309 287.702 C 268.680 287.656,268.377 287.618,267.635 287.618 C 266.893 287.618,266.590 287.656,266.961 287.702 M282.624 287.695 C 282.824 287.747,283.151 287.747,283.351 287.695 C 283.550 287.643,283.387 287.600,282.988 287.600 C 282.588 287.600,282.425 287.643,282.624 287.695 M264.990 316.741 C 265.189 316.793,265.516 316.793,265.716 316.741 C 265.915 316.688,265.752 316.646,265.353 316.646 C 264.953 316.646,264.790 316.688,264.990 316.741 M283.039 316.741 C 283.239 316.793,283.566 316.793,283.766 316.741 C 283.965 316.688,283.802 316.646,283.402 316.646 C 283.003 316.646,282.840 316.688,283.039 316.741 M274.118 319.853 C 274.318 319.905,274.645 319.905,274.844 319.853 C 275.044 319.800,274.881 319.758,274.481 319.758 C 274.082 319.758,273.919 319.800,274.118 319.853 M292.168 319.853 C 292.368 319.905,292.695 319.905,292.894 319.853 C 293.094 319.800,292.930 319.758,292.531 319.758 C 292.132 319.758,291.968 319.800,292.168 319.853 M197.362 325.050 C 198.023 325.091,199.050 325.091,199.645 325.049 C 200.239 325.007,199.699 324.973,198.444 324.974 C 197.189 324.974,196.702 325.009,197.362 325.050 " stroke="none" fill="#f4de9e" fill-rule="evenodd"></path></g></svg>