<svg id="svg" version="1.1" xmlns="http://www.w3.org/2000/svg" xmlns:xlink="http://www.w3.org/1999/xlink" width="400" height="368.7438180019782" viewBox="0, 0, 400,368.7438180019782"><g id="svgg"><path id="path0" d="M136.894 47.886 C 107.245 56.463,82.783 63.533,82.534 63.596 L 82.081 63.711 82.151 104.308 C 82.225 147.575,82.197 146.204,83.193 155.490 C 86.411 185.505,96.261 216.002,110.412 239.763 L 111.885 242.235 139.919 242.286 L 167.953 242.336 167.953 239.982 C 167.953 235.808,169.505 233.008,172.404 231.951 C 173.519 231.544,191.347 231.190,205.143 231.300 L 211.968 231.355 213.056 231.867 C 214.408 232.504,215.264 233.218,216.057 234.371 C 217.348 236.247,217.290 235.399,217.404 254.065 L 217.507 271.037 220.772 268.605 L 224.036 266.172 224.135 258.788 L 224.233 251.403 224.937 250.759 L 225.640 250.115 232.536 249.983 C 236.328 249.911,240.974 249.852,242.860 249.852 L 246.289 249.852 247.906 248.652 C 251.541 245.957,253.107 245.954,256.765 248.634 L 258.428 249.852 262.147 249.852 L 265.865 249.852 267.023 248.121 C 285.989 219.777,297.864 183.261,300.299 145.796 C 300.504 142.639,300.599 63.936,300.398 63.735 C 300.295 63.632,294.836 62.050,236.080 45.096 C 211.587 38.028,191.379 32.256,191.174 32.268 C 190.969 32.281,166.543 39.309,136.894 47.886 M226.212 87.800 C 249.290 92.755,257.469 120.983,240.619 137.520 C 228.138 149.769,207.474 148.200,196.971 134.207 C 183.379 116.096,194.486 90.135,217.013 87.362 C 218.712 87.153,224.475 87.427,226.212 87.800 M178.833 158.389 C 200.605 161.928,210.510 188.173,196.627 205.539 C 183.453 222.018,157.222 219.362,147.777 200.593 C 136.893 178.965,154.897 154.498,178.833 158.389 M249.528 261.225 C 234.954 264.395,233.250 284.750,247.091 290.341 C 250.683 291.792,256.578 291.773,256.578 290.311 C 256.578 289.580,256.301 289.516,253.116 289.511 C 245.171 289.499,239.325 283.893,239.302 276.261 C 239.256 261.153,261.279 257.251,264.423 271.810 C 265.730 277.863,263.936 282.130,260.289 281.641 C 257.438 281.258,256.777 279.791,256.772 273.828 C 256.769 269.718,256.797 269.831,255.667 269.386 C 249.504 266.962,243.597 273.132,245.875 279.614 C 247.325 283.741,252.291 285.142,255.094 282.216 L 256.083 281.183 256.729 281.836 C 260.181 285.320,265.653 283.242,266.460 278.140 C 268.193 267.194,259.949 258.959,249.528 261.225 M254.721 270.956 C 255.308 271.181,255.042 278.738,254.401 280.019 C 253.048 282.727,249.472 282.554,247.881 279.705 C 245.312 275.107,249.980 269.136,254.721 270.956 " stroke="none" fill="#3380f5" fill-rule="evenodd"></path><path id="path1" d="M0.000 184.372 L 0.000 368.744 200.000 368.744 L 400.000 368.744 400.000 184.372 L 400.000 0.000 200.000 0.000 L 0.000 0.000 0.000 184.372 M232.938 44.100 C 255.569 50.627,280.049 57.693,287.339 59.803 L 300.593 63.638 300.593 103.876 C 300.593 147.486,300.625 145.995,299.497 156.004 C 295.691 189.783,284.797 221.078,267.808 247.033 L 265.833 250.049 262.216 250.049 L 258.599 250.049 257.638 249.363 C 254.108 246.845,253.167 246.474,251.341 246.883 C 250.145 247.151,249.924 247.272,247.845 248.796 L 246.136 250.049 236.174 250.050 C 223.064 250.050,224.135 249.462,224.135 256.664 L 224.135 261.208 228.463 265.569 C 235.084 272.240,234.852 271.670,234.969 281.545 L 235.052 288.609 236.120 289.211 L 237.187 289.813 237.239 299.786 L 237.290 309.758 263.501 293.632 C 277.918 284.763,289.824 277.461,289.960 277.406 C 290.157 277.327,290.208 281.568,290.208 298.218 C 290.208 321.054,290.259 320.007,289.096 320.769 L 288.613 321.085 289.335 321.967 L 290.058 322.849 166.183 322.849 L 42.308 322.849 40.062 320.873 C 37.441 318.567,36.764 317.486,36.631 315.391 L 36.551 314.144 54.354 314.144 L 72.156 314.144 72.280 314.765 C 72.483 315.779,73.155 316.662,74.056 317.098 C 75.132 317.618,90.449 317.742,91.651 317.240 C 92.323 316.959,93.569 315.686,93.573 315.275 C 93.575 315.143,93.630 314.834,93.695 314.590 L 93.815 314.144 90.874 314.144 C 89.256 314.144,85.329 314.085,82.146 314.013 L 76.360 313.883 76.360 280.903 C 76.360 244.710,76.275 247.250,77.555 245.388 C 79.592 242.429,79.303 242.474,96.884 242.382 C 105.072 242.339,111.771 242.271,111.771 242.232 C 111.771 242.192,111.295 241.375,110.713 240.417 C 97.153 218.073,87.197 188.389,83.589 159.545 C 82.089 147.550,82.068 146.750,82.136 102.580 L 82.196 63.617 136.696 47.855 C 166.672 39.187,191.330 32.125,191.494 32.163 C 191.657 32.201,210.307 37.572,232.938 44.100 M218.200 87.374 C 196.476 88.951,184.042 113.253,195.443 131.850 C 210.739 156.798,249.400 145.803,249.351 116.518 C 249.322 99.354,235.198 86.140,218.200 87.374 M169.832 158.271 C 145.737 161.506,136.116 191.562,153.773 208.442 C 171.781 225.658,202.043 213.269,202.905 188.328 C 203.534 170.130,187.827 155.856,169.832 158.271 M174.328 240.667 C 173.331 241.164,172.107 242.496,172.107 243.084 C 172.107 243.777,190.129 261.506,190.638 261.312 C 191.995 260.796,193.743 261.229,194.795 262.340 C 197.036 264.708,195.596 268.586,192.333 268.973 L 191.296 269.096 191.296 269.958 C 191.296 270.767,191.330 270.821,191.840 270.822 C 196.058 270.831,197.414 276.374,193.666 278.289 C 193.187 278.534,192.457 278.734,192.045 278.734 L 191.296 278.734 191.296 279.579 L 191.296 280.424 192.475 280.648 C 197.117 281.530,196.887 288.310,192.209 288.491 L 191.296 288.526 191.296 289.466 L 191.296 290.406 192.045 290.406 C 192.457 290.406,193.187 290.606,193.666 290.851 C 197.259 292.687,196.037 298.318,192.045 298.318 L 191.296 298.318 191.296 306.231 L 191.296 314.144 199.382 314.144 C 208.416 314.144,208.292 314.161,209.687 312.766 C 211.135 311.318,211.047 313.813,210.946 277.037 C 210.847 240.975,210.921 243.118,209.732 241.705 C 209.447 241.367,208.766 240.882,208.218 240.626 L 207.221 240.162 191.285 240.160 L 175.350 240.158 174.328 240.667 M81.942 247.015 C 81.585 247.191,81.096 247.612,80.854 247.951 L 80.415 248.566 80.364 278.158 L 80.313 307.750 80.760 308.407 C 81.006 308.768,81.458 309.250,81.765 309.477 L 82.324 309.891 124.629 309.891 L 166.934 309.891 167.493 309.477 C 167.800 309.250,168.252 308.769,168.497 308.410 L 168.942 307.756 168.942 278.385 L 168.942 249.015 168.523 248.270 C 168.292 247.860,167.768 247.336,167.358 247.105 L 166.613 246.686 124.602 246.691 C 86.308 246.695,82.534 246.724,81.942 247.015 M163.476 251.450 C 164.512 252.264,164.467 250.989,164.418 278.437 C 164.367 307.168,164.496 304.723,162.993 305.489 C 162.071 305.959,87.697 306.034,86.591 305.566 C 85.021 304.902,85.170 307.607,85.112 278.633 C 85.057 251.144,85.022 252.091,86.098 251.435 C 86.740 251.044,87.116 251.040,124.850 251.039 L 162.954 251.039 163.476 251.450 M90.334 254.106 C 89.491 254.949,89.924 256.182,91.063 256.182 C 91.881 256.182,92.186 255.879,92.186 255.066 C 92.186 254.040,91.010 253.430,90.334 254.106 M87.091 281.256 L 87.141 303.759 124.728 303.759 L 162.315 303.759 162.365 281.256 L 162.415 258.754 124.728 258.754 L 87.041 258.754 87.091 281.256 M256.973 261.336 C 264.021 263.293,268.339 271.436,266.360 279.039 C 265.188 283.539,259.863 285.183,256.776 281.998 L 256.130 281.332 255.192 282.295 C 252.397 285.165,247.370 283.892,245.878 279.937 C 243.435 273.462,249.015 267.087,255.306 269.165 C 256.927 269.700,256.862 269.490,256.975 274.537 C 257.106 280.370,257.564 281.285,260.449 281.469 C 263.582 281.668,264.598 280.167,264.575 275.371 C 264.536 267.370,260.363 262.890,252.918 262.856 C 240.309 262.799,234.530 278.296,244.142 286.392 C 247.199 288.967,249.727 289.627,255.480 289.355 C 256.549 289.304,257.123 290.145,256.467 290.802 C 254.591 292.678,247.319 291.300,243.348 288.315 C 230.101 278.357,240.945 256.885,256.973 261.336 M203.390 261.330 C 205.002 261.777,206.102 263.659,205.884 265.595 C 205.359 270.256,198.220 269.782,198.220 265.086 C 198.220 262.285,200.601 260.555,203.390 261.330 M125.183 264.530 C 125.364 264.711,125.420 268.845,125.420 281.927 L 125.420 299.087 124.981 299.395 C 124.537 299.706,94.175 299.887,93.051 299.585 C 92.190 299.354,92.186 299.280,92.186 281.835 C 92.186 267.074,92.221 265.122,92.494 264.732 L 92.802 264.293 108.874 264.293 C 121.110 264.293,125.002 264.349,125.183 264.530 M156.250 265.073 C 156.393 266.084,156.524 266.073,143.596 266.073 C 130.896 266.073,130.959 266.078,130.959 265.208 C 130.959 264.497,131.167 264.487,143.810 264.539 L 156.182 264.590 156.250 265.073 M156.247 269.595 C 156.397 270.657,156.811 270.623,143.709 270.623 C 130.887 270.623,130.959 270.628,130.959 269.758 C 130.959 269.047,131.167 269.037,143.810 269.089 L 156.182 269.139 156.247 269.595 M203.066 271.039 C 207.402 272.224,206.594 278.638,202.110 278.634 C 197.658 278.630,196.679 272.556,200.890 271.063 C 201.675 270.784,202.116 270.780,203.066 271.039 M250.258 271.440 C 245.007 274.064,247.411 283.804,252.763 281.586 C 254.508 280.862,254.956 279.182,254.985 273.239 C 254.995 271.236,254.988 271.204,254.488 271.014 C 253.394 270.598,251.577 270.781,250.258 271.440 M156.247 274.145 C 156.397 275.208,156.821 275.173,143.592 275.173 L 131.347 275.173 131.124 274.684 C 130.607 273.551,130.220 273.583,143.794 273.638 L 156.182 273.689 156.247 274.145 M98.604 275.850 C 98.033 276.266,98.005 288.001,98.573 288.569 C 99.173 289.169,118.594 289.214,119.353 288.616 L 119.881 288.201 119.881 282.324 C 119.881 277.326,119.835 276.382,119.573 276.008 L 119.265 275.569 109.126 275.569 C 100.682 275.569,98.923 275.616,98.604 275.850 M289.993 276.041 C 289.867 276.158,281.638 281.220,281.145 281.483 L 280.712 281.715 280.712 278.840 L 280.712 275.964 285.394 275.964 C 287.969 275.964,290.039 275.999,289.993 276.041 M112.166 279.330 L 112.166 281.311 106.083 281.259 L 100.000 281.207 99.943 279.278 L 99.887 277.349 106.026 277.349 L 112.166 277.349 112.166 279.330 M118.055 282.245 L 118.002 287.141 116.024 287.141 L 114.045 287.141 113.993 282.245 L 113.940 277.349 116.024 277.349 L 118.108 277.349 118.055 282.245 M156.159 278.586 C 156.319 278.838,156.319 279.025,156.159 279.278 C 155.888 279.708,131.738 279.925,131.229 279.503 C 130.895 279.226,130.881 278.694,131.198 278.376 C 131.636 277.939,155.880 278.142,156.159 278.586 M204.305 281.350 C 205.434 282.097,206.006 283.357,205.897 284.860 C 205.533 289.897,198.220 289.504,198.220 284.447 C 198.220 281.426,201.725 279.642,204.305 281.350 M156.159 283.136 C 156.319 283.388,156.319 283.575,156.159 283.828 C 155.888 284.258,131.738 284.475,131.229 284.052 C 130.895 283.776,130.881 283.244,131.198 282.926 C 131.636 282.489,155.880 282.692,156.159 283.136 M112.166 285.166 L 112.166 287.246 106.083 287.194 L 100.000 287.141 99.944 285.114 L 99.887 283.086 106.027 283.086 L 112.166 283.086 112.166 285.166 M156.074 287.526 C 156.205 287.683,156.282 288.017,156.247 288.268 L 156.182 288.724 143.794 288.775 C 130.220 288.831,130.607 288.863,131.124 287.729 L 131.347 287.240 143.592 287.240 C 154.028 287.240,155.872 287.283,156.074 287.526 M156.074 292.076 C 156.205 292.233,156.282 292.567,156.247 292.818 L 156.182 293.274 143.794 293.325 C 130.220 293.381,130.607 293.413,131.124 292.279 L 131.347 291.790 143.592 291.790 C 154.028 291.790,155.872 291.833,156.074 292.076 M260.715 294.044 C 260.389 294.354,252.565 299.110,252.383 299.110 C 252.135 299.110,247.414 296.241,245.328 294.823 L 244.069 293.966 252.433 293.966 C 257.034 293.966,260.761 294.002,260.715 294.044 M146.792 296.947 C 146.963 297.265,146.941 297.463,146.696 297.837 L 146.381 298.318 138.907 298.318 C 130.898 298.318,130.959 298.326,130.959 297.306 C 130.959 296.546,130.697 296.571,139.014 296.554 C 146.461 296.538,146.577 296.544,146.792 296.947 " stroke="none" fill="#fafafa" fill-rule="evenodd"></path><path id="path2" d="M85.988 251.641 C 85.262 252.212,85.067 253.144,85.065 256.034 L 85.064 258.556 124.742 258.556 L 164.420 258.556 164.356 255.473 L 164.293 252.390 163.647 251.813 L 163.001 251.236 124.752 251.236 C 86.518 251.236,86.502 251.237,85.988 251.641 M92.076 254.248 C 92.983 255.542,91.316 257.092,90.208 255.984 C 89.727 255.504,89.695 254.661,90.139 254.170 C 90.610 253.650,91.688 253.693,92.076 254.248 M180.514 261.422 C 178.253 262.215,177.329 265.173,178.697 267.240 C 179.670 268.711,181.948 269.280,183.564 268.456 C 187.848 266.270,185.056 259.830,180.514 261.422 M190.406 261.503 C 186.633 263.249,187.762 268.843,191.888 268.843 C 194.840 268.843,196.688 266.038,195.472 263.403 C 194.568 261.444,192.338 260.608,190.406 261.503 M200.701 261.432 C 198.586 262.234,197.642 264.660,198.665 266.663 C 200.150 269.570,203.983 269.565,205.504 266.655 C 207.062 263.673,203.889 260.222,200.701 261.432 M180.072 271.408 C 178.356 272.187,177.496 274.708,178.362 276.419 C 179.643 278.949,182.873 279.378,184.727 277.266 C 187.503 274.105,183.958 269.644,180.072 271.408 M190.177 271.426 C 187.547 272.728,187.514 276.817,190.124 278.148 C 191.565 278.883,193.395 278.649,194.535 277.584 C 197.779 274.554,194.167 269.451,190.177 271.426 M200.495 271.300 C 198.390 272.243,197.600 275.060,198.909 276.949 C 200.866 279.773,205.393 278.723,205.857 275.338 C 206.257 272.424,203.172 270.100,200.495 271.300 M180.502 280.924 C 178.996 281.361,177.932 283.144,178.084 284.975 C 178.392 288.697,183.506 289.679,185.244 286.350 C 186.860 283.257,183.946 279.923,180.502 280.924 M190.603 280.950 C 189.233 281.427,188.127 283.017,188.135 284.501 C 188.154 288.249,192.878 289.818,195.063 286.802 C 197.272 283.752,194.187 279.703,190.603 280.950 M200.495 281.086 C 197.422 282.504,197.510 286.814,200.639 288.121 C 202.535 288.913,204.683 288.054,205.561 286.152 C 207.036 282.957,203.690 279.611,200.495 281.086 M190.813 290.701 C 186.712 292.162,187.560 298.121,191.868 298.121 C 196.325 298.121,197.308 292.195,193.098 290.710 C 192.058 290.343,191.819 290.342,190.813 290.701 " stroke="none" fill="#f45d13" fill-rule="evenodd"></path><path id="path3" d="M92.730 264.506 C 92.289 264.764,92.182 298.829,92.621 299.268 C 93.029 299.676,124.700 299.604,125.110 299.195 C 125.584 298.720,125.584 265.078,125.110 264.604 C 124.732 264.226,93.373 264.132,92.730 264.506 M119.486 275.767 C 120.044 276.325,120.106 288.049,119.554 288.659 C 119.021 289.248,99.107 289.216,98.516 288.625 C 97.874 287.983,97.905 276.516,98.551 275.829 L 98.981 275.371 109.035 275.371 C 118.826 275.371,119.100 275.381,119.486 275.767 M100.099 279.228 L 100.099 281.108 106.133 281.108 L 112.166 281.108 112.166 279.228 L 112.166 277.349 106.133 277.349 L 100.099 277.349 100.099 279.228 M114.144 282.196 L 114.144 287.043 116.024 287.043 L 117.903 287.043 117.903 282.196 L 117.903 277.349 116.024 277.349 L 114.144 277.349 114.144 282.196 M100.099 285.064 L 100.099 287.043 106.133 287.043 L 112.166 287.043 112.166 285.064 L 112.166 283.086 106.133 283.086 L 100.099 283.086 100.099 285.064 " stroke="none" fill="#04ac44" fill-rule="evenodd"></path><path id="path4" d="M300.591 99.901 C 300.591 119.866,300.615 128.034,300.643 118.051 C 300.671 108.069,300.671 91.733,300.643 81.751 C 300.615 71.768,300.591 79.936,300.591 99.901 M300.551 139.169 C 300.553 139.713,300.591 139.912,300.637 139.612 C 300.682 139.311,300.681 138.866,300.634 138.622 C 300.587 138.379,300.550 138.625,300.551 139.169 M173.248 158.007 C 173.603 158.051,174.138 158.050,174.435 158.005 C 174.732 157.960,174.441 157.924,173.788 157.925 C 173.136 157.926,172.892 157.963,173.248 158.007 M203.013 185.757 C 203.013 186.137,203.054 186.293,203.104 186.103 C 203.153 185.912,203.153 185.601,203.104 185.410 C 203.054 185.220,203.013 185.376,203.013 185.757 M203.013 188.526 C 203.013 188.907,203.054 189.063,203.104 188.872 C 203.153 188.682,203.153 188.370,203.104 188.180 C 203.054 187.990,203.013 188.145,203.013 188.526 M153.116 208.012 C 153.707 208.610,154.235 209.100,154.289 209.100 C 154.344 209.100,153.905 208.610,153.314 208.012 C 152.723 207.413,152.195 206.924,152.140 206.924 C 152.086 206.924,152.525 207.413,153.116 208.012 M173.050 216.563 C 173.406 216.607,173.940 216.606,174.237 216.561 C 174.534 216.516,174.243 216.480,173.591 216.481 C 172.938 216.482,172.694 216.519,173.050 216.563 M193.225 231.404 C 194.449 231.439,196.452 231.439,197.676 231.404 C 198.900 231.369,197.898 231.341,195.450 231.341 C 193.002 231.341,192.000 231.369,193.225 231.404 M208.858 231.401 C 209.323 231.443,210.035 231.442,210.440 231.400 C 210.846 231.357,210.465 231.323,209.594 231.324 C 208.724 231.325,208.393 231.359,208.858 231.401 M215.035 233.333 C 215.404 233.714,215.750 234.026,215.805 234.026 C 215.859 234.026,215.602 233.714,215.232 233.333 C 214.863 232.953,214.517 232.641,214.462 232.641 C 214.408 232.641,214.666 232.953,215.035 233.333 M167.953 239.848 C 167.953 242.241,167.941 242.309,167.507 242.393 C 167.126 242.466,167.140 242.482,167.606 242.505 L 168.150 242.532 168.150 239.960 C 168.150 238.546,168.106 237.389,168.051 237.389 C 167.997 237.389,167.953 238.495,167.953 239.848 M217.301 246.884 C 217.301 251.617,217.327 253.553,217.359 251.187 C 217.390 248.820,217.390 244.948,217.359 242.582 C 217.327 240.215,217.301 242.151,217.301 246.884 M174.731 246.588 L 175.173 247.577 175.225 280.752 L 175.277 313.927 174.137 313.998 L 172.997 314.070 174.163 314.107 L 175.328 314.144 175.203 315.339 C 175.039 316.911,174.244 318.492,173.060 319.599 L 172.104 320.494 172.847 320.830 C 173.467 321.111,174.386 321.177,178.388 321.229 L 183.185 321.292 183.185 317.718 L 183.185 314.144 180.717 314.144 L 178.249 314.144 178.153 299.753 C 178.099 291.837,178.061 284.871,178.068 284.273 C 178.075 283.675,178.078 281.538,178.075 279.525 C 178.071 277.512,178.073 275.331,178.079 274.679 C 178.101 272.112,178.098 266.312,178.074 265.282 C 178.061 264.683,178.092 260.945,178.144 256.973 L 178.238 249.753 176.263 247.676 C 174.290 245.600,174.289 245.599,174.731 246.588 M237.648 250.000 C 239.260 250.033,241.841 250.033,243.385 249.999 C 244.929 249.966,243.610 249.939,240.455 249.939 C 237.300 249.939,236.037 249.966,237.648 250.000 M260.287 249.999 C 261.293 250.035,262.940 250.035,263.947 249.999 C 264.953 249.963,264.130 249.934,262.117 249.934 C 260.104 249.934,259.280 249.963,260.287 249.999 M218.546 270.737 C 218.464 270.820,218.205 270.901,217.969 270.919 L 217.541 270.950 217.570 282.112 C 217.586 288.251,217.657 298.083,217.729 303.961 C 217.884 316.788,217.914 316.571,215.654 318.938 L 214.760 319.873 215.211 320.353 C 215.841 321.024,217.024 321.266,219.672 321.266 L 221.958 321.266 221.958 320.260 L 221.958 319.253 220.460 320.062 C 219.635 320.507,218.923 320.870,218.877 320.870 C 218.587 320.870,218.871 319.872,219.238 319.603 L 219.683 319.276 219.238 319.487 L 218.793 319.697 218.793 299.209 L 218.793 278.720 219.238 278.957 C 219.483 279.087,220.635 279.758,221.798 280.448 C 222.961 281.137,223.962 281.701,224.023 281.701 C 224.084 281.701,224.135 280.410,224.135 278.833 L 224.135 275.964 222.878 275.964 C 222.186 275.964,221.074 275.907,220.405 275.837 L 219.189 275.710 219.189 274.144 C 219.189 273.206,219.114 272.625,219.001 272.694 C 218.893 272.761,218.788 272.336,218.754 271.699 C 218.721 271.087,218.628 270.655,218.546 270.737 M252.671 270.760 C 252.861 270.809,253.173 270.809,253.363 270.760 C 253.553 270.710,253.398 270.669,253.017 270.669 C 252.636 270.669,252.480 270.710,252.671 270.760 M264.752 275.767 C 264.752 276.474,264.788 276.763,264.832 276.409 C 264.875 276.056,264.875 275.477,264.832 275.124 C 264.788 274.770,264.752 275.059,264.752 275.767 M239.223 276.162 C 239.223 276.652,239.262 276.852,239.309 276.607 C 239.356 276.363,239.356 275.962,239.309 275.717 C 239.262 275.472,239.223 275.673,239.223 276.162 M256.821 277.349 C 256.821 277.730,256.862 277.886,256.912 277.695 C 256.962 277.505,256.962 277.193,256.912 277.003 C 256.862 276.813,256.821 276.968,256.821 277.349 M114.032 282.196 C 114.032 284.916,114.060 286.056,114.094 284.730 C 114.128 283.403,114.129 281.178,114.094 279.784 C 114.060 278.390,114.032 279.476,114.032 282.196 M117.989 282.196 C 117.989 284.916,118.017 286.056,118.051 284.730 C 118.085 283.403,118.085 281.178,118.051 279.784 C 118.017 278.390,117.989 279.476,117.989 282.196 M251.286 283.816 C 251.476 283.866,251.788 283.866,251.978 283.816 C 252.169 283.766,252.013 283.725,251.632 283.725 C 251.251 283.725,251.095 283.766,251.286 283.816 M252.574 291.535 C 252.820 291.582,253.176 291.580,253.365 291.531 C 253.554 291.481,253.353 291.442,252.918 291.445 C 252.483 291.447,252.328 291.487,252.574 291.535 " stroke="none" fill="#abb6c0" fill-rule="evenodd"></path><path id="path5" d="M249.513 116.815 C 249.514 117.359,249.552 117.558,249.598 117.257 C 249.643 116.957,249.642 116.512,249.595 116.268 C 249.548 116.025,249.511 116.271,249.513 116.815 M300.548 140.851 C 300.548 141.340,300.587 141.541,300.634 141.296 C 300.681 141.051,300.681 140.650,300.634 140.406 C 300.587 140.161,300.548 140.361,300.548 140.851 M82.143 143.225 C 82.143 143.605,82.184 143.761,82.233 143.571 C 82.283 143.380,82.283 143.069,82.233 142.878 C 82.184 142.688,82.143 142.844,82.143 143.225 M203.021 187.141 C 203.021 187.631,203.060 187.831,203.107 187.587 C 203.154 187.342,203.154 186.941,203.107 186.696 C 203.060 186.452,203.021 186.652,203.021 187.141 M194.454 207.864 L 193.373 209.001 194.510 207.920 C 195.136 207.325,195.648 206.813,195.648 206.782 C 195.648 206.635,195.459 206.807,194.454 207.864 M186.944 231.438 L 173.591 231.553 172.405 232.030 C 169.343 233.263,168.109 235.521,168.194 239.735 L 168.249 242.432 169.380 242.573 C 170.002 242.651,170.870 242.888,171.309 243.100 C 172.044 243.455,172.107 243.459,172.107 243.147 C 172.107 242.503,173.286 241.187,174.328 240.667 L 175.350 240.158 191.285 240.160 L 207.221 240.162 208.218 240.626 C 208.766 240.882,209.447 241.367,209.732 241.705 C 210.921 243.118,210.847 240.975,210.946 277.037 C 211.047 313.813,211.135 311.318,209.687 312.766 C 208.292 314.161,208.416 314.144,199.382 314.144 L 191.296 314.144 191.296 306.234 L 191.296 298.324 190.554 298.014 C 187.213 296.621,187.213 292.106,190.554 290.710 C 191.826 290.179,191.660 288.716,190.250 288.025 C 187.120 286.491,187.527 281.455,190.834 280.795 C 191.776 280.607,191.554 278.847,190.534 278.422 C 187.285 277.066,187.368 271.755,190.649 271.099 C 191.406 270.947,191.767 268.842,191.035 268.842 C 188.152 268.845,187.041 264.113,189.432 262.017 L 190.111 261.423 185.415 256.775 C 182.833 254.218,181.052 252.486,181.458 252.926 L 182.196 253.726 182.196 257.405 L 182.196 261.084 182.900 261.216 C 186.609 261.911,186.612 267.840,182.904 268.864 C 181.768 269.177,181.821 270.705,182.978 271.016 C 186.630 272.000,186.623 277.470,182.969 278.565 C 181.796 278.916,181.841 280.494,183.032 280.774 C 186.722 281.642,186.352 288.427,182.614 288.427 L 182.196 288.427 182.196 301.286 L 182.196 314.144 185.262 314.144 L 188.328 314.144 188.328 317.595 L 188.328 321.047 189.268 321.125 C 189.785 321.168,186.424 321.195,181.800 321.185 C 174.221 321.169,173.331 321.133,172.767 320.825 C 172.162 320.494,172.108 320.497,171.184 320.924 L 170.227 321.365 149.258 321.406 L 128.289 321.447 129.375 321.028 C 131.595 320.172,133.290 317.840,133.647 315.150 L 133.780 314.144 153.441 314.144 L 173.102 314.144 173.049 280.861 L 172.997 247.577 172.421 246.402 C 171.689 244.909,170.525 243.745,169.030 243.011 L 167.854 242.433 125.025 242.433 C 84.783 242.433,82.130 242.454,81.108 242.779 C 79.734 243.217,78.351 244.232,77.555 245.388 C 76.275 247.250,76.360 244.710,76.360 280.903 L 76.360 313.883 82.146 314.013 C 85.329 314.085,89.256 314.144,90.874 314.144 L 93.815 314.144 93.695 314.590 C 93.630 314.834,93.575 315.143,93.573 315.275 C 93.569 315.686,92.323 316.959,91.651 317.240 C 90.449 317.742,75.132 317.618,74.056 317.098 C 73.155 316.662,72.483 315.779,72.280 314.765 L 72.156 314.144 54.354 314.144 L 36.551 314.144 36.631 315.391 C 36.764 317.486,37.441 318.567,40.062 320.873 L 42.308 322.849 166.183 322.849 L 290.058 322.849 289.335 321.967 L 288.613 321.085 289.096 320.769 C 290.259 320.007,290.208 321.054,290.208 298.218 C 290.208 281.568,290.157 277.327,289.960 277.406 C 289.824 277.461,277.918 284.763,263.501 293.632 L 237.290 309.758 237.239 299.786 L 237.187 289.813 236.120 289.211 L 235.052 288.609 234.969 281.545 C 234.852 271.681,235.075 272.232,228.526 265.631 C 226.179 263.267,224.228 261.363,224.190 261.402 C 224.152 261.440,224.123 266.045,224.127 271.636 L 224.133 281.800 224.729 282.295 L 225.325 282.789 225.323 299.263 L 225.321 315.736 225.865 315.407 L 226.409 315.077 225.846 315.557 C 225.472 315.876,225.306 316.183,225.352 316.471 C 225.417 316.882,225.534 316.841,227.498 315.725 C 228.640 315.076,229.641 314.544,229.723 314.543 C 229.805 314.541,229.871 316.053,229.871 317.903 L 229.871 321.266 223.356 321.266 C 216.533 321.266,216.120 321.220,215.227 320.368 L 214.727 319.892 213.464 320.402 C 212.586 320.757,211.713 320.937,210.601 320.993 C 209.016 321.074,209.009 321.072,209.827 320.800 C 211.600 320.210,213.319 318.665,214.113 316.949 C 214.638 315.812,214.704 280.963,214.250 244.906 L 214.144 236.499 213.587 235.363 C 212.877 233.917,211.583 232.623,210.136 231.913 L 209.001 231.356 204.649 231.340 C 202.255 231.330,194.288 231.375,186.944 231.438 M200.480 235.524 C 200.845 235.888,200.865 236.091,200.587 236.610 C 200.300 237.146,184.226 237.214,183.694 236.682 C 183.307 236.296,183.307 236.200,183.691 235.652 L 183.999 235.213 192.084 235.213 C 199.171 235.213,200.208 235.251,200.480 235.524 M167.358 247.105 C 167.768 247.336,168.292 247.860,168.523 248.270 L 168.942 249.015 168.942 278.385 L 168.942 307.756 168.497 308.410 C 168.252 308.769,167.800 309.250,167.493 309.477 L 166.934 309.891 124.629 309.891 L 82.324 309.891 81.765 309.477 C 81.458 309.250,81.006 308.768,80.760 308.407 L 80.313 307.750 80.364 278.158 L 80.415 248.566 80.854 247.951 C 81.826 246.588,78.089 246.696,124.602 246.691 L 166.613 246.686 167.358 247.105 M164.392 255.951 L 164.392 258.754 163.403 258.754 L 162.415 258.754 162.365 281.256 L 162.315 303.759 124.728 303.759 L 87.141 303.759 87.091 281.256 L 87.041 258.754 86.050 258.754 L 85.059 258.754 85.111 281.582 C 85.170 307.228,85.026 304.904,86.591 305.566 C 87.547 305.971,161.913 305.968,162.881 305.563 C 164.497 304.888,164.347 307.476,164.427 278.779 C 164.467 264.773,164.475 253.276,164.445 253.231 C 164.416 253.186,164.392 254.410,164.392 255.951 M131.198 264.727 C 130.874 265.050,130.898 265.390,131.270 265.762 C 131.546 266.038,132.937 266.073,143.596 266.073 C 156.524 266.073,156.393 266.084,156.250 265.073 L 156.182 264.590 143.810 264.539 C 134.351 264.500,131.381 264.544,131.198 264.727 M92.281 281.899 C 92.281 291.202,92.305 295.007,92.334 290.356 C 92.364 285.705,92.364 278.093,92.334 273.442 C 92.305 268.791,92.281 272.596,92.281 281.899 M131.198 269.276 C 130.874 269.600,130.898 269.940,131.270 270.312 C 131.546 270.588,132.947 270.623,143.709 270.623 C 156.811 270.623,156.397 270.657,156.247 269.595 L 156.182 269.139 143.810 269.089 C 134.351 269.050,131.381 269.094,131.198 269.276 M256.856 273.591 C 256.856 275.386,256.886 276.120,256.923 275.223 C 256.959 274.325,256.959 272.856,256.923 271.958 C 256.886 271.061,256.856 271.795,256.856 273.591 M131.154 273.892 C 130.960 274.124,130.953 274.310,131.124 274.684 L 131.347 275.173 143.592 275.173 C 156.821 275.173,156.397 275.208,156.247 274.145 L 156.182 273.689 143.794 273.638 C 132.850 273.593,131.377 273.623,131.154 273.892 M104.105 275.519 C 106.798 275.550,111.204 275.550,113.897 275.519 C 116.590 275.488,114.387 275.463,109.001 275.463 C 103.615 275.463,101.412 275.488,104.105 275.519 M254.854 276.855 C 254.855 277.399,254.894 277.598,254.939 277.297 C 254.985 276.996,254.983 276.551,254.936 276.308 C 254.890 276.065,254.852 276.311,254.854 276.855 M280.712 278.840 L 280.712 281.715 281.145 281.483 C 281.638 281.220,289.867 276.158,289.993 276.041 C 290.039 275.999,287.969 275.964,285.394 275.964 L 280.712 275.964 280.712 278.840 M99.989 279.277 L 100.000 281.207 106.034 281.211 L 112.067 281.215 106.090 281.159 L 100.113 281.102 100.045 279.225 L 99.977 277.348 99.989 279.277 M131.198 278.376 C 130.881 278.694,130.895 279.226,131.229 279.503 C 131.738 279.925,155.888 279.708,156.159 279.278 C 156.319 279.025,156.319 278.838,156.159 278.586 C 155.880 278.142,131.636 277.939,131.198 278.376 M131.198 282.926 C 130.881 283.244,130.895 283.776,131.229 284.052 C 131.738 284.475,155.888 284.258,156.159 283.828 C 156.319 283.575,156.319 283.388,156.159 283.136 C 155.880 282.692,131.636 282.489,131.198 282.926 M99.989 285.064 L 100.000 287.141 106.133 287.146 L 112.265 287.150 106.189 287.094 L 100.113 287.037 100.045 285.012 L 99.977 282.987 99.989 285.064 M241.840 287.043 C 242.265 287.478,242.657 287.834,242.711 287.834 C 242.766 287.834,242.463 287.478,242.038 287.043 C 241.613 286.607,241.220 286.251,241.166 286.251 C 241.112 286.251,241.415 286.607,241.840 287.043 M115.091 287.189 C 115.666 287.229,116.556 287.228,117.069 287.188 C 117.582 287.147,117.112 287.114,116.024 287.115 C 114.936 287.115,114.516 287.149,115.091 287.189 M131.124 287.729 C 130.607 288.863,130.220 288.831,143.794 288.775 L 156.182 288.724 156.247 288.268 C 156.397 287.206,156.821 287.240,143.592 287.240 L 131.347 287.240 131.124 287.729 M131.124 292.279 C 130.607 293.413,130.220 293.381,143.794 293.325 L 156.182 293.274 156.247 292.818 C 156.397 291.756,156.821 291.790,143.592 291.790 L 131.347 291.790 131.124 292.279 M245.328 294.823 C 247.414 296.241,252.135 299.110,252.383 299.110 C 252.565 299.110,260.389 294.354,260.715 294.044 C 260.761 294.002,257.034 293.966,252.433 293.966 L 244.069 293.966 245.328 294.823 M131.207 296.669 C 130.892 296.796,130.885 297.769,131.197 298.081 C 131.373 298.257,133.359 298.318,138.907 298.318 L 146.381 298.318 146.696 297.837 C 147.538 296.553,147.441 296.536,139.014 296.554 C 134.856 296.562,131.343 296.614,131.207 296.669 M101.053 299.654 C 105.441 299.683,112.562 299.683,116.879 299.654 C 121.196 299.624,117.606 299.600,108.902 299.600 C 100.198 299.600,96.666 299.624,101.053 299.654 " stroke="none" fill="#cbd1d3" fill-rule="evenodd"></path><path id="path6" d="M210.252 231.968 C 211.607 232.643,212.896 233.956,213.587 235.363 L 214.144 236.499 214.250 244.906 C 214.704 280.963,214.638 315.812,214.113 316.949 C 213.319 318.665,211.600 320.210,209.827 320.800 C 209.008 321.072,209.014 321.074,210.584 320.992 C 214.097 320.807,216.568 318.990,217.500 315.906 C 217.860 314.716,217.873 319.084,217.301 251.632 C 217.159 234.899,217.242 235.602,215.167 233.529 C 213.702 232.065,212.309 231.454,210.438 231.454 L 209.220 231.454 210.252 231.968 M183.691 235.652 C 183.307 236.200,183.307 236.296,183.694 236.682 C 184.226 237.214,200.300 237.146,200.587 236.610 C 201.321 235.237,201.172 235.213,192.084 235.213 L 183.999 235.213 183.691 235.652 M168.158 242.515 C 168.163 242.579,168.626 242.847,169.187 243.111 C 170.521 243.737,171.706 244.943,172.421 246.402 L 172.997 247.577 173.049 280.762 L 173.102 313.947 174.189 313.947 L 175.277 313.947 175.225 280.762 L 175.173 247.577 174.661 246.489 C 174.051 245.191,172.600 243.704,171.389 243.135 C 170.547 242.738,168.142 242.278,168.158 242.515 M177.399 248.853 L 178.239 249.766 178.242 256.486 L 178.245 263.205 178.885 262.465 C 179.584 261.658,180.658 261.128,181.596 261.128 L 182.196 261.128 182.196 257.396 L 182.196 253.664 179.377 250.802 C 177.826 249.228,176.936 248.351,177.399 248.853 M220.793 268.681 C 218.093 270.689,217.262 271.429,218.381 270.830 C 218.776 270.618,218.793 270.655,218.793 271.716 C 218.793 272.403,218.868 272.776,218.991 272.700 C 219.117 272.623,219.189 273.150,219.189 274.144 L 219.189 275.710 220.405 275.837 C 221.074 275.907,222.186 275.964,222.878 275.964 L 224.135 275.964 224.135 271.327 C 224.135 268.732,224.055 266.641,223.953 266.578 C 223.854 266.516,222.431 267.463,220.793 268.681 M178.239 269.922 L 178.239 273.011 178.862 272.301 C 179.606 271.455,180.288 271.075,181.384 270.900 C 182.671 270.694,182.648 269.149,181.355 268.938 C 180.346 268.773,179.424 268.242,178.742 267.432 L 178.239 266.834 178.239 269.922 M178.239 279.572 L 178.239 282.680 179.097 281.823 C 179.913 281.007,181.669 280.287,182.137 280.577 C 182.224 280.631,182.264 280.238,182.226 279.704 C 182.162 278.798,182.122 278.734,181.622 278.734 C 180.817 278.734,179.188 277.831,178.684 277.106 L 178.239 276.465 178.239 279.572 M218.793 299.209 L 218.793 319.697 219.238 319.487 L 219.683 319.276 219.238 319.603 C 218.871 319.872,218.587 320.870,218.877 320.870 C 218.923 320.870,219.635 320.507,220.460 320.062 L 221.958 319.253 221.958 320.260 L 221.958 321.266 225.915 321.266 L 229.871 321.266 229.871 317.903 C 229.871 316.053,229.805 314.541,229.723 314.543 C 229.641 314.544,228.640 315.076,227.498 315.725 C 225.534 316.841,225.417 316.882,225.352 316.471 C 225.306 316.183,225.472 315.876,225.846 315.557 L 226.409 315.077 225.865 315.407 L 225.321 315.736 225.321 299.237 L 225.321 282.737 224.679 282.252 C 224.107 281.820,220.404 279.577,219.238 278.957 L 218.793 278.720 218.793 299.209 M178.242 300.247 L 178.239 314.144 180.218 314.144 L 182.196 314.144 182.196 301.326 L 182.196 288.508 181.480 288.460 C 180.513 288.395,179.374 287.784,178.755 286.999 L 178.244 286.350 178.242 300.247 M133.647 315.150 C 133.290 317.840,131.595 320.172,129.375 321.028 L 128.289 321.447 149.258 321.406 L 170.227 321.365 171.161 320.934 C 173.304 319.944,174.962 317.649,175.203 315.339 L 175.328 314.144 154.554 314.144 L 133.780 314.144 133.647 315.150 M183.185 317.681 L 183.185 321.217 186.696 321.211 C 188.628 321.208,189.785 321.170,189.268 321.126 L 188.328 321.047 188.328 317.595 L 188.328 314.144 185.757 314.144 L 183.185 314.144 183.185 317.681 " stroke="none" fill="#bcbcc3" fill-rule="evenodd"></path><path id="path7" d="M105.901 258.704 C 116.328 258.733,133.331 258.733,143.685 258.704 C 154.040 258.676,145.509 258.653,124.728 258.653 C 103.947 258.653,95.474 258.676,105.901 258.704 M177.890 265.084 C 177.890 265.465,177.930 265.621,177.980 265.430 C 178.030 265.240,178.030 264.928,177.980 264.738 C 177.930 264.547,177.890 264.703,177.890 265.084 M187.979 265.084 C 187.979 265.465,188.019 265.621,188.069 265.430 C 188.119 265.240,188.119 264.928,188.069 264.738 C 188.019 264.547,187.979 264.703,187.979 265.084 M181.454 270.957 C 181.644 271.007,181.956 271.007,182.146 270.957 C 182.337 270.908,182.181 270.867,181.800 270.867 C 181.419 270.867,181.264 270.908,181.454 270.957 M191.543 270.957 C 191.733 271.007,192.045 271.007,192.235 270.957 C 192.426 270.908,192.270 270.867,191.889 270.867 C 191.508 270.867,191.353 270.908,191.543 270.957 M177.890 274.777 C 177.890 275.158,177.930 275.314,177.980 275.124 C 178.030 274.933,178.030 274.622,177.980 274.431 C 177.930 274.241,177.890 274.397,177.890 274.777 M191.444 298.260 C 191.689 298.307,192.090 298.307,192.334 298.260 C 192.579 298.213,192.379 298.175,191.889 298.175 C 191.400 298.175,191.199 298.213,191.444 298.260 " stroke="none" fill="#efaf96" fill-rule="evenodd"></path><path id="path8" d="M105.802 251.187 C 116.283 251.215,133.375 251.215,143.784 251.187 C 154.194 251.159,145.618 251.135,124.728 251.135 C 103.838 251.135,95.321 251.159,105.802 251.187 M85.710 258.698 C 86.011 258.743,86.456 258.742,86.699 258.695 C 86.942 258.648,86.696 258.611,86.152 258.612 C 85.608 258.614,85.409 258.652,85.710 258.698 M162.859 258.698 C 163.158 258.743,163.647 258.743,163.947 258.698 C 164.246 258.652,164.001 258.615,163.403 258.615 C 162.804 258.615,162.559 258.652,162.859 258.698 " stroke="none" fill="#e47c7c" fill-rule="evenodd"></path></g></svg>